<svg id="Layer_1" data-name="Layer 1" xmlns="http://www.w3.org/2000/svg" viewBox="0 0 1920 1080"><defs><style>.cls-1{fill:#fff;}.cls-2{fill:#fefefe;}.cls-3{fill:#e9f2f9;}.cls-4{fill:#233763;}.cls-5{fill:#3c4462;}.cls-6{fill:#444862;}.cls-7{fill:#25395f;}.cls-8{fill:#4a5069;}.cls-9{fill:#feb17d;}.cls-10{fill:#e65c51;}.cls-11{fill:#cbdff9;}.cls-12{fill:#aec2fd;}.cls-13{fill:#fdfdfd;}.cls-14{fill:#2b468a;}.cls-15{fill:#2b468b;}.cls-16{fill:#fcfaf9;}.cls-17{fill:#fafafb;}.cls-18{fill:#d04943;}.cls-19{fill:#b5453d;}.cls-20{fill:#d04c46;}.cls-21{fill:#2c478b;}.cls-22{fill:#fbb17f;}.cls-23{fill:#233863;}.cls-24{fill:#183661;}.cls-25{fill:#fbb07d;}.cls-26{fill:#253963;}.cls-27{fill:#243964;}.cls-28{fill:#9db0f3;}.cls-29{fill:#eb9860;}.cls-30{fill:#f8ad7d;}.cls-31{fill:#9eb0f2;}.cls-32{fill:#f9af7d;}.cls-33{fill:#eeccd1;}.cls-34{fill:#d14c46;}.cls-35{fill:#b54b46;}.cls-36{fill:#efd4cb;}.cls-37{fill:#f9bc92;}.cls-38{fill:#d15654;}.cls-39{fill:#d05250;}.cls-40{fill:#e9f1f9;}.cls-41{fill:#fbfbfb;}.cls-42{fill:#e8f1f8;}.cls-43{fill:#caddf8;}.cls-44{fill:#adbff8;}.cls-45{fill:#fbfcfb;}.cls-46{fill:#e8f2f9;}.cls-47{fill:#e5eff6;}.cls-48{fill:#cf4741;}.cls-49{fill:#fcfbfb;}.cls-50{fill:#d3e3f7;}.cls-51{fill:#f9e2da;}.cls-52{fill:#fdfdfc;}.cls-53{fill:#fcfcfc;}.cls-54{fill:#fdc198;}.cls-55{fill:#fdc29a;}.cls-56{fill:#233862;}.cls-57{fill:#aec1fa;}.cls-58{fill:#eeab7b;}.cls-59{fill:#f2ac7d;}.cls-60{fill:#d04842;}.cls-61{fill:#d96c67;}.cls-62{fill:#d76a64;}.cls-63{fill:#d04741;}.cls-64{fill:#c69c6d;}</style></defs><title>mainbg</title><rect class="cls-1" width="1920" height="1080"/><path class="cls-2" d="M1229.21,979.17q-323.62,0-647.25.17c-7.33,0-10-.79-10-9.29q.43-428.47,0-856.95c0-7.6,1.63-9.07,9.13-9.07q647.78.33,1295.55,0c8.37,0,9.37,2.46,9.36,9.88q-.3,428,0,855.9c0,7.9-1.84,9.6-9.65,9.59Q1552.84,979,1229.21,979.17Z"/><path class="cls-3" d="M672.78,847.07c-9.78-15.86-18.88-32-26.34-49.19a188.52,188.52,0,0,1-15.15-65.28c-2-38.86,4.07-76.81,20.09-112.72,9.94-22.27,27.14-38.34,46-52.73,29.59-22.51,61.44-41.59,93.23-60.76,22.77-13.73,40-32.68,52.77-56.2C858.14,423,866.21,393.47,876,364.54c10-29.34,20.87-58.19,39.72-83.16,20.61-27.3,47.16-46.42,79.51-58.32,45.47-16.72,92.47-21,140.35-20.52,29.24.26,58.56,1.19,87.68-2.15,24.4-2.8,48.78-5.84,73.13-9.26,35.62-5,70.95-11.74,107.07-14.33a266.49,266.49,0,0,1,123,19.71c33.87,14,66.3,31.09,90.6,59.57,16.57,19.42,25.19,43.11,29.76,67.88,8.19,44.36,22.94,85.43,52.49,120.6,28.06,33.39,62.21,59.2,97.91,83.58,24.58,16.78,35.34,43.06,43.59,70.33,6.88,22.74,9.14,46.47,8.88,69.85-.3,27.61-3.78,55.26-12.19,81.94-9.75,31-24,59.13-48.15,81.68-5.48,5.11-13.45,7.5-16.62,15.1a5.76,5.76,0,0,1-4.56,2.15c-24-.08-48,1.16-72-.64-2.71-1.56-3-4.18-3-6.89,2.81-21.6-.72-42.91-3-64.28-.87-8.88-4.69-17.3-4.11-26.41.14-1.74.08-3.82,1.2-5,9.86-10.48,7.79-23.49,6.63-35.63-2.83-29.35-5.55-58.73-11.57-87.74-3.65-17.62-8.42-34.37-19.83-48.64a15.87,15.87,0,0,1-1.06-8.28c.89-5.21,4-9.53,5.86-14.35,4.58-11.73,1-17-11.53-17.38s-14.68,1.14-14.7,10.9c.53,9.51-.52,19.35,7,27.16,1.65,1.71,1.41,4.5,1,6.94-6.23,12.23-7.43,26.14-12.84,38.65-5.84,2.92-10.54-1.68-15.82-2.46-4.28-.64-8.23-3.35-13.47-2.53,4.78,9.86,16.67,12.29,20.25,22.21,0,4.59-3.36,7-6.8,8.23-13.86,5.06-27,12-41.31,15.88-4.41.52-8.67-2.37-13.63-.54,4.22,4.49,9.47,3.07,14.3,3.35a284.77,284.77,0,0,0,41.85-5.74c4.63-1,9.67-2.65,12.6,3.31,1.69,5.47,1.11,11.08,1.09,16.66,1.06,21.53-1.47,43.14,1.83,64.61a59.38,59.38,0,0,0,3.56,14.11c6.87,28.1,9.44,56.51,6,85.35-4.17,6.91-10.71,9.21-18.35,9.33q-59,.07-118,0c-3.81,0-7.66.41-11.41-.79-5-4-6.51-8.58-2.81-14.24,20.65-1.41,41.31-.16,62-.67q-29.82,0-59.64,0c-7-2.13-6.23-8.44-7-13.67-4.21-27.37-1.49-55-2.32-82.42-.31-10.27,1.63-20.06,4.81-29.75,2.74-8.37,6.24-16.38,11.91-23.1,20.91-24.75,26.55-54.68,29.24-85.53.88-10,.41-20.2.07-30.3-.38-11.06-4-13.61-14.47-10.83-2.64.69-5.68,2.69-7.68-.17-2.33-3.33.57-5.81,2.81-8,4.77-4.6,10.5-8.11,15.14-12.84,8.67-8.82,7.11-18.67-4.47-23-8.11-3-8.77-6.24-3.75-12.55,5.53-6.94,5.31-14.16-.45-20.94s-12.64-8.22-20.69-4.63c-.95.43-1.88.92-2.85,1.31-3.45,1.4-7.06,4.49-10.68,1.57-3.94-3.17-2.21-7.69-1-11.66,5-16.67,9.57-33.49,14.53-50.19,3.28-11.07.72-17.65-7.59-20.82-7.28-2.78-13.85.7-18.25,11.26-9.79,23.47-19.39,47-27.7,71.08q-8.21,23.7-16.75,47.29c-1.22,3.38-1.25,10.39-8.62,6.43-3.65-4.55-2.71-10-2.72-15.11q-.12-65.91-.06-131.83c0-4.87.29-9.76-.51-14.59-1.43-4.31-1.3-9-3.17-13.2-6.23-10.65-15.06-16.46-27.84-15.3-3.74.34-7.48-.85-11.28-.36q-36.63.28-73.22,0c-13.31-.11-15.3-1.71-16.11-14.79-.47-7.6-3.48-10.44-10.92-10.31-14.28.25-28.58.22-42.87,0-7.21-.1-10.66,2.34-11.21,10.08-.94,13.31-2.84,14.92-16,15-26.84.14-53.68.38-80.5-.13-20.84-.48-28.65,4.09-33.5,19.65a115.12,115.12,0,0,0-1.91,22.92c.06,36.62,0,73.25.06,109.88,0,4.12-.69,8.35,1.61,13.5,3-4.65,2.21-9.12,2.23-13.28.09-37-.13-74,.23-110.93,0-4.76-2.49-11.59,5.74-13.18,2.42,2.86,2.7,6.36,2.71,9.83.13,42.69.31,85.38-.08,128.06a21.39,21.39,0,0,1-.75,5.11c-1.33,5-5.56,5.29-9.69,6-17.4,3.17-21.54,14.64-10.47,28.78,2.12,2.69,4.89,4.86,6.39,8a8,8,0,0,1-.22,6.31c-3.45,4.18-8.43,6-13.22,7.7-11.5,4-17.88,12.2-21.54,23.3-1.92,5.84-3.14,12-7.31,16.95-11.42,10.48-26.87,14.64-38.62,24.63-1.84,1.57-4.1,2.66-5.92,4.26s-4.53,2.81-3.43,5.77c.81,2.2,3.32,2.2,5.33,2.6,12,2.39,23.71,5.57,35.41,8.95a59.16,59.16,0,0,1,9.74,3.74c4.09,2,8.85,4.22,7.62,9.76-1,4.77-5.88,5.72-10.07,5.88-12.52.47-25.09,1.26-37.54-.51C998.77,674,988.3,674.23,978,672.4c-7.3-1.3-13.2,1.59-18.84,6.66-13.95,12.56-23.24,27.45-26.17,46.11a16.92,16.92,0,0,0-3.53,10.62c-.29,28,.42,55.92-.15,83.88-.06,2.76-.14,5.66,3.17,6.92a37.06,37.06,0,0,0,6.18.79c12.56.67,13.72-.48,14-12.77.21-7.89-1-15.88,1.43-23.65,4.55-7.1.85-16,5-23.18,7.05-3.13,12.68.28,18.25,4,5.2,12.74.61,26,2.08,39,.57,5-1.64,10.45,2.33,14.89,7.43,3.51,15,2.5,22.52.61,6.33-9.57,2.64-20.11,2.44-30.07a398.48,398.48,0,0,1,1.63-44.4c7.13-10.48,16.45-18.79,26.54-26.28,3.09-2.29,6.64-4.71,10.43-1.81,3.49,2.67,3.24,6.92,2.33,10.63-3.81,15.53-11.88,28.88-22,41-5.61,6.68-5.39,8.38,3.62,9.73,9.61,1.45,19.23,3.16,29,3.12,4.44,0,9.23-.49,12.41,3.88,5.14,16.63,4.26,33.82,4.78,50.88a6.86,6.86,0,0,1-2.74,5.36c-3.29,1.63-6.83,1.12-10.28,1.13q-110.82,0-221.63.06c-9.15,0-17.48-1.15-22.31-10.23-4.83-18.15-9.71-36.24-10.61-55.24-1-20.37-7.9-39.56-13.54-59a20.85,20.85,0,0,1-.35-5.23c.56-5.17-.47-10.33-.28-15.49.36-9.55,6.34-16,15.64-17.77,10.31-1.93,11.11,7.18,15.17,12.56,5.79,17.72,17.22,31.43,31.09,43.38,2.65,2.28,5.27,4.58,6,8.27,1.25,7.39,4.16,13.57,12.59,14.49,8.2.9,13.07-4,16-10.87,12.07-27.79,23.67-55.78,35.11-83.83,1.81-4.43.45-7.39-3.55-9.51-.62-.32-1.25-.61-1.87-.93-16.35-8.35-16.79-8.11-24.23,8.75-4.93,11.17-8.63,22.83-13.87,33.86-2.65,5.57-4,12-10,15.5-9.75-4.75-15.7-12.76-19.14-22.76a87.34,87.34,0,0,1-3-10.95c-.24-5-1.45-9.92-.85-15,1.61-7.72,4.64-15.49-.68-23,2.51-6.71,10.92-8,13.43-14.71,5.17-10.47-1.7-28.16-12.5-32.12-6.44-2.36-16,2.21-15.47,9.47,1,14.5-7.1,23.74-15.16,33.54-11.83,8.23-26.34,10.11-39,16.52-20.36,10.31-37.67,23.45-46.58,45.32-4.29,10.51-7,21.09.94,31.31-1,18.78,1.11,37.87-9.27,55.34-6.09,10.26-7.25,22.25-6.82,34.21a46.23,46.23,0,0,1-.85,12.41c-2.24,8.66-7.51,12.84-16.7,11.62S681.57,851.88,672.78,847.07Z"/><path class="cls-4" d="M1167.15,851.17h-35.53a12.33,12.33,0,0,1-5.18-4c-12-22.56-18.49-46.89-22.5-71.9-.87-5.41-2.15-10.84-2.39-16.38-.23-6.68.39-13.19,3.87-19.12,7.25-9.51,3.93-20.57,4.13-31,.18-9.31,2.92-15.3,12.92-16.19,4.13-.58,8.34-2.84,12.31.5,3.72,12.49,4.52,25.29,4,38.23,0,1.81.21,3.62,0,5.42,1.52,12.88,1.83,25.86,3.12,38.75,1.85,18.2,3.78,36.39,7.32,54.38,1.37,7,4.35,12.29,11.17,15C1162.89,846.71,1167.06,846.81,1167.15,851.17Z"/><path class="cls-5" d="M1129.42,847.1l2.2,4.07c-37.64.11-75.29.31-112.93.32q-182.51.06-365,0H642.85l-.06-2.85c9.77-2.8,20.1,0,30-1.58,8.25.14,16.57-.35,24.73.58,9.12,1.05,15-1.66,17.42-10.75,3.65-1.57,6.87-.15,10.08,1.4a33.52,33.52,0,0,0,19.63,6q25.58,0,51.16,0c5,0,9.75-.58,13.26-4.73,3.12-3.19,6.4-5.84,11.12-2.93,3.92,8.34,11.18,10.82,19.61,10.82q116.67,0,233.33-.16c6.26-8.18,14.3-4.66,22-3.37C1106.52,845.5,1118.42,841.52,1129.42,847.1Z"/><path class="cls-6" d="M1167.15,851.17l-6.18-3.48c3-3.76,7.39-3.69,11.52-3.69,70.11,0,140.23-.48,210.34.18,34.5-.6,69-.18,103.52-.21,4.2,0,8.4.2,11.88,3.08l132.15.6c1.49.7,2.58,1.63,2,3.5q-112.92.21-225.83.38-115.55.11-231.09,0C1172.71,851.52,1169.93,851.29,1167.15,851.17Z"/><path class="cls-7" d="M1632.41,851.15l-2-3.5,14.68-6.65c4.29-6.65,9.39-3.33,14.39-1.18,3.51,4.44,7.77,5.07,12.82,2.76,3.12-1.43,6.11-3.2,9.54-3.93,4.69.62,10.78-5.23,13.81,3-.06,1.77-.13,3.53-.2,5.3.74,3.18,6.54-.78,6,4.23Z"/><path class="cls-8" d="M1701.39,851.16c-1.34-2.33-5.33-.92-6-4.23l77.37.11c11,1.57,22.28-1.39,33,4.12Z"/><path class="cls-9" d="M1498.23,847.05,1382.6,847c-6-15.63-2.24-21.23,14.26-21.39,8.32-.08,16.89,1,24.55-3.15,10.74-5.87,17.32-14.4,17.56-27.4.17-9.23-2.17-18.76,2.19-27.69,3.63-2.77,7.88-2.59,12.1-2.53,2.4,0,4.82-.13,7.24,0,7.2.41,12.16-1.34,11.9-10.11s-2.09-10.87-12.1-11.21c-2.42-.08-4.84,0-7.27,0-9.54.31-19.06.28-28.57,0a67.62,67.62,0,0,1-7.26,0c-7.55-.23-10.36,3.51-10.39,10.86,0,7.55,3.08,10.91,10.57,10.49,2.76-.15,5.54-.07,8.33,0,3.1.06,6.06.5,8.45,2.72,3.12,14.07,5,28.43-2.5,41.46-8,13.9-26.86,18.07-46.68,11.75-2.79-3.25-2.45-7.09-1.94-10.91,3.23-24.48,5.74-49.05,9.45-73.46a119.86,119.86,0,0,1,.44-12.85,130.31,130.31,0,0,0-3.7-68.86c-11.06-33.85-16-68.7-16.27-104.77-.25-28.69-2.7-57.63-5-86.4-.55-7-1.54-14.35,7.15-17.58,7-2.61,14.24.49,18.89,9.18a110.74,110.74,0,0,1,12.87,41.67c.51,5.29,1.33,10.31,3.86,15,.76.71,1.48,1.48,2.19,2.24,2.65,4.1.78,8.77,1.68,13.11.65,4.27.73,8.7,3.5,12.56,4.15-.25,3.53-5.47,6.81-6.48,8.07-16.61,12.85-34.43,18.93-51.75,9.22-26.29,19.58-52.14,30.44-77.76,6.07-14.31,19.62-16.21,29-5.08,4.08,4.86,4,10,2.26,15.69q-7.95,26.46-15.56,53c-1,3.52-3.55,7-.58,11.82,12.89-8.29,26.19-14.89,37.59,2.2,5.61,8.4,4.08,15.54-6.52,28.07,3.16.62,6.16.79,8.83,1.82,11.41,4.4,14,17.25,5.4,26.48-6.46,6.94-15.56,11.07-22.09,19.7,23.33-7.3,25.42-5.47,25.88,19.28.5,27-2.71,53.38-12.3,78.86-3.72,9.9-8.39,19.15-15.21,27.18-13,15.31-18.64,33.22-18.9,52.92-.36,27.5-1.78,55,2,82.45.66,4.81,1.53,9.59,2.3,14.38.65.49.88,1,.7,1.54s-.38.82-.58.82Q1497.35,841,1498.23,847.05Z"/><path class="cls-10" d="M1099.27,516.26l.24-146c-1.45-1.87-1.31-3.95-.83-6.09a20,20,0,0,1,2.86-5.9,35.21,35.21,0,0,1,13.87-10.37c4-1.73,8.15-1.73,12.34-1.73q126.59-.06,253.16,0c11.94,0,22,3.34,28,14.6a31.78,31.78,0,0,1,3.46,8.6,21,21,0,0,1-.28,10.19c-16.49,33.94-38.11,64.57-61.35,94.13-2.32,3-4.35,6.36-8.11,7.92-5.21-.73-7.24-5.19-9.83-8.73-23.39-31.88-67.5-45.47-104.84-33.5-42.58,13.65-68.12,49.33-68.54,92.32-.25,25.41,9.1,46.8,24.9,65.95,2.62,3.18,6.29,5.66,6.75,10.25-4,7.58-12.11,9.93-18.59,14.11-7.73,5-14.5,11.39-22.77,15.54-1.91-2.72-1.88-5.81-1.78-8.92,1.15-5.35,2.6-10.8-4.46-13.47-2.19-3.28-3-7.1-3.55-10.83-2.1-15.42-9.71-26.46-24.44-32.3a20.43,20.43,0,0,1-6.08-4c-2.77-2.84-5.56-6.15-3.21-10.09,4.49-7.54,3.43-15.35,2.35-23.29C1112.06,525.22,1101.92,522.61,1099.27,516.26Z"/><path class="cls-11" d="M932.68,723.74c-1.63-25,16.38-38.42,31.9-53.13,2.86-2.72,7.46-1.49,11.17-1.13,21.72,2.11,43.39,5,65.29,4.07,5-.22,12.51,1.77,13.69-4.09,1.3-6.49-6.88-6.71-11.3-8.35a236.82,236.82,0,0,0-40.06-10.5c-4-.74-9.73-.51-10.77-4.32-1.11-4,4.19-6.7,7.31-9.19,14.12-11.29,30.89-18.39,45.81-28.44,3.17,4.65.81,9.41.13,14.06-2,13.44-3.93,26.56,13,32.81,4.9,1.82,4.33,7.41,4.59,11.88.88,14.92-.82,29.73-2,44.56-.82,9.91.22,19.28,7.44,27,1.36,13,3.53,26,3.17,39.21-.12,4.43.43,9.11-3.24,12.66a172.06,172.06,0,0,1-44.34-4.11c-3.32-.77-7.74-1.41-8.52-5-.74-3.41,3.91-4.2,5.91-6.36,11.45-12.43,19.73-26.73,23.77-43.22.59-2.41,1.32-5.89-1.81-7.5s-4.84,1.57-7.13,2.94c-10.29,6.16-16.69,16.68-26.45,23.41-4.18-4.25-3.09-9.73-3.13-14.78,0-6.62-3-9.52-9.51-9.23-2.76.12-5.55.1-8.32,0-6.55-.23-9.48,2.83-9.45,9.36,0,8,.13,15.94-.09,23.91-.11,4.09.35,8.43-3.13,11.65-6,.36-10.93-3.37-16.62-4.2-5.76-7.75-2.83-16.68-3.13-25.07-.52-14.6-.19-14.61-14.57-15.73C938.78,726.61,935.24,726.65,932.68,723.74Z"/><path class="cls-12" d="M1632.56,658.91c-9.64-2.57-18.32,3.35-27.64,3.18-9.08-.17-17.87,5.13-27.1,1.31a4.59,4.59,0,0,1,0-6.31c13.46-5.12,27-10.06,40.33-15.47,3.28-1.33,7.19-3,7.67-7.56,1.44-6.32,2.62-12.76,8.52-16.82q3.14-11.88,6.26-23.76c1.34-5.05,3-10,6.43-14.08,4.78-4.61,9.91-8.32,17.14-6.39,11.79,11.33,16.26,26,19.52,41.43a637.16,637.16,0,0,1,13.6,110.82c.23,7.45,1.7,15.44-7.1,20-1.2.62-1.07,3.81-1.56,5.81-8-.56-14.9,3.75-22.45,5.28-9.1,1.91-18.19,3.71-27.11-.69-8-8-5.62-18.76-6.3-28.2-1.24-17.18-.39-34.52-.41-51.8,13.81-11.76,26.07-24.65,31.81-43.42C1654.28,642.79,1644.31,651.92,1632.56,658.91Z"/><path class="cls-12" d="M1066.76,738.5c-6.81-3.6-8.77-9-8.7-16.81.19-18.73,3.75-37.29,2.41-56.08-.34-4.81-.17-8.13-6.75-9.18-8.09-1.28-11.51-8-12.17-16-.89-10.89,1.74-21.3,4.17-31.75.82-2.27,2-4.48,2.4-6.82,4.15-22,18.24-34,39.15-39.17,4.46,2.33,4.87,7.09,6.69,11,4.17,12.8,6.4,26,8.82,39.21a110,110,0,0,1-4.09,25.23,39.88,39.88,0,0,0-1.91,12.83c.73,7.26-4.94,15.25-1,21.23,4,6.16,13,1.26,19.51,3.36,1.69.55,3.22,1.21,4.15,2.81-6.51,9.25-6.48,9.36,3.75,16.44-9.89.58-11.62,6.42-10.72,15.1.77,7.54-.06,15.23.17,22.85.13,4.57-1.5,7.28-6.09,8C1092.94,745.79,1079.67,745.24,1066.76,738.5Z"/><path class="cls-12" d="M850.84,669.47c-1.34,4.51,3.74,8.95.16,13.5-.73,4.95-5.55,5.59-8.57,8.13-5.83,4.06-8.5,14-18.66,10-1.41-1.47-3.21-2.73-4.14-4.46-2.33-4.34-2.79-10.42-10.64-7.46-6.88,2.6-12.33,5.34-12.73,14.1-.26,5.69,4,11.46-.2,17a108.73,108.73,0,0,1-31.76,14.51c-10.92,2.32-21.83,5-32.64-.36-6.39-4.22-7.24-9.7-5.6-17.07,6.74-30.18,26.55-48.4,53.4-60.94,12.33-5.76,25.27-9.66,38-14.32,4.92-3.77,10.82-4.79,16.69-5.92,9,1.25,9.69,9.13,12.27,15.49C848.75,657.4,850.62,663.23,850.84,669.47Z"/><path class="cls-13" d="M1123.28,338.73c28.56,0,57.12-.26,85.68.1,7.78.09,11.25-1.49,10.91-10.28-.62-16.09-2.39-15,15-15,15.33,0,30.67.36,46-.15,7.66-.26,10.44,1.91,10.22,9.91-.45,16.71-2.54,15.31,15.72,15.36q37.1.09,74.19.06c4.73,8.77,4.47,9.3-6,9.31q-82.12.08-164.23,0c-25.81,0-51.61.17-77.41-.14C1128,347.85,1120,349,1123.28,338.73Z"/><path class="cls-14" d="M1066.76,738.5c13.22,1.36,26.39,3.59,39.76,2.26q-1.18,9.6-2.36,19.22c.27,24.23-5,47.86-7.77,71.77-.62,5.36-.6,11.17-4.82,15.53-6.15-4.88-12.3-1.8-18.45,0-1.17-18.85-1.67-37.75-4.38-56.47Z"/><path class="cls-13" d="M932.68,723.74c27.16.15,27.16.15,27.17,27.2,0,5.58,0,11.16.07,16.74q0,8.1-.08,16.22c0,3.08.27,6.32-4.05,6.86-3.35,3-7.55,3.35-11.66,3.08-8.28-.56-10.57,3.52-10.64,11.18s2.22,15.85-2.75,23c-4.9,2.43-4.28-1.86-4.29-4-.14-31.43-.05-62.86-.16-94.29C926.27,725.09,928.55,723.61,932.68,723.74Z"/><path class="cls-13" d="M976.54,771.88c0-13.14.36-26.29-.07-39.42-.22-6.91,2.36-8.74,9-8.83,24.44-.33,24.43-.56,24.69,27.34q0,34.44-.06,68.89c0,6.15-.09,6.15-4.36,8.25-5.92-10.84-1.91-22.56-2.91-33.83-.5-5.55-.61-10.5-8.14-10.75-6.68-.22-10.8,1.62-10.72,9.19s.15,15.35-.09,23c-.13,4.44.6,9.2-3.3,12.7-5.7-1.16-3.87-5.77-3.91-9.18C976.5,803.47,976.56,787.67,976.54,771.88Z"/><path class="cls-14" d="M731.66,734.47c11.77-.44,23.65.5,35.16-3,2.22,2.71,1.47,5.56.39,8.43-9.26,31.76-28.84,59.1-38.89,90.52-1,3.26-1.94,6.74-5.38,8.55a13.33,13.33,0,0,1-8-2.08c-1.37-20.52,1.15-39.84,12-58.24,5.79-9.79,1.57-22.56,4.07-33.78C731.79,741.53,731.48,738,731.66,734.47Z"/><path class="cls-14" d="M1639.09,755.67c9.67-.61,19.44,0,29-2.15,4.47,3.23,5,8,5,12.93,0,10.31.47,20.61.55,30.91-5,10.27-3.76,21.81-6.59,32.52-1.17,4.42-.65,10.13-7.18,11.22-4.93.47-9.82-4.09-14.77-.1,1.43-26.31.12-52.41-5.88-78.18C1638.65,760.55,1639.1,758.06,1639.09,755.67Z"/><path class="cls-15" d="M820.18,836.63c-3.87-.42-6.62,1.41-8.82,4.35-13-13.82-21-29.89-21.79-49.06-.27-6.61-3.45-11.82-6.54-17.21-2.73-4.75-6.54-9.05-6.37-15,5.59-10.63,13.92-19.95,15.5-32.54.24-1.87,1.4-4.06,4.25-3.35,7.69,20.59,13.62,41.52,14.35,63.72C811.32,804.33,817.35,820.2,820.18,836.63Z"/><path class="cls-13" d="M1100.56,364.48l-1,5.82c-2.52,3.46-1.37,7.43-1.38,11.16-.09,40.07,0,80.15-.09,120.22a37.74,37.74,0,0,1-.81,9.28c-.67,2.64-3.21,3.45-5.89,3.19s-3.51-1.95-3.59-4.28-.08-4.88-.08-7.31c0-41.82.15-83.64-.16-125.46,0-6.74,2.66-12.94,2.3-19.58C1096.85,354.5,1100.28,357.06,1100.56,364.48Z"/><path class="cls-16" d="M871.87,717.44c9.47-17.84,16-36.9,23.69-55.51,5.06-12.32,6.05-12.78,18.07-7.26,1.26.59,2.5,1.24,3.8,1.75,14.22,5.56,14.21,5.54,8.76,18.74q-15.39,37.32-30.78,74.66c-1.07,2.57-2.38,5-3.69,7.5-4.08,7.7-9.84,12.61-19.2,10.45-9.13-2.1-13.12-8.26-12.95-17.39,4.38,0,5.24,3.93,7.27,6.58,2.86,3.75,6,6.92,11.32,4.36,4.63-2.41,7-6.67,9-11.14,9-20.64,17.54-41.5,26.4-62.21.81-1.9,1.61-3.86,1.08-6-6.62-2.46-13.11-2.86-19.45.71-8.93,16.43-15.09,34.07-22.75,51-1.83,4-2.84,8.59-6.76,11.41-2.82.17-3.54-1.8-4.09-4-.39-6.1,2.77-11,5.28-16.21A15.45,15.45,0,0,1,871.87,717.44Z"/><path class="cls-17" d="M1100.56,364.48c-2.14-4.54-5.33-7.48-10.75-7q10.37-20.73,33.47-18.8c-.07,8.32,6,8.22,11.67,8.27,14.66.13,29.33,0,44,0q96.9,0,193.79,0c5.8,0,12.09.95,8.23-8.35,4.94,2.64,10.06-.6,15,.4,9.93,2,17.25,7.93,22.71,16.3-3.55,2.66-7.12,5.3-10.4,8.3-7.53-11.52-18.41-14.85-31.8-14.8-80.94.31-161.88.17-242.83.15-6.95,0-13.91-.15-20.59,2.26-6.84-1.19-10.73,1-10,8.61C1103,361.86,1102.66,363.66,1100.56,364.48Z"/><path class="cls-13" d="M1408.23,363.72c.56-6.41,4-9.16,10.4-8.3,2.57,3.86,2.16,8.24,2.16,12.54,1.9,50.3-.44,100.59-.09,150.88,0,5.14.6,11.58-8.22,8.21-2.92-4,.31-8.11-.25-12.16-3-4.64-2.78-9.9-2.79-15.1,0-35.36.2-70.73-.16-106.1-.08-7.94,4.22-15.55,1.27-23.56C1409.2,368.2,1407.73,366.31,1408.23,363.72Z"/><path class="cls-18" d="M980.59,828.44c0-13.52.38-27,0-40.55-.18-6.22,1.43-8.47,8-8.27,20.63.61,16.43-1.7,16.84,16.26.24,10.74.19,21.48.27,32.23C997.41,831.23,989,831,980.59,828.44Z"/><path class="cls-19" d="M835.31,637.24a35.18,35.18,0,0,1-17.89,4.9c-.37-3.31.07-6.93,3.13-8.29,9.72-4.31,9.54-12.4,9.14-21-.36-7.83,3.18-13.6,10.74-16.08,7.35-2.41,12.14-.52,17.14,6.74,10.82,15.76,12.62,20.38,5.54,30.2-4.94-1-2.24-4.67-2.48-6.77C851.47,628.37,842.4,630.48,835.31,637.24Z"/><path class="cls-20" d="M930.74,828c.1-10,.53-20,.17-30-.24-6.45,2.16-8.71,8.41-8.09,5.46.54,11,.55,16.47.79,0,10-.43,20,.07,30,.35,7-1.49,10.46-9.05,9.41C941.46,829.42,935.72,831.66,930.74,828Z"/><path class="cls-21" d="M1695.62,841.63c-4.82-4.35-10,1.18-15-.63-6-9.18-6.29-19.83-7.93-30.15,3.55-11.26,10.56-20.87,15.29-31.59.81-1.83,2.32-3.5,4.85-3.09C1696,797.9,1699.61,819.6,1695.62,841.63Z"/><path class="cls-22" d="M863.26,741c.07,1.56.5,2.9,2.11,3.55,9.49,3,8.86,12.65,12.85,19.27-6.94,3.36-11.05-.72-13.92-6-1.43-2.64-1.82-5.79-4.73-7.48-6.23-6.4-12.31-13-18.74-19.16-8.69-8.4-14.69-18.21-17.06-30.12,8.1-.48,12.05-6.69,16.62-12,1.71,8.46,6.22,15.8,9.55,23.62C851.36,723.55,861.36,730.4,863.26,741Z"/><path class="cls-23" d="M1692.86,776.17q-9.12,16.71-18.23,33.42c-4-2.62-5.37-5.91-2.6-10.24-2.93-9.73-1.89-19.72-1.86-29.63,0-5.53-.34-10.93-2.09-16.2,4.86-1.74,9.94-3,14.5-5.36,4-2.07,4.65.76,6.07,2.93Q1690.75,763.63,1692.86,776.17Z"/><path class="cls-24" d="M1639,544.43c-4.43-7-1.59-10.87,5.58-12.86a7,7,0,0,1,1-.23c9.07-1,19.67-3,25.44,4.81,5.35,7.27-.54,15.86-4.32,23.27-.94,1.84-2.17,3.54-3.27,5.3-3.33,5.95-8.38,5.34-11.76,1.28C1646.36,559.6,1639.2,553.94,1639,544.43Z"/><path class="cls-25" d="M1092.1,573.87l-4.83-11.2c.06-2.28.12-4.55.19-6.83-2.31-4.87-6.92-10.33-.89-14.83,6.9-5.15,12.88-15.2,24.07-7.79,1.29,8.94,4.73,18-2.87,26.13-2.54,2.73,1.75,4.59,2.56,7a8.09,8.09,0,0,1-1.29,6.15C1103.8,577.85,1098.29,580,1092.1,573.87Z"/><path class="cls-26" d="M1110.64,533.22c-7.18.49-15.87-2-17.62,9.06-13.82-.38-3,9.33-5.56,13.56-9.43-5.75-15.73-18.18-13.56-26.76,2.3-9.1,9.7-12.84,25.38-12.82,4,2.47,8.09,4.62,11.21,8.32C1113,527.59,1113.75,530.28,1110.64,533.22Z"/><path class="cls-17" d="M1412.48,527.05c6.37.5,6.25-3.78,6.23-8.23-.07-15.69-.29-31.38,0-47.07.45-21.86,1.64-43.71,1.89-65.57.12-10.87-1.12-21.76-1.78-32.64-.13-2.16-.09-4.2,1.94-5.58,3.39,3.11,2,7.21,2,10.87q.15,70.62.08,141.23c0,4.51-.53,9.1,2.07,13.21-1.22,4.52-1.07,11.69-6.23,11.77-6,.09-3.72-7.8-5.88-11.83C1412,531.56,1412.55,529.12,1412.48,527.05Z"/><path class="cls-27" d="M796.41,723.79c-4.44,9.06-4.29,20-11.67,27.94-2.28,2.47-3.72,5.77-6.78,7.61-7.39-4.85-12.26-11.06-11.12-20.52a10.42,10.42,0,0,1,0-7.34c10.56-1.59,18.35-10.43,29.24-11.16C796.17,721.47,796.29,722.63,796.41,723.79Z"/><path class="cls-28" d="M1632.56,658.91c9.4-12.75,25.11-18.89,33.73-35.17,2.17,8.16-.88,12.64-2.52,17.19-4.85,13.38-15.54,22.58-24.57,32.93-1.75,2-4.38,1.81-6.82,1.81Z"/><path class="cls-29" d="M848.8,713.28c-4.39-7.53-11.18-14.22-8.41-24.23L851,683c3.87,13.35,9.39,25.71,20.87,34.47-.73,2.73-1.47,5.46-2.2,8.2C861,726.9,853.52,722.46,848.8,713.28Z"/><path class="cls-30" d="M835.31,637.24c3.45-14.8,18.71-7.93,26.65-14.54,4.44,3.27-2.58,7.73,1.15,11a28.39,28.39,0,0,1-14.37,12.06c-.78,2.71-1.73,5.3-4.76,6.32C842,646.65,840.73,640.73,835.31,637.24Z"/><path class="cls-31" d="M1634.36,617.24c-2.74,5.66-3.42,12.35-8.52,16.82-6.77-5.91-13.61-11.74-20.25-17.79-1.57-1.42-4.68-2.9-2.51-5.81,1.62-2.17,4.4-2.12,6.75-1.38C1618,611.68,1626.19,614.51,1634.36,617.24Z"/><path class="cls-32" d="M1639,544.43c1.25,9.27,13.3,10.88,14.49,21,.39,3.34,6.56,1,10-.68.25,2.77.51,5.53.76,8.29l-17.14,6.39c-.15-2,.49-5.24-.57-6C1635.53,565.79,1639,554.7,1639,544.43Z"/><path class="cls-33" d="M1596.38,667.61v129h-1V667.73Z"/><path class="cls-34" d="M1594.4,596.18c5,0,9.63-1.07,8.95,5.83-.52,5.33-3,8.68-8.33,8.57-5.78-.12-8.51-3.84-8.66-9.55C1586.16,593.45,1592.18,597.47,1594.4,596.18Z"/><path class="cls-35" d="M844,652.12c.62-2.83,1.15-5.73,4.76-6.32,11.16,7,3.86,15.56,2.1,23.66C847.13,664.24,846.21,657.93,844,652.12Z"/><path class="cls-36" d="M1496.48,834.91l-.12-2.36h64.35l0,2.36Z"/><path class="cls-37" d="M1577.84,657.09q0,3.15,0,6.3c-7.34,4.19-11.82-2-19.3-4.13C1565.92,653.39,1571.82,654.57,1577.84,657.09Z"/><path class="cls-38" d="M1001.84,835.46c-6.49,4.44-11.26,5-16.88-.13A34.84,34.84,0,0,1,1001.84,835.46Z"/><path class="cls-39" d="M933.91,835.05h18.48C945.86,840.43,941.18,839.69,933.91,835.05Z"/><path class="cls-40" d="M1442.26,768c-.08,8.31-.12,16.61-.26,24.91-.38,22.12-13.77,35.49-35.7,35.72-1.39,0-2.77,0-4.16,0-18.45.06-18.45.06-19.53,18.39l-125.45.45q-48.09.15-96.19.25c-9.51-1.71-13.52-7.43-14.74-17-2.28-17.93-6.14-35.67-6.54-53.84-1.93-5.59,2.15-8.23,5.55-11.16a109.23,109.23,0,0,0,20.9-24.48c-6.67-2.11-15.05,4.28-19.94-4.59,6.36-5.44,14.12-3.79,21-3,17.38,2.07,34.76,1.5,52.15,1.79,13,.21,15.16,1.78,17.07,14.53,1.29,8.58,2.83,16.17,12.15,20.1,6.51,2.74,1.88,9.47,3.61,13,.91-4.76-1.49-10.66,0-16.53,5.49-2.13,5.23,2.41,5.59,5.27.76,6.18.31,12.43.33,18.65.09,19.24,3.66,24.49,21.8,31.79,3,1.33,6.15,1.16,9.27,1.17q58,0,116.09,0c7.54,0,14.56-1.36,20.19-6.87.8-.86,1.62-1.71,2.45-2.54,6.92-5.75,8.5-13.56,9-22,.48-8.07-2-16.45,2.21-24.18A2.54,2.54,0,0,1,1442.26,768Z"/><path class="cls-41" d="M1253.17,766.24v25.63c-3.07-4.34-2.15-7.63-2-10.55.29-5.48-.5-9.1-7.17-10.16-6.14-1-9.1-6-9.64-12.12-.18-2.08.08-4.21-.19-6.27-1.82-14.31-1.86-14.64-16.54-14.24-20.21.56-40.31-1.17-60.45-2.08-3.66-.16-7.76-1.35-10.91,1.93-4.12,3.06-7.56,2.83-10-2.06,0-1.32,0-2.65,0-4,4.53-3.57,9.67-6.12,14.79-8.72,26.93-2.07,53.89-.86,80.83-.66a11.18,11.18,0,0,1,9.77,5c3.42,7.17.91,15,2.34,22.35a20.8,20.8,0,0,0,8,13.4A5.26,5.26,0,0,1,1253.17,766.24Z"/><path class="cls-42" d="M1091.57,847.28c3.63-29.18,6.63-58.45,12.59-87.3a315.48,315.48,0,0,0,19.54,76.15c1.49,3.82,3.79,7.32,5.72,11Z"/><path class="cls-43" d="M1136.22,736.32c3,2.21,6.52,2.25,10,2.06h24.36c-6.41,12.8-15.12,22.22-25.05,30.51-2.77,2.31-5.47,4.12-5.89,7.93C1137.11,763.44,1137,749.85,1136.22,736.32Z"/><path class="cls-44" d="M1148.36,726c-1.74,6.53-7.24,5.89-12.16,6.36l-2.58-39.43c-3.49-4.21-3.14-8.61-.66-13.12,2.87-2.39,5.94-2.47,9.15-.77A104.06,104.06,0,0,1,1148.36,726Z"/><path class="cls-45" d="M1133.61,680.18q0,6.38,0,12.74l-10.46,1.86c-3.86-1.4-9.44,2.21-11-5.75-1.42-7.08.08-9.54,6.88-9.47C1124,676.12,1128.91,676,1133.61,680.18Z"/><path class="cls-46" d="M766.84,738.82A107.68,107.68,0,0,0,778,759.34c1,2.15,2,4.33,3.18,6.43C786.87,776.22,793,786,793.28,799c.24,11.64,6,22.5,13.33,32,2.29,3,5.2,5.68,4.75,10-1.81,4.4-4.22,6.83-9.87,6.69-19.83-.48-39.68-.1-59.52-.25-7.45-.06-14.45-1.67-19-8.44,6.84-19.89,13-40,24.66-58,6.75-10.45,9.91-22.74,14-34.49C762.58,743.78,761.58,739,766.84,738.82Z"/><path class="cls-47" d="M1672,799.35q1.29,5.11,2.6,10.24,3,15.7,6,31.41a38.35,38.35,0,0,1-15,6.4c-5.56,1.21-6.47-1.82-5.84-6.3,7-11.31,5.3-24.53,8.3-36.71C1668.58,802.56,1665.66,797,1672,799.35Z"/><path class="cls-48" d="M1148.36,726c-3.54-15.07-4.72-30.47-6.65-45.77-2-13,2.29-25,5.22-37.29.72-2.07,1.72-3.93,3.88-4.86,1.81-5.72,5.27-9.41,10.9-12.28,10.06-5.14,19.45-11.58,29.13-17.47,4.44-1.91,7.21,1.4,10.28,3.44,38.44,25.45,82.87,23,119.22-6.72,30.66-25,41.12-71.07,25.28-110.76-1.61-4-5-7.83-2.7-12.75,7.84-14.65,19.4-26.64,28.91-40.11a451,451,0,0,0,34.84-57.28c.72-1.43,2.35-2.4,3.56-3.59.32.62.93,1.23.93,1.84-.09,44,.91,88-.48,132-5.49-4.09-6.24-10.08-6.71-16.28-1.16-15.15-6.17-29.17-13-42.59a18.35,18.35,0,0,0-5.28-6.35c-6.6-4.78-15.65-.94-14.8,6.81,2.95,27,0,54.31,4.74,81.18a45.72,45.72,0,0,1,1.06,11.39c-3,39.27,5.89,76.84,17.87,113.56,6.83,20.94,5.19,41,1.07,61.52-4.47,5.81-11,5.4-17.21,5.42-30,.09-60,0-90,0-16.82,0-16.92.06-17.36,16.63-.23,8.46-1.59,16.08-10.8,19.48-3.07,1-6.08-1.32-9.17-.18-5.48-2.17-8-6.52-8.86-12.07-1.65-7.73.72-15.7-1.37-23.41-2.46-5-7.1-3.52-11.06-3.54C1202.64,726,1175.5,726,1148.36,726Z"/><path class="cls-3" d="M1394.81,736.59q-4.21,36.43-8.4,72.86c-.39,3.41-.58,6.84-.87,10.27-1.32,7-7,4.39-10.88,4.42-29.81.24-59.62.15-89.42.12a23,23,0,0,1-5.49-.48c-12.36-4.32-22.53-10.61-22.81-25.67a55.19,55.19,0,0,0,.34-13.52c-.64-7.7,1.43-13.23,9-16.87,7.37-3.57,7.26-11.17,7.67-18.17.67-11.42,4.66-16.07,16-15.87,34,.63,68.07-2.2,102,1.93A10,10,0,0,1,1394.81,736.59Z"/><path class="cls-49" d="M1394.81,736.59c-4.44,3-9.55,2.35-14.2,1.71-26.15-3.6-52.29-1.64-78.46-.65-5.13.2-10.37-1.54-15.43-1-6.73.67-11,3.14-10,12.19,1.12,9.35.62,20-12,23.12-4.82,1.21-5.11,4.76-5.39,8.82-.43,6.13,1.67,12.48-1.46,18.39-2.75-11.78-2.26-23.59-.31-35.42,8.16-2.15,10.29-8,10.28-15.71,0-24.65-3.29-21.92,22.45-22q43.9-.12,87.82,0a53.34,53.34,0,0,0,17.46-2.39Z"/><path class="cls-50" d="M1442.26,768l-2.67-.19a5.78,5.78,0,0,1-2.44,1.47,5.05,5.05,0,0,1-4-1.34l-8.23-.55c-4.81-8.38-3.17-17.19-1.78-26a166.45,166.45,0,0,1,31.17.09c4.7,8.63,4.61,17.26,0,25.9Z"/><path class="cls-51" d="M1433.16,767.9l4.24-.11c1.9,16.87,4.18,33.8-8.25,48.22l.11-.11c-8.7,7.16-18.59,9.68-29.9,9.55-35.8-.42-71.62-.07-107.42-.3-3.19,0-7.85,2.7-9.65-2.84,30.51-.08,61-.1,91.53-.29,4,0,8.43,1.55,11.72-2.3,7.25.1,14.51.35,21.75.27,14.66-.18,25.47-10.55,26-25.17C1433.56,785.86,1433.21,776.87,1433.16,767.9Z"/><path class="cls-52" d="M1454.33,767.36q0-13,0-25.91c2.06-.21,4.11-.57,6.16-.61,13.32-.25,20.24,11.16,14.19,23.23-1.46,2.93-4,3.65-6.87,3.61C1463.31,767.63,1458.82,767.47,1454.33,767.36Z"/><path class="cls-53" d="M1423.15,741.37c3.7,8.45,1,17.33,1.78,26-1.74.12-3.48.31-5.21.34-14.73.21-20.75-8.53-15.56-22.36,1.38-3.68,4.47-4.21,7.54-4.35C1415.5,740.79,1419.33,741.21,1423.15,741.37Z"/><path class="cls-54" d="M1518.86,539.77c.28,3.07-12,13.83-16.65,14.14-7.82.52-9.25-6.3-11.41-11.34-1.43-3.34,10.21-14.12,14.75-14.4C1509.32,527.94,1518.51,535.94,1518.86,539.77Z"/><path class="cls-55" d="M1512.68,497.83c.15,4.11-10,14.46-13.13,14.21-1.51-.12-2.79-.77-3-2.3-.82-7.09-4.5-12.06-10.71-15.46-1.55-.85-2-2.63-1-4.5,1.61-3,16.72-8.07,18.73-5.68C1507.2,488.45,1509.93,493.58,1512.68,497.83Z"/><path class="cls-17" d="M1410.68,514.41l-.45-133.86c.1-3.47.21-6.95.32-10.42,2.43,2.18,1.85,5.1,1.85,7.83q-.06,68.46-.17,136.93A5.27,5.27,0,0,0,1410.68,514.41Z"/><path class="cls-41" d="M1342.92,481.53c17.52,34.78,18.91,69.56-2,103.26-31.45,50.65-98.12,62.34-145.65,26.24-1.37-1-2.93-1.81-4.4-2.71-21.09-20.48-34.22-44.55-34.33-74.69-.17-45.5,26.73-82.52,70.46-96.76,40.36-13.14,85.21,2.21,111,38C1339.61,477.11,1341.28,479.31,1342.92,481.53Z"/><path class="cls-56" d="M1148.84,642.6q-3.57,18.81-7.13,37.62l-8.1,0-14.6-.62c-6.77-2.24-13.81-1-20.7-1.34-5.79-.25-9.28-.58-7-8,1.88-6.27,2.2-13,3.22-19.53,3.82-3.6,12.67-6.36,2.06-12.37q1.88-12.56,3.74-25.1c5.47-5,12.16-3.11,18.48-3.32,8.86.07,18-1.34,25.85,4.51,12.29,0,6.81,7.69,5.82,13.44-1.79,2.14-5.17,1.12-7,3.4C1144.73,635.32,1150,637.49,1148.84,642.6Z"/><path class="cls-57" d="M1144.61,614.37l-25.22-1.94c-8.19-12.59-12.63-26.2-11.29-41.39.06-1.89.33-3.68,2.23-4.71.53.44,1,1.1,1.62,1.29C1135.09,574.67,1142.4,592.74,1144.61,614.37Z"/><path class="cls-58" d="M1148.84,642.6c-1-1.34-1.67-3-2.91-4-3.18-2.57-7.88-5.27-6.3-9.46,1.92-5.09,7.12-.77,10.8-1.37q.18,5.13.38,10.26Z"/><path class="cls-13" d="M1103,359.94c-5.9-5.53-.63-9.58,2.61-12.58,4.44-4.12,4.37,3.48,7.39,4Z"/><path class="cls-53" d="M1108.1,571q5.64,20.7,11.29,41.39l-19.11.75q-4.1-19.66-8.18-39.31C1097.89,575.49,1103.49,576.08,1108.1,571Z"/><path class="cls-59" d="M1096.54,638.28c3.46,1.35,10.07-.86,9.71,4.59-.36,5.62-6.44,7.19-11.78,7.78C1093.57,646.26,1093.15,642,1096.54,638.28Z"/><path class="cls-60" d="M878.22,763.86c-1.92-.55-5.28-1-5-2.71,1.45-7.69-5.09-11.17-7.9-16.56q13.71-32.51,27.43-65c9.06-.68,18.14-2.33,27.07.87q-15.69,36.42-31.41,72.82C886.4,758,884.27,762.89,878.22,763.86Z"/><path class="cls-3" d="M848.8,713.28c6.34,5.17,12.49,10.63,20.87,12.36a40.61,40.61,0,0,0-6.41,15.4q-7.72-11.76-15.44-23.52C846.73,715.84,846.72,714.29,848.8,713.28Z"/><path class="cls-3" d="M919.87,680.46c-9-1.94-18-1.67-27.07-.87C901.91,677.12,911,675.44,919.87,680.46Z"/><path class="cls-61" d="M1282.29,822.31c3.4,2.61,7.37,1.53,11.09,1.54,31.66.07,63.31-.25,95,.15,14.35.18,28.34,0,40.92-8.1-4.37,8.06-12.43,10.08-20.21,10.16-41.66.4-83.33.21-125,.1-1.94,0-3.88-1.12-5.82-1.72-.72-.48-1-.94-.7-1.4s.51-.67.76-.67Z"/><path class="cls-62" d="M1278.3,822.37q0,1-.06,2.07c-15.19-4.35-22.85-14.29-23.61-29.73-.47-9.49,1.85-19.14-1.46-28.47l-2.09-1.19c1.83-2.18,4.27-1.34,6.53-1.33q.17,17.71.31,35.42C1259.78,811.2,1267.7,818,1278.3,822.37Z"/><path class="cls-61" d="M1429.15,816c10.68-14.72,7.51-31.81,8.26-48.22l2.18,0c0,8.67.42,17.36,0,26S1437.78,811,1429.15,816Z"/><path class="cls-40" d="M1240.85,729.57c3.43,7.63,1.26,15.59,1.37,23.41C1238.83,745.35,1241.22,737.38,1240.85,729.57Z"/><path class="cls-10" d="M1200.48,603c-29.73-24-41-55.17-32.14-91.88s33.24-59.9,70.42-67.48c40-8.14,79.72,11.32,96.54,45.53-2.64,7.62-9.68,11.54-14.6,17.24-2.08,2.41-4.42,3.73-.07,7,5.25,4,6.42,27.83,2.53,33.34-1.71,2.41-3.38,1.69-4.71-.59-1.76-4.35-1.32-8.92-1.44-13.43-.33-12-1-12.71-13.43-12.9-6.62-.1-13.26.2-19.88-.15-11.14-.59-14.19-3.57-14.74-14.57-.41-8-.33-16-.12-24,.24-9.42-5.85-9.43-12.56-9.44-6.88,0-12.69.58-12.48,9.72.16,7.31.17,14.64-.08,21.95-.46,13-3.46,16-16.21,16.45-6.63.21-13.26,0-19.88.09-10.92.22-12,1.32-12,12,0,11.26,1.26,12.63,12.43,12.9,7,.16,14-.22,20.93.19,11,.66,14.37,3.82,14.61,14.78s1.12,22.29-.76,33.35c-1.87,4.33-3.9,4.67-6,.14-1.63-3.48.15-7.62-2.1-11.33C1221.71,586.46,1214.44,600.21,1200.48,603Z"/><path class="cls-63" d="M1320.19,547.94c4.5-9.55,1.8-19.63,1.79-29.42,0-6.51-7.32-2.67-11.47-5.4,8.3-8.59,15.61-17.21,24.79-24,21.47,36.12,12.73,83.55-20.66,112.09-32.73,28-81.33,28.72-114.16,1.74,12.27-8.79,23.38-19.25,36.91-26.48,2.91,6.76-1.55,13.88,3.1,19.65,5.06-4.2,11.19-3.38,17-3.23,7.87.22,11.47-2.95,11.26-11s-.34-16,.16-23.94c.65-10.25,3.07-13.21,13.46-13C1295,545.25,1308,541.7,1320.19,547.94Z"/><path class="cls-13" d="M1320.19,547.94c-11.77.11-23.62,1.11-35.28,0-11.13-1-13.67,3.23-12.75,13.32.85,9.26-.08,18.68.25,28,.2,5.32-1.41,7.47-7,7.15-8.29-.47-16.61-.27-24.92-.35-.12-13.25-.52-26.5-.23-39.73.14-6.49-2.24-8.51-8.54-8.27-10.8.41-21.63-.06-32.44.21-5.15.13-7.25-1.2-7.52-6.92-1.21-25.29-1.41-25.28,23.7-25.28,24.63,0,24.63,0,24.67-24.38,0-25.07,0-24.9,25.09-23.86,5.38.22,7.38,1.69,7.19,7.21-.35,10.8.25,21.63-.22,32.42-.31,7.05,2.47,9,9.15,8.74,10.8-.42,21.64.14,32.45-.07,5-.1,6.83,1.69,6.64,6.66C1320.12,531.2,1320.25,539.58,1320.19,547.94Z"/><path class="cls-64" d="M1425.5,553.5s18.82,17.44,21.18,56.2S1425.5,553.5,1425.5,553.5Z"/><polygon class="cls-54" points="1509.79 532 1516.89 542.27 1504.1 550.83 1497 538.85 1509.79 532"/></svg>