<svg id="Layer_1" data-name="Layer 1" xmlns="http://www.w3.org/2000/svg" viewBox="0 0 1920 1080"><defs><style>.cls-1{fill:#fff;}.cls-2{fill:#fefefe;}.cls-3{fill:#e9f2f9;}.cls-4{fill:#233863;}.cls-5{fill:#3c4462;}.cls-6{fill:#444862;}.cls-7{fill:#25395f;}.cls-8{fill:#4a506a;}.cls-9{fill:#feb17d;}.cls-10{fill:#e65c51;}.cls-11{fill:#cbdff9;}.cls-12{fill:#aec2fd;}.cls-13{fill:#fdfdfd;}.cls-14{fill:#2b468a;}.cls-15{fill:#2b468b;}.cls-16{fill:#fcfaf9;}.cls-17{fill:#fafafb;}.cls-18{fill:#d04943;}.cls-19{fill:#b5453d;}.cls-20{fill:#d04b46;}.cls-21{fill:#2c478b;}.cls-22{fill:#fbb17f;}.cls-23{fill:#173661;}.cls-24{fill:#fbb07d;}.cls-25{fill:#253963;}.cls-26{fill:#243964;}.cls-27{fill:#9db0f3;}.cls-28{fill:#eb9860;}.cls-29{fill:#f8ad7d;}.cls-30{fill:#9eb0f2;}.cls-31{fill:#f9af7d;}.cls-32{fill:#eeccd1;}.cls-33{fill:#d14c46;}.cls-34{fill:#b54b46;}.cls-35{fill:#efd4cb;}.cls-36{fill:#f9bc92;}.cls-37{fill:#d15654;}.cls-38{fill:#d05250;}.cls-39{fill:#e9f1f9;}.cls-40{fill:#fbfbfb;}.cls-41{fill:#e8f1f8;}.cls-42{fill:#caddf8;}.cls-43{fill:#adbff8;}.cls-44{fill:#fbfcfb;}.cls-45{fill:#e8f2f9;}.cls-46{fill:#e5eff6;}.cls-47{fill:#cf4741;}.cls-48{fill:#f4f8fb;}.cls-49{fill:#d3e3f7;}.cls-50{fill:#f9e2da;}.cls-51{fill:#fdfdfc;}.cls-52{fill:#fcfcfc;}.cls-53{fill:#fdc198;}.cls-54{fill:#fdc29a;}.cls-55{fill:#fcc299;}.cls-56{fill:#233862;}.cls-57{fill:#aec1fa;}.cls-58{fill:#eeab7b;}.cls-59{fill:#f2ac7d;}.cls-60{fill:#d04842;}.cls-61{fill:#d96c67;}.cls-62{fill:#d76a64;}.cls-63{fill:#d04741;}.cls-64{fill:#c69c6d;}</style></defs><title>mobile2</title><rect class="cls-1" width="1920" height="1080"/><path class="cls-2" d="M568.19,953.52q-280.23,0-560.46.21c-6.9,0-7.72-1.86-7.71-8Q.28,575.32,0,204.93c0-6.4,1.15-7.93,7.81-7.93q560,.31,1120,0c7.09,0,8.18,1.92,8.17,8.46q-.27,369.94,0,739.88c0,6.66-1.35,8.37-8.26,8.36Q848,953.37,568.19,953.52Z"/><path class="cls-3" d="M87.09,837.52C78.63,823.81,70.76,809.88,64.32,795a162.69,162.69,0,0,1-13.1-56.43c-1.77-33.6,3.51-66.4,17.37-97.44,8.59-19.25,23.46-33.15,39.81-45.58C134,576.09,161.51,559.6,189,543c19.69-11.87,34.62-28.25,45.63-48.58,12.71-23.48,19.68-49,28.16-74,8.6-25.36,18-50.3,34.34-71.88,17.82-23.6,40.77-40.14,68.73-50.42,39.31-14.45,79.94-18.12,121.34-17.74,25.28.23,50.62,1,75.8-1.86q31.65-3.63,63.22-8c30.79-4.32,61.34-10.15,92.56-12.39a230.51,230.51,0,0,1,106.38,17c29.28,12.11,57.32,26.88,78.32,51.5,14.33,16.78,21.78,37.26,25.73,58.67,7.08,38.35,19.83,73.85,45.38,104.25,24.26,28.87,53.78,51.18,84.65,72.25,21.25,14.51,30.54,37.23,37.68,60.8,5.95,19.65,7.9,40.17,7.68,60.39-.26,23.86-3.27,47.76-10.54,70.83-8.44,26.75-20.76,51.1-41.63,70.6-4.73,4.42-11.63,6.48-14.37,13a5,5,0,0,1-3.94,1.86c-20.76-.07-41.52,1-62.27-.55-2.35-1.35-2.55-3.61-2.56-6,2.42-18.67-.63-37.09-2.58-55.56-.75-7.68-4.05-15-3.55-22.83.13-1.5.07-3.3,1-4.33,8.53-9,6.74-20.3,5.73-30.79-2.45-25.38-4.8-50.78-10-75.85-3.16-15.23-7.29-29.71-17.14-42.05a13.61,13.61,0,0,1-.92-7.16c.77-4.5,3.44-8.24,5.07-12.4,4-10.14.9-14.72-10-15s-12.7,1-12.71,9.43c.46,8.22-.45,16.72,6,23.47,1.43,1.49,1.22,3.9.91,6-5.39,10.57-6.42,22.6-11.1,33.4-5.05,2.53-9.11-1.42-13.68-2.13-3.7-.57-7.13-2.76-11.7-2.28,4.19,8.63,14.47,10.72,17.56,19.3,0,4-2.9,6-5.87,7.12-12,4.37-23.35,10.38-35.72,13.73-3.81.45-7.49-2-11.78-.47,3.65,3.88,8.19,2.65,12.36,2.9a248.85,248.85,0,0,0,36.18-5c4-.84,8.36-2.29,10.89,2.86,1.47,4.73,1,9.58.95,14.41.91,18.6-1.27,37.28,1.58,55.85A51,51,0,0,0,924,757.66c5.94,24.29,8.15,48.85,5.15,73.78-3.61,6-9.26,8-15.87,8.07q-51,.06-102,0c-3.29,0-6.63.35-9.87-.69-4.28-3.42-5.63-7.42-2.43-12.3,17.85-1.22,35.71-.15,53.58-.59H800.92c-6.07-1.84-5.38-7.29-6.08-11.81-3.64-23.66-1.28-47.5-2-71.25A75,75,0,0,1,797,717.16c2.37-7.23,5.4-14.16,10.3-20,18.07-21.4,23-47.28,25.28-74,.76-8.67.35-17.46.06-26.19-.32-9.5-3.53-11.8-12.53-9.38-2.29.61-4.88,2.35-6.61-.12-2-2.88.48-5,2.41-6.89,4.13-4,9.08-7,13.1-11.1,7.49-7.62,6.15-16.14-3.87-19.89-7-2.63-7.59-5.39-3.24-10.85,4.78-6,4.59-12.24-.39-18.1s-10.92-7.11-17.88-4c-.83.37-1.63.79-2.47,1.13-3,1.21-6.1,3.88-9.23,1.36-3.41-2.74-1.92-6.65-.88-10.08,4.36-14.41,8.27-29,12.55-43.39,2.85-9.57.63-15.26-6.56-18-6.29-2.4-12,.61-15.77,9.74-8.47,20.29-16.76,40.65-24,61.44q-7.09,20.49-14.48,40.88c-1.06,2.92-1.08,9-7.45,5.55-3.17-3.9-2.34-8.56-2.35-13q-.1-57.11,0-114.21c0-4.19.27-8.39-.48-12.54-1.23-3.79-1.15-7.9-2.89-11.57-7.49-13-19.6-14.56-32.86-13.34-21.4.32-42.77.25-64.15.1-11.35-.09-13.1-1.54-13.86-12.86-.45-6.58-3.19-8.93-9.54-8.83q-18.51.31-37,0c-6.29-.1-9.15,2.15-9.62,8.78-.79,11.37-2.51,12.83-13.83,12.89-23.18.12-46.37.33-69.53-.11-18-.43-24.76,3.52-29,16.94a96.88,96.88,0,0,0-1.65,18.85q.06,48.26,0,96.52c0,3.49-.41,7.09,1.4,11.4,2.57-4.42,1.94-8.31,1.95-12,.06-31,0-61.94.07-92.91,0-4.75-.73-9.69,2.25-14a2.13,2.13,0,0,1,3.05.15c1.89,2.59,2.11,5.62,2.12,8.64.12,36.48.19,73,0,109.45a20.39,20.39,0,0,1-.71,5.34c-1.17,4.33-4.84,4.53-8.4,5.17-14.67,2.66-18.44,12.27-9.56,24.19,1.94,2.61,4.64,4.63,6.08,7.65a6.85,6.85,0,0,1-.2,5.45c-3,3.62-7.28,5.23-11.42,6.66-9.94,3.43-15.46,10.54-18.62,20.13-1.67,5.05-2.72,10.42-6.33,14.66-9.86,9.06-23.22,12.65-33.38,21.29-1.59,1.35-3.54,2.29-5.12,3.68s-3.91,2.42-3,5c.7,1.9,2.87,1.9,4.61,2.25,10.34,2.06,20.5,4.81,30.61,7.74a50.41,50.41,0,0,1,8.42,3.22c3.53,1.75,7.65,3.65,6.6,8.43-.91,4.13-5.08,5-8.71,5.09-10.81.42-21.69,1.09-32.44-.43-8.95-1.27-18-1.11-26.91-2.69-6.31-1.12-11.42,1.36-16.29,5.75C322.61,703.13,314.54,716,312,732.13c-2.37,3-3.08,6.39-3.1,10.07-.12,23.59.21,47.18-.1,70.76,0,2.6-.55,5.56,2.75,6.88a33.3,33.3,0,0,0,5.34.66c10.88.56,11.87-.42,12.15-11,.17-6.82-.89-13.73,1.23-20.44,3.93-6.14.73-13.83,4.35-20,6.1-2.71,11,.24,15.78,3.43,4.5,11,.52,22.49,1.8,33.68.49,4.33-1.42,9,2,12.87,6.42,3,12.94,2.16,19.47.52,5.46-8.27,2.27-17.38,2.1-26a346,346,0,0,1,1.41-38.38c6.16-9.06,14.22-16.24,22.94-22.71,2.67-2,5.75-4.07,9-1.57,3,2.31,2.8,6,2,9.19-3.3,13.42-10.28,25-19.07,35.44-4.85,5.77-4.66,7.24,3.13,8.41,8.31,1.25,16.63,2.73,25.11,2.69,3.84,0,8-.43,10.72,3.35,4.45,14.38,3.69,29.24,4.14,44a5.94,5.94,0,0,1-2.37,4.64c-2.84,1.41-5.91,1-8.89,1q-95.8,0-191.6.06c-7.91,0-15.11-1-19.28-8.85-4.18-15.68-8.4-31.32-9.18-47.75-.83-17.61-6.83-34.19-11.71-51a18.52,18.52,0,0,1-.29-4.52c.48-4.48-.41-8.93-.24-13.4.31-8.25,5.47-13.86,13.52-15.36,8.91-1.66,9.6,6.21,13.11,10.86,5,15.32,14.88,27.17,26.88,37.5,2.29,2,4.55,4,5.14,7.15,1.08,6.39,3.59,11.73,10.89,12.53,7.08.77,11.29-3.45,13.87-9.4,10.43-24,20.47-48.22,30.36-72.47,1.56-3.82.39-6.38-3.08-8.21-.53-.29-1.08-.53-1.62-.81-14.13-7.22-14.51-7-20.94,7.56-4.26,9.66-7.47,19.74-12,29.27-2.29,4.81-3.47,10.41-8.64,13.4-8.44-4.11-13.58-11-16.55-19.68A76.37,76.37,0,0,1,240,697c-.2-4.31-1.25-8.58-.73-12.93,1.39-6.68,4-13.39-.59-19.9,2.17-5.8,9.44-6.93,11.61-12.72,4.47-9-1.47-24.34-10.8-27.76-5.57-2-13.79,1.91-13.37,8.18.84,12.54-6.15,20.53-13.11,29-10.23,7.12-22.78,8.75-33.73,14.29-17.6,8.91-32.57,20.27-40.27,39.17-3.7,9.09-6.08,18.23.82,27.07-.84,16.24,1,32.73-8,47.84-5.27,8.86-6.26,19.23-5.89,29.57a40.33,40.33,0,0,1-.74,10.73c-1.93,7.48-6.49,11.1-14.44,10S94.68,841.67,87.09,837.52Z"/><path class="cls-4" d="M514.48,841.07H483.76a10.55,10.55,0,0,1-4.48-3.5c-10.36-19.5-16-40.53-19.46-62.15-.75-4.68-1.85-9.37-2.06-14.16-.2-5.78.34-11.4,3.35-16.53,6.26-8.21,3.4-17.78,3.57-26.75.16-8.05,2.52-13.23,11.17-14,3.57-.5,7.21-2.46,10.64.43,3.22,10.8,3.91,21.87,3.47,33.05,0,1.56.18,3.13,0,4.69,1.31,11.13,1.58,22.35,2.7,33.49,1.59,15.74,3.26,31.46,6.32,47,1.19,6,3.76,10.61,9.66,12.93C510.79,837.21,514.39,837.29,514.48,841.07Z"/><path class="cls-5" d="M481.86,837.55c.63,1.17,1.26,2.34,1.9,3.51-32.55.1-65.09.27-97.63.28q-157.78.06-315.56-.05c-3.09,0-6.45,1.11-10.76-2,9.8-2.81,18.73-.38,27.28-1.75,7.13.12,14.32-.31,21.37.5,7.89.91,13-1.43,15.07-9.3,3.15-1.35,5.93-.12,8.71,1.22a28.92,28.92,0,0,0,17,5.18q22.11,0,44.23,0c4.33,0,8.43-.51,11.46-4.09,2.7-2.76,5.53-5,9.61-2.53,3.39,7.2,9.67,9.35,17,9.35q100.85,0,201.71-.14c5.41-7.07,12.36-4,19-2.91C462.06,836.16,472.35,832.72,481.86,837.55Z"/><path class="cls-6" d="M514.48,841.07l-5.35-3c2.61-3.25,6.39-3.19,10-3.2,60.61,0,121.23-.41,181.84.16,29.83-.52,59.66-.15,89.49-.18,3.63,0,7.27.17,10.28,2.67l114.24.51c1.29.61,2.23,1.41,1.75,3q-97.62.16-195.23.33-99.88.07-199.78,0C519.28,841.36,516.88,841.17,514.48,841.07Z"/><path class="cls-7" d="M916.69,841.05l-1.75-3,12.69-5.75c3.71-5.75,8.12-2.88,12.44-1,3,3.84,6.72,4.38,11.08,2.39,2.7-1.24,5.28-2.77,8.25-3.4,4.05.54,9.32-4.52,11.94,2.57l-.17,4.59c.63,2.75,5.65-.68,5.16,3.65Z"/><path class="cls-8" d="M976.33,841.05c-1.16-2-4.61-.79-5.16-3.65l66.88.09c9.47,1.36,19.26-1.2,28.56,3.56Z"/><path class="cls-9" d="M800.7,837.51l-100-.06c-5.16-13.51-1.94-18.35,12.33-18.49,7.19-.07,14.6.9,21.22-2.72,9.29-5.08,15-12.45,15.18-23.69.15-8-1.87-16.22,1.89-23.94,3.15-2.39,6.82-2.24,10.46-2.19,2.08,0,4.18-.11,6.26,0,6.23.36,10.52-1.16,10.29-8.73s-1.8-9.4-10.46-9.69c-2.09-.07-4.18,0-6.29,0-8.24.27-16.47.24-24.69,0a59.78,59.78,0,0,1-6.28,0c-6.53-.2-8.95,3-9,9.39,0,6.52,2.67,9.43,9.14,9.06,2.39-.13,4.79-.06,7.2,0,2.68.06,5.25.44,7.31,2.37,2.68,12.19,4.31,24.63-2.22,35.9-7,12-23.76,15.64-40.45,10-2.68-3.48-1.71-7.37-1.3-11.22,2.54-24.11,6.88-48,8.26-72.24,8-27-.89-52.25-8-77.7a244.85,244.85,0,0,1-8.87-64.05c-.28-27.58-3.46-55.1-4.56-82.7-.25-6.32-1.78-13,6.2-16,6.26-2.33,12.63.72,16.72,8.79,5.61,11.06,9.53,22.78,10.65,35.2.42,4.58,1.15,8.9,3.33,12.91.66.61,1.28,1.28,1.9,1.94,2.29,3.55.68,7.59,1.45,11.34.45,3.73.87,7.46,2.81,10.88,3.8-.24,3.26-4.75,6.1-5.62,7-14.36,11.11-29.76,16.37-44.74,8-22.73,16.92-45.06,26.32-67.21,5.25-12.38,17-14,25-4.4,3.53,4.2,3.43,8.65,2,13.56q-6.87,22.88-13.45,45.84c-.87,3.05-3.06,6.05-.5,10.22,11.15-7.17,22.64-12.88,32.5,1.9,4.85,7.26,3.53,13.43-5.64,24.26,2.74.54,5.33.69,7.64,1.58,9.86,3.8,12.1,14.91,4.67,22.89-5.59,6-13.45,9.57-19.11,17,20.18-6.31,22-4.73,22.38,16.66.43,23.37-2.34,46.15-10.63,68.17-3.22,8.56-7.26,16.56-13.15,23.5-11.25,13.23-16.11,28.71-16.34,45.74-.31,23.78-1.54,47.59,1.73,71.27.57,4.16,1.32,8.29,2,12.44.56.42.76.87.6,1.33s-.32.7-.5.7Q799.93,832.25,800.7,837.51Z"/><path class="cls-10" d="M455.79,551.55q.15-63.18.29-126.36c-2.11-3.6-.44-6.69,1.3-9.79a24.82,24.82,0,0,1,8.16-7.36c4.49-2.94,9.51-3.5,14.73-3.5q110,0,219.92,0c10,0,18.33,3.28,23.29,12.65a27.86,27.86,0,0,1,3,7.43,18.17,18.17,0,0,1-.25,8.79c-14.25,29.34-32.94,55.81-53,81.36-2,2.55-3.76,5.5-7,6.85-4.49-.63-6.25-4.49-8.49-7.55-20.22-27.55-58.35-39.3-90.64-29-36.81,11.8-58.89,42.63-59.25,79.8-.22,22,7.87,40.45,21.52,57,2.27,2.74,5.44,4.89,5.84,8.86-3.43,6.55-10.47,8.58-16.07,12.2-6.69,4.32-12.53,9.84-19.69,13.43-1.65-2.35-1.62-5-1.53-7.71,1-4.63,2.24-9.33-3.86-11.64a21.94,21.94,0,0,1-3.07-9.36c-1.82-13.33-8.39-22.88-21.13-27.92a17.8,17.8,0,0,1-5.25-3.46c-2.4-2.46-4.81-5.32-2.78-8.73,3.88-6.52,3-13.27,2-20.13C466.85,559.3,458.08,557.05,455.79,551.55Z"/><path class="cls-11" d="M311.77,730.91c-1.41-21.64,14.16-33.21,27.58-45.93,2.47-2.35,6.45-1.29,9.65-1,18.78,1.83,37.51,4.33,56.45,3.52,4.33-.19,10.81,1.53,11.83-3.54,1.13-5.6-5.94-5.8-9.76-7.22a206.2,206.2,0,0,0-34.64-9.07c-3.5-.64-8.41-.44-9.31-3.73-1-3.51,3.63-5.79,6.32-8,12.21-9.76,26.7-15.9,39.6-24.58,2.74,4,.7,8.13.12,12.15-1.7,11.62-3.4,23,11.21,28.37,4.24,1.57,3.74,6.4,4,10.27.75,12.9-.71,25.69-1.77,38.51-.71,8.57.19,16.67,6.43,23.32,1.18,11.28,3.06,22.51,2.75,33.9-.11,3.83.37,7.87-2.81,10.94a148.64,148.64,0,0,1-38.32-3.55c-2.88-.67-6.7-1.22-7.37-4.33-.64-3,3.38-3.63,5.11-5.5,9.9-10.74,17.06-23.1,20.55-37.36.51-2.08,1.14-5.09-1.57-6.48s-4.19,1.36-6.16,2.54c-8.9,5.33-14.43,14.42-22.87,20.24-3.61-3.68-2.67-8.41-2.71-12.78,0-5.72-2.58-8.23-8.21-8-2.4.1-4.8.09-7.2,0-5.66-.2-8.2,2.45-8.17,8.09,0,6.89.12,13.78-.08,20.67-.09,3.54.31,7.28-2.7,10.07-5.18.32-9.45-2.91-14.37-3.63-5-6.7-2.45-14.42-2.71-21.67-.45-12.62-.16-12.63-12.59-13.6C317.05,733.39,314,733.43,311.77,730.91Z"/><path class="cls-12" d="M869.52,673.29c11.64-4.42,23.33-8.69,34.87-13.37,2.83-1.15,6.21-2.56,6.62-6.54,1.24-5.46,2.27-11,7.37-14.53q2.7-10.27,5.41-20.54c1.16-4.37,2.6-8.62,5.56-12.17,4.13-4,8.57-7.2,14.82-5.53,10.19,9.8,14.06,22.43,16.87,35.82a550.58,550.58,0,0,1,11.76,95.79c.2,6.44,1.47,13.35-6.14,17.3-1,.54-.93,3.29-1.35,5-6.93-.48-12.88,3.24-19.41,4.57-7.86,1.65-15.72,3.2-23.43-.6-6.93-6.94-4.86-16.22-5.45-24.38-1.07-14.85-.34-29.84-.35-44.77,11.93-10.17,22.54-21.31,27.5-37.54-8.57,9.12-17.19,17-27.35,23-8.33-2.22-15.83,2.89-23.89,2.74-7.85-.14-15.45,4.44-23.43,1.13A4,4,0,0,1,869.52,673.29Z"/><path class="cls-12" d="M427.69,743.67c-5.89-3.11-7.59-7.76-7.53-14.53.16-16.2,3.24-32.24,2.09-48.48-.3-4.16-.15-7-5.84-7.93-7-1.11-10-7-10.52-13.86-.77-9.41,1.5-18.41,3.6-27.44a39.06,39.06,0,0,0,2.08-5.9c3.59-19,15.77-29.35,33.84-33.85,3.86,2,4.21,6.12,5.79,9.51,3.6,11.06,5.53,22.5,7.63,33.9a96,96,0,0,1-3.54,21.81A34.44,34.44,0,0,0,453.64,668c.63,6.27-4.27,13.17-.89,18.35s11.25,1.09,16.86,2.9a5.83,5.83,0,0,1,3.59,2.43c-5.63,8-5.61,8.09,3.24,14.21-8.55.5-10,5.55-9.27,13,.67,6.52-.05,13.17.15,19.76.12,3.94-1.3,6.29-5.26,6.93C450.31,750,438.85,749.49,427.69,743.67Z"/><path class="cls-12" d="M217.61,711.34c-1.21-1.27-2.77-2.36-3.57-3.85-2-3.76-2.42-9-9.2-6.45-6,2.24-10.66,4.61-11,12.18-.22,4.92,3.47,9.91-.17,14.73a94.23,94.23,0,0,1-27.45,12.55c-9.44,2-18.88,4.3-28.22-.32-5.53-3.64-6.27-8.38-4.84-14.75,5.82-26.09,22.95-41.85,46.16-52.68,10.66-5,21.84-8.35,32.82-12.38,4.25-3.26,9.35-4.14,14.42-5.12,7.83,1.08,8.38,7.89,10.61,13.39A44.11,44.11,0,0,1,241,684c-1.16,3.91,3.23,7.74.14,11.67-.64,4.29-4.8,4.83-7.41,7C228.71,706.2,226.4,714.83,217.61,711.34Z"/><path class="cls-13" d="M476.54,398.09c24.69,0,49.39-.22,74.07.09,6.73.08,9.73-1.29,9.44-8.89-.53-13.92-2.06-12.94,13-13,13.25,0,26.51.31,39.74-.14,6.61-.22,9,1.65,8.84,8.57-.39,14.45-2.2,13.24,13.59,13.28q32.05.08,64.13.06c3.31,6.14.65,8.15-5.45,8.08-9-.09-18.07,0-27.1,0h-178c-2.7,0-5.47.39-8.1-.34C476.77,404.72,473.87,402.83,476.54,398.09Z"/><path class="cls-14" d="M427.69,743.67c11.42,1.17,22.81,3.1,34.37,2l-2,16.61c.23,20.95-4.33,41.38-6.72,62-.54,4.64-.52,9.66-4.16,13.43-5.33-4.22-10.64-1.56-16,0-1-16.3-1.44-32.63-3.79-48.82Q428.54,766.29,427.69,743.67Z"/><path class="cls-13" d="M311.77,730.91c23.48.13,23.48.13,23.49,23.51,0,4.82,0,9.65.06,14.47s-.05,9.35-.07,14c0,2.66.23,5.47-3.5,5.93-2.9,2.62-6.52,2.9-10.08,2.66-7.16-.48-9.13,3.06-9.2,9.67s1.92,13.7-2.37,19.89c-4.23,2.11-3.71-1.6-3.71-3.44-.13-27.18-.05-54.36-.14-81.54C306.23,732.06,308.21,730.8,311.77,730.91Z"/><path class="cls-13" d="M349.69,772.52c0-11.36.31-22.72-.06-34.07-.2-6,2-7.56,7.79-7.64,21.12-.29,21.12-.48,21.34,23.64q0,29.77-.05,59.54c0,5.32-.08,5.32-3.77,7.14-5.12-9.37-1.65-19.5-2.52-29.24-.42-4.81-.52-9.09-7-9.3-5.77-.19-9.33,1.41-9.26,7.94s.13,13.27-.08,19.9c-.11,3.84.52,8-2.85,11-4.93-1-3.35-5-3.38-7.94C349.65,799.83,349.71,786.17,349.69,772.52Z"/><path class="cls-14" d="M138,740.18c10.17-.37,20.45.44,30.4-2.58,1.91,2.34,1.26,4.8.33,7.28-8,27.46-24.93,51.09-33.62,78.26-.9,2.81-1.68,5.82-4.65,7.39a11.43,11.43,0,0,1-6.92-1.81c-1.19-17.73,1-34.43,10.4-50.34,5-8.46,1.36-19.5,3.52-29.19C138.1,746.29,137.83,743.19,138,740.18Z"/><path class="cls-14" d="M922.47,758.51c8.36-.53,16.8,0,25.06-1.86,3.86,2.79,4.32,7,4.3,11.17,0,8.92.4,17.82.47,26.73-4.32,8.88-3.25,18.85-5.69,28.11-1,3.82-.57,8.76-6.21,9.7-4.26.41-8.49-3.54-12.77-.09,1.23-22.75.1-45.31-5.08-67.58C922.09,762.73,922.47,760.58,922.47,758.51Z"/><path class="cls-15" d="M214.51,828.5c-3.34-.37-5.72,1.21-7.62,3.75-11.23-11.94-18.18-25.84-18.84-42.4-.23-5.72-3-10.22-5.66-14.88-2.35-4.11-5.64-7.83-5.5-13,4.83-9.19,12-17.24,13.4-28.12.2-1.62,1.21-3.51,3.67-2.9,6.65,17.8,11.78,35.89,12.41,55.09C206.86,800.57,212.07,814.29,214.51,828.5Z"/><path class="cls-13" d="M454.84,425.16l-.09,112c0,2.41,0,4.82-.06,7.23-.13,3.11-1.59,5.2-4.9,5.33-4,.17-4-2.75-4-5.56q0-20.33,0-40.66c0-22.28.23-44.57-.12-66.85-.11-7.59,1.37-14.9,2-22.35C456,413.13,456.85,414.47,454.84,425.16Z"/><path class="cls-16" d="M259.2,725.46c8.19-15.42,13.87-31.9,20.48-48,4.37-10.65,5.23-11,15.62-6.27,1.09.51,2.16,1.07,3.28,1.51,12.3,4.81,12.29,4.8,7.58,16.2q-13.31,32.26-26.61,64.54c-.92,2.22-2.06,4.36-3.19,6.48-3.53,6.66-8.51,10.91-16.6,9-7.89-1.82-11.34-7.15-11.19-15,3.79,0,4.53,3.4,6.28,5.69,2.48,3.24,5.19,6,9.79,3.77,4-2.08,6.06-5.76,7.75-9.62,7.81-17.84,15.17-35.88,22.82-53.78.71-1.65,1.4-3.34.94-5.18-5.73-2.13-11.34-2.48-16.81.61-7.72,14.21-13,29.46-19.68,44.13-1.58,3.5-2.45,7.42-5.83,9.87-2.44.14-3.07-1.56-3.54-3.44-.34-5.27,2.39-9.55,4.56-14A13.47,13.47,0,0,1,259.2,725.46Z"/><path class="cls-17" d="M454.84,425.16c-.21-5.07,1.29-11.29-7.23-10.83q9-17.91,28.93-16.24c-.05,7.18,5.21,7.1,10.09,7.14,13.28.11,26.56,0,39.84,0q81.93,0,163.88.05c5.2,0,10.07.26,9-7.23,13.56-1.28,25,2.31,32.57,14.43-3.07,2.3-6.16,4.58-9,7.17-6.52-9.92-15.89-12.84-27.46-12.79q-103.48.41-207,.07c-8.46,0-16.74.18-24.49,4-6.31-2.23-3.82,3.55-5.25,5.76-.87,2.82-1.75,5.63-2.62,8.44Z"/><path class="cls-18" d="M353.19,821.42c0-11.69.33-23.38,0-35.06-.16-5.38,1.23-7.32,7-7.15,17.83.53,14.21-1.47,14.55,14.06.21,9.28.17,18.57.24,27.86A32.85,32.85,0,0,1,353.19,821.42Z"/><path class="cls-13" d="M722.89,419.69c.48-5.54,3.49-7.92,9-7.17,2.22,3.34,1.87,7.12,1.87,10.84,1.3,43.19-.3,86.37-.09,129.55,0,4.51.07,9.6-7.1,8-2.52-3.45.27-7-.21-10.51-2.63-4-2.41-8.56-2.41-13,0-30.57.17-61.15-.14-91.72-.08-6.86,3.64-13.44,1.09-20.36C723.73,423.57,722.46,421.94,722.89,419.69Z"/><path class="cls-19" d="M227.59,656.13a30.26,30.26,0,0,1-15.46,4.24c-.32-2.86.05-6,2.71-7.17,8.39-3.72,8.24-10.72,7.9-18.12-.31-6.77,2.74-11.76,9.28-13.9,6.35-2.09,10.5-.45,14.81,5.83,9.37,13.61,10.92,17.61,4.8,26.1a1.91,1.91,0,0,1-2.15-1.09c-.81-1.72-.12-3.48,0-4.76C241.56,648.47,233.72,650.29,227.59,656.13Z"/><path class="cls-20" d="M310.1,821.06c.08-8.64.45-17.29.14-25.91-.21-5.58,1.87-7.54,7.27-7,4.72.47,9.49.48,14.24.69,0,8.64-.37,17.31.06,25.93.3,6-1.29,9.05-7.82,8.14C319.36,822.26,314.4,824.2,310.1,821.06Z"/><path class="cls-21" d="M971.34,832.81c-4.17-3.75-8.69,1-13-.54-5.14-7.94-5.43-17.14-6.85-26.06,3.07-9.74,9.14-18,13.22-27.31.7-1.58,2-3,4.19-2.67C971.64,795,974.78,813.77,971.34,832.81Z"/><path class="cls-22" d="M251.76,745.86a3,3,0,0,0,1.82,3.07c8.2,2.56,7.67,10.93,11.11,16.66-6,2.9-9.55-.63-12-5.19-1.24-2.28-1.58-5-4.09-6.46-5.39-5.54-10.65-11.21-16.2-16.57-7.52-7.26-12.7-15.73-14.76-26,7-.42,10.43-5.78,14.38-10.41,1.48,7.31,5.37,13.66,8.25,20.42C241.47,730.74,250.11,736.67,251.76,745.86Z"/><path class="cls-4" d="M969,776.23l-15.76,28.89c-3.45-2.27-4.64-5.11-2.25-8.86-2.53-8.4-1.63-17-1.61-25.6a43.29,43.29,0,0,0-1.8-14c4.2-1.5,8.6-2.62,12.53-4.63,3.49-1.79,4,.65,5.25,2.53Q967.14,765.38,969,776.23Z"/><path class="cls-23" d="M922.38,575.9c-3.83-6.06-1.37-9.39,4.82-11.11a5.34,5.34,0,0,1,.88-.2c7.84-.87,17-2.63,22,4.16,4.63,6.28-.46,13.71-3.73,20.11-.81,1.6-1.88,3.06-2.83,4.59-2.87,5.14-7.25,4.62-10.16,1.1C928.75,589,922.56,584.13,922.38,575.9Z"/><path class="cls-24" d="M449.59,601.36q-2.08-4.85-4.18-9.68c.06-2,.11-3.94.17-5.91-2-4.21-6-8.93-.77-12.82,6-4.45,11.13-13.14,20.81-6.73,1.11,7.72,4.09,15.52-2.48,22.58-2.2,2.36,1.51,4,2.21,6a7,7,0,0,1-1.11,5.31C459.71,604.8,454.94,606.65,449.59,601.36Z"/><path class="cls-25" d="M465.62,566.22c-6.21.42-13.72-1.71-15.23,7.83-11.95-.33-2.58,8.07-4.81,11.72-8.15-5-13.6-15.71-11.72-23.13,2-7.87,8.38-11.1,21.93-11.09,3.42,2.14,7,4,9.7,7.2C467.68,561.35,468.31,563.68,465.62,566.22Z"/><path class="cls-17" d="M726.56,560.88c5.58-.53,5.37-4.62,5.37-8.64,0-12.89-.73-25.84.16-38.67,1.37-19.7,0-39.42,1.22-59.14.49-8.25-.21-16.95-1.08-25.39-.22-2.16-.55-4.2,1.52-5.68,2.93,2.69,1.72,6.23,1.73,9.4q.12,61,.07,122.07c0,3.9-.46,7.88,1.78,11.43-1.05,3.91-.93,10.1-5.38,10.17-5.23.08-3.22-6.74-5.09-10.23C726.1,564.78,726.62,562.67,726.56,560.88Z"/><path class="cls-26" d="M194,731c-3.83,7.83-3.7,17.25-10.09,24.16-2,2.13-3.21,5-5.86,6.58-6.38-4.2-10.6-9.57-9.61-17.75a8.93,8.93,0,0,1,0-6.34c9.13-1.38,15.86-9,25.27-9.65Z"/><path class="cls-27" d="M916.82,674.87c8.13-11,21.71-16.33,29.16-30.4,1.88,7-.75,10.92-2.18,14.85-4.19,11.57-13.43,19.52-21.24,28.47-1.51,1.74-3.78,1.57-5.89,1.57Z"/><path class="cls-28" d="M239.25,721.86c-3.79-6.5-9.66-12.29-7.26-20.94l9.17-5.26c3.34,11.55,8.12,22.23,18,29.8l-1.9,7.09C249.81,733.64,243.33,729.8,239.25,721.86Z"/><path class="cls-29" d="M227.59,656.13c3-12.79,16.18-6.85,23-12.56,3.84,2.83-2.22,6.67,1,9.54a24.55,24.55,0,0,1-12.43,10.42c-.67,2.35-1.49,4.59-4.12,5.47C233.35,664.27,232.28,659.15,227.59,656.13Z"/><path class="cls-30" d="M918.38,638.85c-2.37,4.88-3,10.67-7.36,14.53-5.86-5.1-11.77-10.14-17.52-15.37-1.35-1.23-4-2.51-2.16-5,1.4-1.87,3.8-1.83,5.83-1.19C904.27,634,911.31,636.48,918.38,638.85Z"/><path class="cls-31" d="M922.38,575.9c1.08,8,11.5,9.41,12.53,18.14.33,2.88,5.67.84,8.6-.59l.66,7.16-14.82,5.53c-.13-1.78.42-4.54-.5-5.18C919.39,594.37,922.4,584.78,922.38,575.9Z"/><path class="cls-32" d="M884.41,793.89V682.37h.91V794Z"/><path class="cls-33" d="M883.94,620.56c2.77.88,7.68-2.14,7.63,4.27,0,4.94-2.09,8.34-7.25,8.25s-7.3-3.38-7.45-8.31C876.69,619.11,880.94,621.07,883.94,620.56Z"/><path class="cls-34" d="M235.08,669c.54-2.45,1-5,4.13-5.47,9.64,6,3.33,13.45,1.81,20.46C237.82,679.48,237,674,235.08,669Z"/><path class="cls-35" d="M799.18,827c0-.67-.07-1.35-.1-2h55.63c0,.68,0,1.36,0,2Z"/><path class="cls-36" d="M869.52,673.29c0,1.82,0,3.63,0,5.45-6.24,3.24-10.41-1-15.9-4.19C859.21,670.09,864.31,671.12,869.52,673.29Z"/><path class="cls-37" d="M372.18,826.88c-6.19,4.78-10.32,4.5-15.79.76C362,826,366.09,826.64,372.18,826.88Z"/><path class="cls-38" d="M312.8,826.88h14.08C323.09,831.43,319.11,831.31,312.8,826.88Z"/><path class="cls-39" d="M752.31,769.14c-.07,7.17-.1,14.35-.23,21.53-.33,19.12-11.9,30.67-30.86,30.88h-3.6c-15.94.05-15.94.05-16.89,15.9l-108.45.39q-41.56.13-83.15.22c-8.22-1.49-11.69-6.43-12.74-14.72-2-15.51-5.31-30.84-5.66-46.54-1.66-4.79,1.8-7.08,4.72-9.59a92.82,92.82,0,0,0,18.21-21.35c-5.86-1.36-12.74,3.35-17.32-3.8,6.14-4.9,13.43-3.3,20-2.51,14.77,1.79,29.5,1.32,44.27,1.27,9.57,0,11.72,1.42,13.4,10.84,1.45,8.08,2.17,15.74,11.47,19.82,5.13,2.26,1.4,8.77,2.39,12.59,1-5-1.14-10.57.11-16.17,4.74-1.79,4.51,2.11,4.82,4.59.65,5.34.26,10.74.28,16.12.08,16.62,3.17,21.16,18.86,27.47,2.57,1.14,5.31,1,8,1q50.17,0,100.35,0c6.52,0,12.59-1.18,17.46-5.94.68-.75,1.4-1.48,2.11-2.2,6-5,7.35-11.73,7.79-19.05.42-7-1.74-14.22,1.92-20.9A2.17,2.17,0,0,1,752.31,769.14Z"/><path class="cls-40" d="M588.84,767.65v22.18c-2.61-3.78-1.84-6.58-1.74-9.08.19-4.62-.26-7.86-6.09-8.83s-8.25-5.55-8.47-11.27c0-1.5.08-3-.11-4.5-1.58-12.72-1.6-12.91-14.47-12.48-17.43.59-34.76-1-52.13-1.78-3.16-.13-6.69-1.16-9.41,1.67-3.56,2.65-6.54,2.45-8.68-1.78,0-1.14,0-2.29,0-3.43,3.92-3.09,8.35-5.29,12.79-7.54,23.29-1.78,46.59-.75,69.89-.57a9.68,9.68,0,0,1,8.44,4.31c3,6.71.76,13.92,1.95,20.8,1,4.26,3.65,7.4,6.94,10.11A4.33,4.33,0,0,1,588.84,767.65Z"/><path class="cls-41" d="M449.14,837.7c3.13-25.23,5.72-50.53,10.88-75.47a272,272,0,0,0,16.89,65.83c1.29,3.3,3.28,6.33,4.95,9.49Z"/><path class="cls-42" d="M487.74,741.78c2.62,1.92,5.63,2,8.68,1.78h21.06c-5.54,11.06-13.07,19.21-21.66,26.38-2.39,2-4.73,3.56-5.09,6.85C488.5,765.23,488.4,753.48,487.74,741.78Z"/><path class="cls-43" d="M498.22,732.85c-1.5,5.65-6.25,5.1-10.5,5.5q-1.12-17-2.24-34.08c-3-3.64-2.71-7.45-.56-11.34,2.47-2.07,5.13-2.14,7.91-.67A89.94,89.94,0,0,1,498.22,732.85Z"/><path class="cls-44" d="M485.47,693.25q0,5.52,0,11l-9,1.61c-3.34-1.21-8.16,1.91-9.54-5-1.22-6.12.08-8.24,6-8.18C477.19,689.75,481.41,689.6,485.47,693.25Z"/><path class="cls-45" d="M168.4,743.94A93.67,93.67,0,0,0,178,761.69c.91,1.85,1.76,3.74,2.75,5.55,5,9,10.27,17.49,10.5,28.75.21,10.06,5.16,19.45,11.52,27.65,2,2.54,4.5,4.91,4.11,8.61-1.57,3.81-3.65,5.91-8.53,5.79-17.15-.42-34.31-.09-51.46-.22-6.44-.05-12.49-1.44-16.45-7.29,5.91-17.2,11.27-34.55,21.32-50.1,5.83-9,8.56-19.66,12.12-29.81C164.72,748.23,163.85,744.05,168.4,743.94Z"/><path class="cls-46" d="M950.94,796.26l2.25,8.86q2.59,13.57,5.2,27.15a32.94,32.94,0,0,1-12.94,5.54c-4.81,1-5.6-1.58-5.05-5.46,6-9.77,4.58-21.2,7.17-31.72C948,799,945.44,794.22,950.94,796.26Z"/><path class="cls-47" d="M498.22,732.85c-3.05-13-4.07-26.34-5.74-39.57-1.72-11.19,2-21.62,4.51-32.22.63-1.8,1.49-3.41,3.36-4.21,1.56-4.94,4.55-8.13,9.42-10.61,8.69-4.45,16.82-10,25.18-15.11,3.84-1.65,6.24,1.22,8.89,3,33.23,22,71.64,19.87,103.07-5.8,26.5-21.64,35.54-61.43,21.85-95.74-1.39-3.49-4.34-6.77-2.34-11,6.78-12.66,16.78-23,25-34.67a390.15,390.15,0,0,0,30.12-49.52c.62-1.23,2-2.07,3.07-3.09.29.52.81,1.06.81,1.59-.08,38,.79,76.08-.41,114.12-4.75-3.54-5.4-8.72-5.81-14.07-1-13.1-5.33-25.23-11.24-36.82a15.8,15.8,0,0,0-4.57-5.49c-5.7-4.14-13.52-.82-12.79,5.88,2.55,23.34,0,46.95,4.1,70.17a40.05,40.05,0,0,1,.91,9.85c-2.62,33.95,5.11,66.42,15.45,98.17,5.89,18.09,4.53,35.38.91,53.17-3.85,5-9.46,4.67-14.87,4.69-25.93.09-51.87,0-77.8,0-14.54,0-14.62.05-15,14.37-.2,7.32-1.37,13.91-9.33,16.84-2.66.86-5.26-1.14-7.93-.15-4.1-1.48-6.14-4.75-7.53-8.6-1.74-7.28.61-14.8-1.31-22.07-2.13-4.29-6.14-3.05-9.57-3.06C545.16,732.82,521.69,732.85,498.22,732.85Z"/><path class="cls-48" d="M592.94,765.63c7.53-1.69,8.58-7.25,8.59-13.77,0-21.31-2.79-18.93,19.44-19q38-.11,75.91,0A46.07,46.07,0,0,0,712,730.82c-.73,24.92-5.69,49.39-8,74.15-.28,3-.49,5.95-.74,8.93-1.2,6.07-6.15,3.77-9.51,3.79-25.94.21-51.89.15-77.83.1a13.87,13.87,0,0,1-4.91-.72c-15.87-6.63-19.65-11.86-19.34-28.48C591.82,780.94,590,773.13,592.94,765.63Z"/><path class="cls-49" d="M752.31,769.14,750,769a5,5,0,0,1-2.11,1.28,4.38,4.38,0,0,1-3.45-1.16l-7.12-.48c-4.16-7.23-2.74-14.85-1.53-22.46a144.32,144.32,0,0,1,26.94.08c4.07,7.46,4,14.93,0,22.39Z"/><path class="cls-50" d="M744.44,769.08l3.67-.09c1.64,14.58,3.61,29.21-7.14,41.68l.1-.1c-7.52,6.19-16.07,8.37-25.85,8.26-31-.36-61.91-.06-92.87-.26-2.73,0-6.77,2.36-8.28-2.47,26.35-.07,52.7-.09,79-.26,3.43,0,7.28,1.33,10.14-1.94,6.27.08,12.55.28,18.81.21,12.68-.16,22-9.12,22.45-21.76C744.78,784.61,744.49,776.84,744.44,769.08Z"/><path class="cls-51" d="M762.74,768.61q0-11.19,0-22.39c1.78-.18,3.55-.5,5.33-.53,11.51-.22,17.5,9.65,12.27,20.08-1.27,2.54-3.43,3.16-5.94,3.13C770.51,768.85,766.63,768.71,762.74,768.61Z"/><path class="cls-52" d="M735.79,746.14c3.2,7.31.86,15,1.53,22.47-1.5.1-3,.27-4.5.29-12.74.18-17.94-7.37-13.45-19.33,1.19-3.18,3.86-3.63,6.52-3.76C729.17,745.65,732.49,746,735.79,746.14Z"/><path class="cls-53" d="M818.5,571.38c.23,3.34-10.41,12.56-14.47,12.73-6.66.3-8-5.48-9.77-9.91-1.17-2.9,9-12.45,12.87-12.31C813.58,562.11,815.48,567.77,818.5,571.38Z"/><path class="cls-54" d="M813.57,536.23a24.91,24.91,0,0,1-10.91,11.54,2.33,2.33,0,0,1-3.38-1.88c-.76-6.13-3.95-10.4-9.3-13.35-1.34-.74-1.74-2.29-.87-3.9,1.42-2.6,14.48-6.95,16.2-4.88C808.47,527.54,810.82,532,813.57,536.23Z"/><path class="cls-55" d="M824.4,599.33a14.31,14.31,0,0,1-11.71,8.11c-4.67.31-6.81-4.54-6-8.21,1.33-5.88,7.16-8.24,12.34-8.47C823,590.58,823.51,595.53,824.4,599.33Z"/><path class="cls-17" d="M725,550q-.19-57.86-.4-115.71.15-4.51.28-9c2.1,1.88,1.6,4.41,1.6,6.76q0,59.19-.14,118.37A4.62,4.62,0,0,0,725,550Z"/><path class="cls-40" d="M666.42,521.53c15.15,30.07,16.35,60.13-1.74,89.27-27.2,43.77-84.84,53.88-125.93,22.68a44.57,44.57,0,0,0-3.8-2.35c-18.23-17.7-29.59-38.51-29.68-64.56-.14-39.33,23.11-71.33,60.92-83.64,34.89-11.36,73.66,1.91,96,32.84C663.57,517.71,665,519.61,666.42,521.53Z"/><path class="cls-56" d="M498.64,660.77q-3.08,16.26-6.16,32.51l-7,0-12.62-.53c-5.85-1.94-11.93-.9-17.89-1.16-5-.22-8-.5-6.09-6.95,1.62-5.42,1.9-11.24,2.77-16.88,3.31-3.12,11-5.5,1.79-10.7l3.24-21.69c4.72-4.29,10.5-2.69,16-2.88,7.66.07,15.55-1.15,22.34,3.9,10.63,0,5.9,6.65,5,11.62-1.66,1.62-4.26,1.38-6.11,2.59C495.09,654.47,499.6,656.35,498.64,660.77Z"/><path class="cls-57" d="M495,636.36l-21.8-1.67c-7.07-10.89-10.92-22.65-9.76-35.78.05-1.64.29-3.19,1.93-4.07.46.38.87.95,1.4,1.11C486.75,602.05,493.07,617.67,495,636.36Z"/><path class="cls-58" d="M498.64,660.77c-.82-1.16-1.44-2.57-2.51-3.43-2.75-2.22-6.81-4.55-5.45-8.17,1.66-4.41,6.15-.66,9.33-1.19q.17,4.44.34,8.87Z"/><path class="cls-13" d="M458.7,416.75c-1.15-2.37-2.39-4.66-.54-7.33,1-1.43,1.63-3.54,3.57-3.33,3,.33,1.79,3.1,2.22,4.9Z"/><path class="cls-52" d="M463.42,598.91q4.88,17.9,9.76,35.78l-16.51.65-7.08-34C454.59,602.75,459.44,603.27,463.42,598.91Z"/><path class="cls-59" d="M453.43,657c3,1.17,8.7-.74,8.39,4s-5.57,6.22-10.18,6.73C450.86,663.93,450.5,660.21,453.43,657Z"/><path class="cls-60" d="M264.69,765.59c-1.66-.48-4.57-.83-4.28-2.35,1.25-6.64-4.4-9.65-6.83-14.31l23.72-56.19c7.82-.59,15.68-2,23.4.76Q287.13,725,273.55,756.44C271.76,760.56,269.92,764.75,264.69,765.59Z"/><path class="cls-3" d="M239.25,721.86c5.48,4.47,10.81,9.2,18.05,10.69a35.11,35.11,0,0,0-5.54,13.31q-6.69-10.15-13.35-20.33C237.46,724.08,237.45,722.74,239.25,721.86Z"/><path class="cls-3" d="M300.7,693.5c-7.76-1.68-15.57-1.45-23.41-.76C285.17,690.61,293,689.15,300.7,693.5Z"/><path class="cls-61" d="M614.07,816.1c2.92,2.31,6.36,1.33,9.57,1.34,27.36.07,54.72-.21,82.07.14,12.39.15,24.49,0,35.36-7-3.78,7-10.74,8.72-17.48,8.79-36,.35-72,.18-108.05.08-1.68,0-3.35-1-5-1.48q-.93-.63-.6-1.23c.22-.39.44-.58.65-.58Z"/><path class="cls-62" d="M610.56,816.15c0,.6,0,1.21,0,1.81-13.13-3.76-19.75-12.36-20.41-25.7-.4-8.21,1.6-16.54-1.26-24.62l-1.81-1c1.7-1.92,3.86-1.15,5.91-1-.14,9.31-.69,18.64-.3,27.93C593.13,805.16,600.41,811.92,610.56,816.15Z"/><path class="cls-61" d="M741,810.67c9.24-12.73,6.49-27.49,7.14-41.68l1.89,0c0,7.49.36,15,0,22.49S748.43,806.36,741,810.67Z"/><path class="cls-39" d="M578.19,736c3,7.21,1,14.71,1.31,22.07C576.4,750.82,578.51,743.31,578.19,736Z"/><path class="cls-10" d="M543.29,626.49c-25.71-20.73-35.42-47.68-27.79-79.42s28.73-51.79,60.88-58.34c34.54-7,68.92,9.79,83.46,39.37-2.29,6.58-8.37,10-12.62,14.89-1.8,2.09-3.82,3.23-.06,6.07,4.53,3.42,5.54,24.06,2.18,28.82-1.47,2.09-2.92,1.47-4.06-.51-1.53-3.76-1.15-7.71-1.25-11.61-.28-10.4-.86-11-11.61-11.14-5.73-.09-11.47.17-17.19-.14-9.63-.51-12.26-3.08-12.75-12.59-.35-6.92-.28-13.86-.1-20.78.21-8.15-5.06-8.15-10.86-8.16s-11,.5-10.79,8.4c.15,6.32.16,12.66-.07,19-.39,11.23-3,13.86-14,14.21-5.73.19-11.46,0-17.19.09-9.43.18-10.35,1.14-10.36,10.4,0,9.73,1.09,10.92,10.74,11.15,6,.14,12.07-.19,18.09.17,9.47.57,12.43,3.3,12.63,12.77s1,19.27-.65,28.83c-1.62,3.75-3.44,4.07-5.19.12-1.32-3-.28-6.51-1.5-9.91C561.64,612.24,555.35,624.13,543.29,626.49Z"/><path class="cls-63" d="M646.78,578.94c3.88-8.25,1.53-17,1.56-25.44,0-5.85-6.54-1.9-9.62-5,6.87-7.1,13.18-14.56,21.12-20.42,18.56,31.22,11,72.22-17.86,96.89-28.3,24.19-70.31,24.82-98.69,1.5,10.6-7.6,20.21-16.63,31.9-22.89,2.52,5.85-1.34,12,2.69,17,4.37-3.64,9.67-2.92,14.68-2.79,6.8.18,9.91-2.55,9.74-9.5s-.3-13.8.14-20.69c.55-8.86,2.65-11.42,11.63-11.23C625,576.61,636.25,573.55,646.78,578.94Z"/><path class="cls-13" d="M646.78,578.94c-10.18.09-20.42,1-30.51,0-9.62-.88-11.81,2.79-11,11.51.73,8-.08,16.14.21,24.21.17,4.6-1.22,6.46-6.05,6.18-7.16-.4-14.36-.23-21.54-.3-.11-11.45-.45-22.91-.2-34.35.12-5.61-1.94-7.35-7.38-7.14-9.34.35-18.71-.06-28,.18-4.46.11-6.27-1-6.5-6-1-21.87-1.22-21.86,20.49-21.85,21.29,0,21.29,0,21.32-21.08,0-21.67,0-21.53,21.69-20.63,4.65.2,6.38,1.46,6.22,6.24-.3,9.33.22,18.69-.19,28-.26,6.09,2.13,7.79,7.91,7.56,9.34-.37,18.7.12,28-.07,4.3-.08,5.91,1.47,5.75,5.76C646.71,564.47,646.83,571.71,646.78,578.94Z"/><path class="cls-64" d="M723.5,568.5s18.82,17.44,21.18,56.2S723.5,568.5,723.5,568.5Z"/></svg>