<svg id="Layer_1" data-name="Layer 1" xmlns="http://www.w3.org/2000/svg" viewBox="0 0 1920 1080"><defs><style>.cls-1{fill:#fff;}.cls-2{fill:#fefefe;}.cls-3{fill:#e9f2f9;}.cls-4{fill:#233863;}.cls-5{fill:#3c4462;}.cls-6{fill:#444862;}.cls-7{fill:#25395f;}.cls-8{fill:#4a506a;}.cls-9{fill:#feb17d;}.cls-10{fill:#e65c51;}.cls-11{fill:#cbdff9;}.cls-12{fill:#aec2fd;}.cls-13{fill:#fdfdfd;}.cls-14{fill:#2b468a;}.cls-15{fill:#2b468b;}.cls-16{fill:#fcfaf9;}.cls-17{fill:#fbfafb;}.cls-18{fill:#d04943;}.cls-19{fill:#b5453d;}.cls-20{fill:#d04c46;}.cls-21{fill:#2c478b;}.cls-22{fill:#fbb17f;}.cls-23{fill:#173661;}.cls-24{fill:#fbb07d;}.cls-25{fill:#253963;}.cls-26{fill:#243964;}.cls-27{fill:#9db0f3;}.cls-28{fill:#eb9860;}.cls-29{fill:#f8ad7d;}.cls-30{fill:#9eb0f2;}.cls-31{fill:#f9af7d;}.cls-32{fill:#eeccd1;}.cls-33{fill:#d14c46;}.cls-34{fill:#b54b46;}.cls-35{fill:#efd4cb;}.cls-36{fill:#f9bc92;}.cls-37{fill:#d15654;}.cls-38{fill:#d05250;}.cls-39{fill:#e8f2f9;}.cls-40{fill:#fbfbfb;}.cls-41{fill:#e8f1f8;}.cls-42{fill:#caddf8;}.cls-43{fill:#adbff8;}.cls-44{fill:#fbfcfb;}.cls-45{fill:#e5eff6;}.cls-46{fill:#cf4741;}.cls-47{fill:#fcfbfb;}.cls-48{fill:#d3e3f7;}.cls-49{fill:#f9e2da;}.cls-50{fill:#fdfdfc;}.cls-51{fill:#fcfcfc;}.cls-52{fill:#fdc198;}.cls-53{fill:#fdc29a;}.cls-54{fill:#fcc299;}.cls-55{fill:#233862;}.cls-56{fill:#aec1fa;}.cls-57{fill:#eeab7b;}.cls-58{fill:#f2ac7d;}.cls-59{fill:#d04842;}.cls-60{fill:#d96c67;}.cls-61{fill:#d76a64;}.cls-62{fill:#d04741;}.cls-63{fill:#c69c6d;}</style></defs><title>mobile4</title><rect class="cls-1" width="1920" height="1080"/><path class="cls-2" d="M849.77,205.19q280.23,0,560.46-.19c6.76,0,7.77,1.67,7.77,8q-.29,370.38,0,740.78c0,6.26-1,8-7.76,8q-560.46-.33-1120.92,0c-6.37,0-7.32-1.48-7.32-7.5q.28-370.38,0-740.78c0-6.61,1.19-8.43,8.21-8.42Q570,205.36,849.77,205.19Z"/><path class="cls-3" d="M367.27,847.34c-8.45-13.71-16.32-27.64-22.77-42.53a162.86,162.86,0,0,1-13.1-56.43c-1.76-33.59,3.52-66.4,17.37-97.43,8.59-19.26,23.44-33.18,39.82-45.58,25.61-19.4,53.12-35.93,80.59-52.53,19.68-11.88,34.61-28.25,45.62-48.58,12.72-23.48,19.69-49,28.17-74,8.59-25.36,18-50.3,34.33-71.89,17.82-23.6,40.77-40.13,68.74-50.41,39.31-14.46,79.94-18.12,121.33-17.75,25.29.24,50.63,1,75.81-1.85q31.64-3.63,63.22-8c30.79-4.32,61.33-10.15,92.56-12.39a230.38,230.38,0,0,1,106.38,17c29.29,12.11,57.32,26.88,78.32,51.49,14.33,16.79,21.78,37.27,25.73,58.68,7.08,38.34,19.83,73.85,45.38,104.25,24.26,28.87,53.78,51.18,84.65,72.25,21.25,14.51,30.54,37.22,37.68,60.79,6,19.66,7.9,40.18,7.68,60.39-.26,23.86-3.27,47.77-10.54,70.83-8.43,26.76-20.76,51.11-41.63,70.6-4.73,4.43-11.63,6.49-14.37,13.06a5,5,0,0,1-3.94,1.86c-20.76-.07-41.52,1-62.27-.55-2.34-1.35-2.55-3.61-2.56-6,2.42-18.67-.63-37.09-2.58-55.57-.75-7.67-4.05-15-3.55-22.83.13-1.5.07-3.29,1-4.32,8.53-9.06,6.74-20.31,5.73-30.79-2.45-25.38-4.8-50.78-10-75.86-3.16-15.23-7.28-29.71-17.14-42a13.62,13.62,0,0,1-.92-7.16c.77-4.5,3.44-8.24,5.07-12.41,4-10.13.9-14.71-10-15s-12.69,1-12.71,9.43c.46,8.22-.45,16.72,6,23.47,1.43,1.48,1.22,3.9.91,6-5.39,10.58-6.42,22.6-11.1,33.41-5,2.53-9.11-1.45-13.68-2.12-3.7-.55-7.11-2.9-11.64-2.19,4.13,8.52,14.41,10.62,17.5,19.2,0,4-2.9,6-5.87,7.11-12,4.38-23.35,10.38-35.72,13.73-3.81.46-7.49-2-11.78-.46,3.65,3.88,8.19,2.65,12.36,2.89a246.13,246.13,0,0,0,36.18-5c4-.84,8.37-2.28,10.89,2.87,1.47,4.73,1,9.58,1,14.4.91,18.61-1.27,37.29,1.58,55.85a51,51,0,0,0,3.08,12.2c5.94,24.29,8.16,48.85,5.15,73.78-3.61,6-9.26,8-15.87,8.06q-51,.07-102,0c-3.29,0-6.63.35-9.87-.69-4.28-3.42-5.63-7.42-2.43-12.3,17.85-1.22,35.71-.14,51-.59-14.65,0-31.85,0-49,0-6.07-1.84-5.38-7.29-6.08-11.81-3.64-23.66-1.28-47.5-2-71.25a74.73,74.73,0,0,1,4.16-25.72c2.37-7.23,5.4-14.16,10.3-20,18.07-21.39,23-47.27,25.28-73.94.76-8.67.35-17.46.06-26.19-.32-9.5-3.53-11.8-12.53-9.39-2.29.62-4.88,2.36-6.61-.11-2-2.88.48-5,2.41-6.89,4.13-4,9.08-7,13.1-11.1,7.49-7.63,6.15-16.14-3.86-19.89-7-2.63-7.6-5.39-3.25-10.85,4.78-6,4.59-12.24-.39-18.1s-10.92-7.11-17.88-4c-.83.37-1.63.79-2.47,1.13-3,1.22-6.1,3.88-9.23,1.37-3.41-2.74-1.92-6.66-.88-10.08,4.36-14.42,8.26-29,12.55-43.39,2.85-9.57.63-15.26-6.55-18-6.3-2.41-12,.61-15.78,9.73-8.47,20.29-16.76,40.66-24,61.44q-7.08,20.5-14.48,40.88c-1.06,2.93-1.08,9-7.45,5.56-3.18-3.93-2.34-8.61-2.35-13q-.11-57-.05-114c0-4.22.25-8.44-.44-12.62-1.24-3.72-1.13-7.78-2.74-11.41-5.4-9.19-13-14.25-24.07-13.21-3.24.3-6.47-.78-9.75-.34q-31.67.29-63.3.05c-11.51-.09-13.23-1.48-13.93-12.78-.41-6.57-3-9-9.44-8.92-12.35.22-24.71.19-37.06,0-6.23-.09-9.22,2-9.69,8.71-.82,11.51-2.47,12.9-13.8,13-23.2.12-46.41.34-69.59-.13-18.05-.35-24.69,3.53-29,17a101,101,0,0,0-1.63,18.85c0,32.18,0,64.35.07,96.52,0,3.46-.92,7.16,1.67,10.89,2.27-3.91,1.63-7.8,1.64-11.51.06-31,0-61.94.07-92.91,0-4.74-.72-9.69,2.25-14a2.12,2.12,0,0,1,3,.15c1.89,2.59,2.12,5.62,2.13,8.64.12,36.48.19,73,0,109.44a21,21,0,0,1-.71,5.35c-1.17,4.33-4.85,4.53-8.4,5.17-14.67,2.66-18.44,12.27-9.56,24.19,1.94,2.61,4.63,4.63,6.08,7.65a6.85,6.85,0,0,1-.2,5.45c-3,3.61-7.29,5.22-11.43,6.65-9.93,3.44-15.45,10.55-18.61,20.14-1.67,5-2.72,10.41-6.33,14.65-9.87,9.06-23.23,12.66-33.38,21.29-1.59,1.36-3.54,2.3-5.12,3.69s-3.91,2.42-3,5c.7,1.9,2.87,1.91,4.61,2.25,10.33,2.07,20.49,4.82,30.61,7.74A51.33,51.33,0,0,1,692.6,686c3.53,1.75,7.65,3.65,6.59,8.43-.9,4.13-5.07,5-8.7,5.09-10.82.42-21.69,1.09-32.45-.44-8.94-1.26-18-1.1-26.91-2.68-6.31-1.13-11.41,1.36-16.29,5.75C602.79,713,594.73,725.81,592.21,742c-2.36,2.95-3.07,6.39-3.09,10.07-.13,23.59.21,47.17-.1,70.76,0,2.59-.56,5.55,2.75,6.88a34.48,34.48,0,0,0,5.34.66c10.88.56,11.86-.42,12.14-11,.18-6.82-.89-13.73,1.23-20.44,3.94-6.14.74-13.84,4.36-20.05,6.1-2.7,11,.25,15.78,3.44,4.5,11,.52,22.49,1.8,33.68.49,4.32-1.42,9,2,12.87,6.42,3,13,2.16,19.47.52,5.47-8.27,2.28-17.38,2.1-26a346,346,0,0,1,1.42-38.38c6.16-9.06,14.22-16.24,22.94-22.72,2.67-2,5.75-4.07,9-1.56,3,2.3,2.8,6,2,9.19-3.3,13.42-10.28,25-19.07,35.43-4.85,5.78-4.66,7.24,3.13,8.41,8.31,1.25,16.63,2.73,25.11,2.7,3.84,0,8-.43,10.72,3.35,4.45,14.38,3.69,29.24,4.14,44a5.94,5.94,0,0,1-2.37,4.64c-2.85,1.4-5.91,1-8.89,1q-95.8,0-191.61.06c-7.9,0-15.11-1-19.28-8.85-4.17-15.68-8.39-31.32-9.17-47.75-.84-17.61-6.83-34.19-11.71-51a18.13,18.13,0,0,1-.3-4.53c.49-4.47-.41-8.92-.24-13.39.31-8.25,5.48-13.86,13.52-15.36,8.92-1.67,9.61,6.21,13.12,10.86,5,15.32,14.88,27.17,26.88,37.5,2.28,2,4.54,4,5.13,7.14,1.09,6.39,3.6,11.74,10.89,12.53,7.09.78,11.3-3.44,13.88-9.39,10.43-24,20.46-48.22,30.35-72.47,1.56-3.83.48-6.57-3.09-8.18-16.75-7.59-16.4-8.77-22.61,6.7C556,703,552.53,713,548,722.52c-2.28,4.81-3.47,10.41-8.64,13.4-8.43-4.11-13.58-11-16.55-19.68a76.48,76.48,0,0,1-2.61-9.46c-.21-4.3-1.25-8.57-.74-12.92,1.4-6.68,4-13.39-.58-19.91,2.16-5.79,9.44-6.92,11.61-12.71,4.47-9-1.47-24.34-10.8-27.76-5.57-2.05-13.8,1.91-13.38,8.18.84,12.53-6.14,20.52-13.1,29-10.24,7.11-22.78,8.75-33.73,14.29-17.6,8.91-32.57,20.27-40.27,39.17-3.71,9.09-6.09,18.23.82,27.06-.84,16.24,1,32.74-8,47.84-5.27,8.87-6.27,19.23-5.9,29.58a39.91,39.91,0,0,1-.73,10.73c-1.94,7.48-6.49,11.1-14.44,10S374.87,851.49,367.27,847.34Z"/><path class="cls-4" d="M794.66,850.88H763.94a10.66,10.66,0,0,1-4.47-3.5c-10.36-19.5-16-40.53-19.46-62.15-.75-4.68-1.85-9.37-2.06-14.16-.2-5.78.34-11.4,3.35-16.53,6.26-8.22,3.39-17.78,3.57-26.76.15-8,2.51-13.22,11.16-14,3.57-.5,7.21-2.46,10.65.43,3.21,10.8,3.9,21.86,3.47,33,0,1.56.18,3.13,0,4.69,1.31,11.13,1.58,22.35,2.69,33.49,1.6,15.73,3.27,31.46,6.33,47,1.18,6,3.76,10.62,9.65,12.94C791,847,794.58,847.11,794.66,850.88Z"/><path class="cls-5" d="M762,847.37c.64,1.17,1.27,2.34,1.9,3.51-32.54.1-65.08.27-97.63.28q-157.77.06-315.56,0c-3.09,0-6.44,1.11-10.75-2,9.79-2.81,18.72-.38,27.27-1.75,7.13.12,14.33-.31,21.38.5,7.88.91,13-1.44,15.06-9.3,3.15-1.36,5.94-.12,8.71,1.22a29,29,0,0,0,17,5.17q22.13,0,44.23,0c4.34,0,8.43-.5,11.46-4.08,2.7-2.76,5.53-5.05,9.61-2.53,3.4,7.2,9.67,9.35,17,9.35q100.86,0,201.72-.15c5.41-7.07,12.36-4,19-2.91C742.25,846,752.53,842.54,762,847.37Z"/><path class="cls-6" d="M794.66,850.88l-5.34-3c2.61-3.25,6.38-3.2,9.95-3.2,60.62,0,121.23-.41,181.85.16,29.83-.52,59.66-.15,89.49-.19,3.63,0,7.27.18,10.28,2.67l114.24.52c1.29.6,2.23,1.41,1.75,3q-97.62.17-195.23.33-99.89.07-199.78,0C799.47,851.18,797.07,851,794.66,850.88Z"/><path class="cls-7" d="M1196.88,850.87l-1.75-3,12.69-5.75c3.71-5.75,8.12-2.88,12.44-1,3,3.83,6.72,4.38,11.08,2.38,2.7-1.23,5.29-2.76,8.25-3.39,4.05.54,9.32-4.52,11.94,2.57l-.17,4.59c.64,2.74,5.65-.68,5.16,3.65Z"/><path class="cls-8" d="M1256.52,850.87c-1.16-2-4.61-.79-5.16-3.65l66.88.09c9.47,1.36,19.26-1.2,28.57,3.56Z"/><path class="cls-9" d="M1080.89,847.32l-100-.05c-5.17-13.51-1.94-18.35,12.33-18.5,7.19-.07,14.6.91,21.22-2.71,9.29-5.08,15-12.45,15.18-23.69.15-8-1.87-16.22,1.89-23.94,3.15-2.39,6.82-2.24,10.46-2.19,2.08,0,4.18-.11,6.26,0,6.23.36,10.52-1.16,10.29-8.73s-1.8-9.4-10.46-9.69c-2.09-.07-4.18,0-6.29,0-8.24.27-16.47.24-24.69,0a59.78,59.78,0,0,1-6.28,0c-6.53-.21-9,3-9,9.38,0,6.53,2.66,9.43,9.14,9.07,2.38-.13,4.79-.06,7.2,0,2.68,0,5.24.44,7.31,2.35,2.69,12.17,4.28,24.58-2.16,35.84-6.88,12-23.23,15.62-40.36,10.16-2.42-2.81-2.12-6.13-1.68-9.43,2.79-21.16,5-42.4,8.17-63.5a102.85,102.85,0,0,1,.38-11.11,112.62,112.62,0,0,0-3.2-59.52c-9.56-29.27-13.79-59.39-14.07-90.57-.21-24.81-2.33-49.82-4.29-74.7-.47-6.06-1.33-12.4,6.18-15.19,6-2.25,12.31.43,16.33,7.94a95.69,95.69,0,0,1,11.13,36c.44,4.57,1.15,8.91,3.33,12.93.66.61,1.28,1.28,1.9,1.93,2.29,3.55.68,7.59,1.45,11.33.56,3.7.64,7.53,3,10.87,3.59-.22,3-4.74,5.89-5.6,7-14.36,11.11-29.76,16.37-44.74,8-22.73,16.92-45.07,26.32-67.22,5.24-12.37,17-14,25-4.39,3.53,4.2,3.43,8.64,2,13.56-4.58,15.25-9,30.54-13.46,45.83-.89,3.06-2.87,6.07-.63,10.31,11.29-7.26,22.78-13,32.64,1.81,4.85,7.27,3.53,13.44-5.64,24.27,2.74.54,5.33.68,7.64,1.57,9.86,3.8,12.18,15,4.62,22.85-2.89,3-6.73,5.12-9.62,8.14s-7.26,4.12-9,8.78c19.69-6.16,21.49-4.57,21.89,16.82.43,23.37-2.34,46.14-10.63,68.17-3.22,8.56-7.26,16.56-13.15,23.49-11.25,13.24-16.11,28.72-16.34,45.75-.31,23.77-1.54,47.58,1.73,71.27.57,4.16,1.32,8.29,2,12.44.56.42.76.87.6,1.33s-.32.7-.5.7Q1080.12,842.07,1080.89,847.32Z"/><path class="cls-10" d="M736,561.37q.13-63.18.28-126.36c-2.11-3.6-.43-6.69,1.31-9.79a24.78,24.78,0,0,1,8.15-7.36c4.5-2.94,9.52-3.51,14.74-3.51q109.95,0,219.92,0c10,0,18.33,3.29,23.29,12.65a27.67,27.67,0,0,1,3,7.43,18.2,18.2,0,0,1-.25,8.8c-14.25,29.33-32.94,55.81-53,81.36-2,2.55-3.76,5.5-7,6.85-4.49-.64-6.25-4.49-8.5-7.55-20.21-27.56-58.34-39.3-90.63-29-36.81,11.8-58.89,42.64-59.25,79.81-.22,22,7.87,40.45,21.52,57,2.27,2.75,5.44,4.89,5.84,8.87-3.43,6.55-10.47,8.58-16.07,12.2-6.69,4.31-12.53,9.84-19.69,13.43-1.65-2.35-1.62-5-1.53-7.71,1-4.63,2.24-9.34-3.86-11.65a21.9,21.9,0,0,1-3.07-9.36c-1.82-13.33-8.4-22.87-21.13-27.92a17.6,17.6,0,0,1-5.25-3.46c-2.4-2.45-4.81-5.32-2.78-8.72,3.88-6.52,3-13.27,2-20.13C747,569.12,738.27,566.86,736,561.37Z"/><path class="cls-11" d="M709.58,798.71a148.76,148.76,0,0,1-38.33-3.55c-2.87-.67-6.69-1.22-7.37-4.33-.64-3,3.39-3.63,5.11-5.5,9.9-10.75,17.06-23.11,20.55-37.36.52-2.09,1.14-5.1-1.56-6.48s-4.19,1.35-6.16,2.54c-8.9,5.33-14.43,14.42-22.87,20.23-3.61-3.67-2.68-8.41-2.71-12.77,0-5.72-2.58-8.23-8.22-8-2.39.1-4.8.09-7.19,0-5.66-.2-8.2,2.45-8.17,8.09,0,6.89.11,13.78-.08,20.67-.1,3.53.31,7.28-2.71,10.07-5.17.31-9.45-2.92-14.36-3.63-5-6.7-2.45-14.42-2.71-21.67-.45-12.62-.16-12.63-12.6-13.6-3-.23-6-.19-8.24-2.71-1.41-21.64,14.16-33.21,27.57-45.93,2.48-2.35,6.46-1.29,9.66-1,18.78,1.83,37.51,4.33,56.45,3.52,4.33-.19,10.81,1.53,11.83-3.54,1.12-5.61-5.94-5.8-9.77-7.22a206.34,206.34,0,0,0-34.63-9.07c-3.5-.64-8.41-.44-9.31-3.73-1-3.51,3.63-5.79,6.32-7.95,12.21-9.76,26.7-15.9,39.6-24.58,2.74,4,.7,8.13.11,12.15-1.69,11.62-3.39,23,11.21,28.37,4.25,1.57,3.75,6.4,4,10.27.76,12.89-.7,25.69-1.76,38.51-.71,8.57.19,16.66,6.43,23.32,1.18,11.28,3.05,22.51,2.75,33.9C712.28,791.59,712.76,795.64,709.58,798.71Z"/><path class="cls-12" d="M1224.36,610.43c10.19,9.8,14.06,22.43,16.87,35.81A549.84,549.84,0,0,1,1253,742c.2,6.44,1.47,13.35-6.14,17.3-1,.54-.92,3.29-1.35,5-6.93-.49-12.88,3.24-19.41,4.56-7.86,1.65-15.72,3.21-23.43-.59-6.93-6.94-4.86-16.22-5.45-24.38-1.07-14.86-.33-29.84-.35-44.78,11.93-10.16,22.54-21.31,27.5-37.53-8.57,9.11-17.19,17-27.35,23.05-8.33-2.23-15.83,2.89-23.89,2.74-7.85-.15-15.45,4.44-23.43,1.13a4,4,0,0,1,0-5.45c11.64-4.42,23.34-8.69,34.87-13.38,2.83-1.15,6.21-2.56,6.63-6.53,1.23-5.46,2.26-11,7.36-14.53q2.7-10.27,5.41-20.55c1.16-4.37,2.6-8.61,5.56-12.16C1213.67,612,1218.11,608.76,1224.36,610.43Z"/><path class="cls-12" d="M707.87,753.48c-5.88-3.11-7.58-7.75-7.52-14.53.16-16.19,3.24-32.23,2.08-48.47-.29-4.16-.14-7-5.83-7.94-7-1.11-10-6.95-10.52-13.85-.77-9.41,1.5-18.41,3.6-27.44a39.85,39.85,0,0,0,2.08-5.9c3.59-19,15.77-29.35,33.84-33.86,3.86,2,4.21,6.13,5.79,9.52,3.6,11.06,5.53,22.49,7.62,33.89a95.22,95.22,0,0,1-3.53,21.81,34.53,34.53,0,0,0-1.66,11.09c.64,6.28-4.27,13.18-.88,18.35,3.48,5.33,11.25,1.1,16.86,2.91a5.77,5.77,0,0,1,3.59,2.43c-5.63,8-5.61,8.09,3.24,14.21-8.55.5-10,5.55-9.27,13,.67,6.52-.05,13.17.15,19.76.11,3.94-1.3,6.29-5.27,6.93C730.5,759.79,719,759.31,707.87,753.48Z"/><path class="cls-12" d="M418.17,750c-5.52-3.65-6.26-8.39-4.84-14.75,5.82-26.09,22.95-41.85,46.17-52.69,10.65-5,21.84-8.34,32.81-12.37,4.26-3.26,9.36-4.14,14.43-5.12,7.82,1.08,8.38,7.89,10.61,13.39a43.87,43.87,0,0,1,3.85,15.35c-1.15,3.9,3.24,7.74.14,11.67-.63,4.28-4.8,4.83-7.41,7-5,3.51-7.34,12.13-16.13,8.65-1.22-1.27-2.77-2.36-3.58-3.86-2-3.75-2.41-9-9.19-6.45-5.95,2.25-10.67,4.61-11,12.19-.23,4.92,3.46,9.9-.17,14.73a94.29,94.29,0,0,1-27.46,12.55C437,752.32,427.52,754.62,418.17,750Z"/><path class="cls-13" d="M756.73,407.9c24.69,0,49.38-.22,74.07.09,6.73.08,9.73-1.28,9.44-8.88-.54-13.92-2.07-12.94,13-13,13.25,0,26.51.32,39.74-.13,6.61-.22,9,1.65,8.84,8.57-.39,14.44-2.2,13.23,13.58,13.27q32.07.09,64.14.06c3.29,6.13.67,8.15-5.45,8.09-10.23-.1-20.46,0-30.69,0q-86.21,0-172.41,0c-3.59,0-7.19.18-10.74-.85C756.24,414,754.44,412,756.73,407.9Z"/><path class="cls-14" d="M707.87,753.48c11.43,1.18,22.81,3.11,34.37,2q-1,8.29-2,16.61c.22,21-4.33,41.38-6.72,62-.54,4.63-.53,9.66-4.17,13.43-5.32-4.23-10.64-1.56-16,0-1-16.3-1.44-32.63-3.79-48.82Z"/><path class="cls-13" d="M592,740.73c23.48.13,23.47.13,23.49,23.51,0,4.82,0,9.64.06,14.47q0,7-.08,14c0,2.66.24,5.46-3.5,5.93-2.89,2.62-6.52,2.9-10.07,2.66-7.16-.48-9.13,3.06-9.2,9.67s1.92,13.7-2.38,19.89c-4.23,2.11-3.7-1.6-3.71-3.45-.12-27.17,0-54.35-.14-81.53C586.42,741.88,588.4,740.62,592,740.73Z"/><path class="cls-13" d="M629.87,782.34c0-11.36.31-22.73,0-34.07-.2-6,2-7.56,7.78-7.64,21.13-.29,21.13-.49,21.35,23.63q0,29.78-.06,59.55c0,5.32-.07,5.32-3.76,7.13-5.12-9.36-1.66-19.49-2.52-29.24-.43-4.8-.52-9.08-7-9.29-5.77-.19-9.33,1.41-9.26,7.94s.12,13.27-.08,19.9c-.12,3.84.52,8-2.85,11-4.94-1-3.35-5-3.38-7.93C629.84,809.65,629.89,796,629.87,782.34Z"/><path class="cls-14" d="M418.17,750c10.18-.38,20.45.44,30.4-2.59,1.92,2.35,1.27,4.81.34,7.29-8,27.46-24.93,51.09-33.62,78.26-.9,2.81-1.68,5.82-4.65,7.39a11.48,11.48,0,0,1-6.93-1.81c-1.19-17.73,1-34.44,10.41-50.34,5-8.46,1.35-19.5,3.52-29.2C418.29,756.11,418,753,418.17,750Z"/><path class="cls-14" d="M1202.66,768.33c8.36-.53,16.8,0,25.06-1.86,3.86,2.79,4.32,6.95,4.3,11.17,0,8.92.4,17.82.47,26.73-4.32,8.87-3.25,18.85-5.69,28.1-1,3.83-.57,8.77-6.21,9.7-4.26.41-8.49-3.53-12.77-.08,1.23-22.75.1-45.31-5.08-67.58C1202.28,772.55,1202.67,770.39,1202.66,768.33Z"/><path class="cls-15" d="M494.69,838.32c-3.33-.37-5.71,1.21-7.62,3.75-11.22-11.94-18.18-25.84-18.84-42.4-.22-5.72-3-10.22-5.65-14.89-2.36-4.1-5.65-7.82-5.51-13,4.84-9.19,12-17.24,13.41-28.13.2-1.61,1.2-3.5,3.67-2.89,6.64,17.79,11.77,35.89,12.41,55.08C487,810.39,492.25,824.11,494.69,838.32Z"/><path class="cls-13" d="M735,435q0,56-.08,112c0,2.41,0,4.82-.06,7.23-.13,3.11-1.6,5.2-4.9,5.33-4,.16-4-2.75-4-5.57q0-20.32,0-40.65c0-22.29.23-44.58-.11-66.86-.12-7.58,1.37-14.9,2-22.34C735.68,423.18,736.76,424.81,735,435Z"/><path class="cls-16" d="M539.39,735.28c8.18-15.42,13.87-31.9,20.47-48,4.38-10.65,5.24-11,15.63-6.27,1.09.51,2.16,1.07,3.28,1.51,12.3,4.81,12.29,4.79,7.58,16.2Q573,731,559.73,763.27c-.92,2.22-2.05,4.35-3.18,6.48-3.53,6.66-8.51,10.9-16.61,9-7.88-1.82-11.33-7.15-11.18-15,3.78,0,4.53,3.4,6.27,5.69,2.48,3.24,5.2,6,9.79,3.77,4-2.08,6.06-5.76,7.76-9.63,7.81-17.84,15.16-35.87,22.82-53.78.7-1.64,1.39-3.33.94-5.17-5.73-2.13-11.34-2.48-16.82.61-7.72,14.21-13,29.46-19.67,44.13-1.58,3.5-2.45,7.42-5.84,9.86-2.44.15-3.06-1.55-3.53-3.43-.34-5.27,2.38-9.55,4.56-14A13.37,13.37,0,0,1,539.39,735.28Z"/><path class="cls-17" d="M735,435c-.37-5,.58-10.81-7.22-10.83q9-17.92,28.93-16.25c0,2.53.28,4.58,3.29,5.6a32.1,32.1,0,0,0,10.63,1.61q99.95,0,199.9,0c5.21,0,10.05.25,9-7.23,4.27,2.28,8.7-.52,12.94.34,8.58,1.76,14.91,6.86,19.63,14.09-3,2.38-5.42,5.51-9,7.18-6.28-9.59-15.25-12.82-26.55-12.79q-103.95.38-207.9.07c-8.46,0-16.74.18-24.5,4-5.3-1.27-3.62,3.8-5.3,5.82-.85,2.8-1.71,5.59-2.56,8.39C735.85,435,735.44,435,735,435Z"/><path class="cls-18" d="M633.38,831.23c0-11.68.33-23.37,0-35.05-.15-5.38,1.24-7.32,7-7.15,17.83.53,14.2-1.47,14.55,14.06.21,9.28.17,18.57.24,27.85A32.73,32.73,0,0,1,633.38,831.23Z"/><path class="cls-13" d="M1003.08,429.51c1.78-3.91,3.44-8,9-7.18,2.22,3.34,1.87,7.13,1.87,10.85,1.39,43.18-.3,86.37-.09,129.55,0,4.51.07,9.6-7.1,8-2.52-3.45.27-7-.22-10.5-2.62-4-2.4-8.56-2.4-13.06,0-30.57.17-61.14-.15-91.71-.07-6.86,3.65-13.45,1.1-20.37C1003.92,433.38,1002.65,431.76,1003.08,429.51Z"/><path class="cls-19" d="M507.78,666a30.4,30.4,0,0,1-15.47,4.24c-.32-2.87.06-6,2.71-7.17,8.4-3.73,8.24-10.72,7.9-18.13-.31-6.77,2.75-11.75,9.28-13.9,6.36-2.08,10.5-.45,14.82,5.83,9.36,13.62,10.91,17.61,4.79,26.11-4.27-.9-1.94-4-2.14-5.85C521.75,658.29,513.9,660.11,507.78,666Z"/><path class="cls-20" d="M590.28,830.88c.08-8.64.46-17.29.14-25.92-.2-5.57,1.87-7.53,7.27-7,4.73.47,9.49.48,14.24.7,0,8.64-.37,17.31.07,25.93.3,6-1.29,9-7.82,8.14C599.55,832.08,594.58,834,590.28,830.88Z"/><path class="cls-21" d="M1251.53,842.63c-4.16-3.75-8.69,1-12.94-.54-5.15-7.94-5.44-17.14-6.86-26.06,3.07-9.74,9.14-18,13.22-27.31.7-1.58,2-3,4.19-2.67C1251.83,804.83,1255,823.59,1251.53,842.63Z"/><path class="cls-22" d="M544.87,775.41c-6,2.9-9.54-.63-12-5.19-1.23-2.28-1.57-5-4.08-6.47-5.39-5.53-10.65-11.2-16.21-16.56-7.51-7.26-12.7-15.74-14.75-26,7-.42,10.42-5.79,14.37-10.42,1.48,7.32,5.38,13.67,8.26,20.43,1.23,9.39,9.87,15.31,11.51,24.51a3,3,0,0,0,1.83,3.07C542,761.31,541.43,769.68,544.87,775.41Z"/><path class="cls-4" d="M1249.14,786.05l-15.76,28.89c-3.45-2.27-4.64-5.11-2.24-8.86-2.53-8.4-1.64-17-1.62-25.6a43.25,43.25,0,0,0-1.8-14c4.2-1.51,8.6-2.62,12.53-4.64,3.49-1.78,4,.66,5.26,2.53Z"/><path class="cls-23" d="M1202.57,585.72c-3.83-6.06-1.37-9.4,4.82-11.12a7,7,0,0,1,.88-.2c7.84-.86,17-2.62,22,4.17,4.62,6.28-.47,13.7-3.74,20.11-.81,1.59-1.88,3.06-2.83,4.59-2.87,5.13-7.25,4.61-10.16,1.1C1209,598.84,1202.75,593.94,1202.57,585.72Z"/><path class="cls-24" d="M729.78,611.17q-2.1-4.83-4.18-9.68c0-2,.11-3.94.16-5.91-2-4.21-6-8.93-.76-12.82,6-4.45,11.13-13.14,20.81-6.72,1.11,7.72,4.09,15.51-2.48,22.58-2.2,2.36,1.51,4,2.21,6a7,7,0,0,1-1.12,5.32C739.9,614.62,735.13,616.47,729.78,611.17Z"/><path class="cls-25" d="M745.81,576c-6.21.41-13.73-1.72-15.24,7.82-11.94-.33-2.58,8.07-4.81,11.72-8.15-5-13.59-15.71-11.72-23.13,2-7.86,8.39-11.09,21.94-11.08,3.42,2.14,7,4,9.7,7.19C747.87,571.16,748.5,573.49,745.81,576Z"/><path class="cls-17" d="M1006.75,570.69c5.58-.53,5.37-4.61,5.37-8.63,0-12.89-.22-25.79,0-38.68.41-19.71,1.79-39.42,1.45-59.1-.15-8.43-.32-17-1.19-25.43-.22-2.16-.55-4.19,1.52-5.67,2.93,2.69,1.72,6.22,1.73,9.39q.12,61.05.07,122.08c0,3.9-.46,7.88,1.78,11.43-1,3.9-.93,10.1-5.38,10.17-5.24.08-3.22-6.74-5.09-10.23C1006.29,574.6,1006.81,572.49,1006.75,570.69Z"/><path class="cls-26" d="M474.15,740.77c-3.84,7.83-3.71,17.25-10.09,24.15-2,2.14-3.21,5-5.86,6.58-6.39-4.19-10.6-9.56-9.62-17.74a9.07,9.07,0,0,1,0-6.35c9.13-1.37,15.86-9,25.27-9.64C474,738.77,474.05,739.77,474.15,740.77Z"/><path class="cls-27" d="M1197,684.69c8.13-11,21.72-16.33,29.16-30.41,1.88,7.05-.75,10.93-2.18,14.86-4.19,11.57-13.43,19.52-21.24,28.47-1.51,1.74-3.78,1.57-5.89,1.56Z"/><path class="cls-28" d="M519.44,731.68c-3.8-6.5-9.66-12.29-7.27-20.94q4.59-2.62,9.17-5.26c3.35,11.54,8.12,22.23,18,29.8-.64,2.36-1.27,4.72-1.91,7.09C530,743.46,523.52,739.62,519.44,731.68Z"/><path class="cls-29" d="M507.78,666c3-12.79,16.17-6.85,23-12.57,3.84,2.83-2.23,6.68,1,9.54a24.53,24.53,0,0,1-12.42,10.43c-.68,2.34-1.49,4.59-4.12,5.47C513.53,674.09,512.46,669,507.78,666Z"/><path class="cls-30" d="M1198.57,648.67c-2.37,4.88-3,10.67-7.36,14.53-5.86-5.11-11.77-10.15-17.52-15.38-1.35-1.23-4-2.5-2.16-5,1.4-1.88,3.81-1.83,5.83-1.19C1184.46,643.86,1191.51,646.3,1198.57,648.67Z"/><path class="cls-31" d="M1202.57,585.72c1.08,8,11.5,9.4,12.53,18.13.34,2.89,5.67.85,8.6-.59l.66,7.17L1209.54,616c-.13-1.78.43-4.54-.49-5.18C1199.58,604.19,1202.59,594.6,1202.57,585.72Z"/><path class="cls-32" d="M1165.75,692.26V803.8h-.91V692.25Z"/><path class="cls-33" d="M1164.43,630.44c2.61.75,7.49-2.11,7.33,4.31-.12,5-2.19,8.25-7.36,8.15-4.51-.09-6.84-3-7.33-7.52C1156.43,629.32,1160.7,630.57,1164.43,630.44Z"/><path class="cls-34" d="M515.27,678.82c.54-2.45,1-5,4.12-5.47,9.64,6,3.33,13.45,1.81,20.46C518,689.3,517.2,683.83,515.27,678.82Z"/><path class="cls-35" d="M1079.37,836.82c0-.68-.07-1.35-.1-2h55.63c0,.68,0,1.35,0,2Z"/><path class="cls-36" d="M1149.71,683.11c0,1.82,0,3.63,0,5.45-6.24,3.23-10.41-1-15.9-4.2C1139.4,679.91,1144.5,680.94,1149.71,683.11Z"/><path class="cls-37" d="M638.26,836.75H651.4C646.52,841.84,642.36,840.87,638.26,836.75Z"/><path class="cls-38" d="M608.64,837.27c-5.31,4.29-9.35,3.7-14.89.12C599.21,836,603.25,836.15,608.64,837.27Z"/><path class="cls-39" d="M1032.5,779c-.07,7.18-.1,14.36-.23,21.54-.33,19.11-11.9,30.67-30.86,30.87-1.2,0-2.4,0-3.6,0-15.94,0-15.94,0-16.89,15.9q-54.23.19-108.45.38-41.58.14-83.15.23c-8.22-1.49-11.69-6.43-12.75-14.72-2-15.51-5.31-30.84-5.65-46.54-1.67-4.84,1.85-7.12,4.79-9.65a94.21,94.21,0,0,0,18.07-21.17c-5.76-1.82-13,3.7-17.23-4,5.49-4.71,12.21-3.28,18.17-2.57,15,1.79,30.06,1.3,45.1,1.55,11.26.19,13.1,1.54,14.75,12.56,1.12,7.42,2.47,13.93,10.5,17.39,5.4,2.33,2.17,8,3,11.77.9-4.63-1.19-9.74.07-14.81,4.74-1.83,4.51,2.08,4.82,4.56.67,5.34.27,10.74.29,16.12.08,16.63,3.17,21.17,18.85,27.48,2.57,1.15,5.31,1,8,1q50.18,0,100.36,0c6.52,0,12.59-1.18,17.46-5.93.68-.75,1.4-1.48,2.11-2.21,6-5,7.35-11.72,7.79-19,.42-7-1.74-14.22,1.92-20.91A2.2,2.2,0,0,1,1032.5,779Z"/><path class="cls-40" d="M869,777.46v22.16c-2.66-3.75-1.86-6.59-1.73-9.12.24-4.73-.44-7.87-6.2-8.78-5.31-.85-7.87-5.16-8.33-10.48-.16-1.8.06-3.64-.17-5.42-1.58-12.37-1.61-12.65-14.3-12.31-17.48.48-34.85-1-52.26-1.8-3.16-.14-6.71-1.16-9.43,1.67-3.56,2.65-6.54,2.45-8.69-1.78,0-1.14,0-2.29,0-3.43,3.78-3,8.2-5,12.37-7.38,23.41-1.9,46.84-.94,70.25-.57,8.33.13,11.59,4.42,12,13.81.32,7.23,0,14.49,5.09,20.49A9,9,0,0,1,869,777.46Z"/><path class="cls-41" d="M729.32,847.52c3.13-25.23,5.73-50.53,10.89-75.47a272.67,272.67,0,0,0,16.88,65.83c1.29,3.3,3.29,6.33,4.95,9.49Z"/><path class="cls-42" d="M767.92,751.6c2.63,1.91,5.64,1.95,8.69,1.78h21.06c-5.55,11.06-13.07,19.21-21.67,26.37-2.39,2-4.72,3.57-5.08,6.87C768.69,775.05,768.58,763.3,767.92,751.6Z"/><path class="cls-43" d="M778.41,742.67c-1.5,5.65-6.25,5.09-10.51,5.5q-1.11-17-2.23-34.09c-3-3.64-2.71-7.44-.57-11.33,2.48-2.07,5.13-2.14,7.91-.68A90,90,0,0,1,778.41,742.67Z"/><path class="cls-44" d="M765.66,703.07c0,3.67,0,7.34,0,11l-9,1.62c-3.34-1.22-8.16,1.91-9.54-5-1.22-6.12.07-8.25,5.95-8.19C757.38,699.56,761.6,699.42,765.66,703.07Z"/><path class="cls-39" d="M448.58,753.76a93.32,93.32,0,0,0,9.62,17.74c.91,1.86,1.76,3.74,2.75,5.55,4.95,9,10.26,17.5,10.5,28.75.2,10.06,5.15,19.45,11.52,27.65,2,2.55,4.49,4.92,4.1,8.62-1.56,3.8-3.64,5.91-8.53,5.79-17.14-.42-34.3-.09-51.46-.22-6.43,0-12.48-1.44-16.44-7.29,5.9-17.2,11.26-34.56,21.31-50.1,5.84-9,8.57-19.66,12.12-29.82C444.9,758.05,444,753.87,448.58,753.76Z"/><path class="cls-45" d="M1231.14,806.08q1.11,4.44,2.24,8.86,2.61,13.57,5.21,27.15a33.34,33.34,0,0,1-12.95,5.54c-4.81,1-5.6-1.58-5.05-5.46,6-9.77,4.58-21.2,7.17-31.72C1228.15,808.86,1225.63,804,1231.14,806.08Z"/><path class="cls-46" d="M778.41,742.67c-3-13-4.07-26.34-5.74-39.57-1.72-11.19,2-21.62,4.51-32.23.62-1.79,1.48-3.4,3.35-4.2,1.57-4.94,4.56-8.13,9.42-10.62,8.7-4.44,16.82-10,25.19-15.1,3.84-1.65,6.23,1.21,8.88,3,33.24,22,71.65,19.86,103.08-5.8,26.5-21.65,35.54-61.43,21.85-95.75-1.39-3.49-4.34-6.77-2.34-11,6.78-12.67,16.78-23,25-34.68a390.49,390.49,0,0,0,30.12-49.51c.62-1.24,2-2.08,3.07-3.1.29.53.81,1.06.81,1.59-.08,38,.79,76.09-.41,114.12-4.75-3.53-5.4-8.71-5.81-14.07-1-13.09-5.33-25.22-11.24-36.81a15.83,15.83,0,0,0-4.57-5.5c-5.71-4.13-13.52-.81-12.79,5.89,2.54,23.34,0,47,4.1,70.17a40.05,40.05,0,0,1,.91,9.85c-2.61,34,5.1,66.43,15.45,98.17,5.91,18.1,4.49,35.39.93,53.18-3.87,5-9.48,4.66-14.88,4.68-25.94.08-51.87,0-77.81,0-14.54,0-14.62,0-15,14.37-.2,7.32-1.37,13.9-9.33,16.84-2.66.86-5.26-1.14-7.93-.15-8.94-4.4-7.35-12.64-7.4-20.26-.08-13.5-.08-13.51-13.69-13.5Z"/><path class="cls-3" d="M991.47,751.84q-3.63,31.49-7.26,63c-.34,3-.5,5.92-.75,8.88-1.14,6.07-6.07,3.8-9.4,3.82-25.77.21-51.55.13-77.31.11a20,20,0,0,1-4.75-.42c-10.68-3.73-19.47-9.17-19.72-22.19a47.13,47.13,0,0,0,.29-11.68c-.54-6.66,1.25-11.44,7.75-14.59s6.28-9.66,6.63-15.7c.58-9.88,4-13.9,13.79-13.72,29.4.55,58.85-1.91,88.19,1.67A8.1,8.1,0,0,1,991.47,751.84Z"/><path class="cls-47" d="M991.47,751.84c-3.83,2.56-8.25,2-12.27,1.47-22.61-3.11-45.21-1.42-67.83-.56-4.43.17-9-1.33-13.34-.89-5.82.58-9.55,2.71-8.62,10.54,1,8.08.54,17.26-10.36,20-4.16,1-4.42,4.12-4.66,7.62-.37,5.3,1.45,10.79-1.26,15.9-2.37-10.18-2-20.39-.26-30.61,7-1.86,8.89-6.87,8.88-13.58,0-21.31-2.85-19,19.41-19q38-.11,75.92,0a46.09,46.09,0,0,0,15.1-2.06C991.94,744.38,991.71,748.11,991.47,751.84Z"/><path class="cls-48" d="M1032.5,779l-2.31-.17a5,5,0,0,1-2.12,1.28,4.36,4.36,0,0,1-3.44-1.16l-7.12-.48c-4.16-7.24-2.74-14.85-1.53-22.46a144.32,144.32,0,0,1,26.94.08c4.07,7.46,4,14.93,0,22.39Z"/><path class="cls-49" d="M1024.63,778.9l3.67-.1c1.64,14.58,3.61,29.22-7.14,41.68l.1-.09c-7.52,6.19-16.07,8.37-25.85,8.26-31-.36-61.92-.06-92.87-.26-2.76,0-6.78,2.33-8.35-2.46,26.38-.06,52.76-.08,79.14-.25,3.43,0,7.29,1.34,10.13-2,6.27.09,12.54.31,18.81.23,12.67-.15,22-9.11,22.44-21.75C1025,794.42,1024.68,786.66,1024.63,778.9Z"/><path class="cls-50" d="M1042.93,778.43q0-11.2,0-22.39c1.78-.18,3.55-.5,5.33-.53,11.51-.22,17.5,9.64,12.27,20.08-1.27,2.53-3.43,3.16-5.94,3.12C1050.7,778.66,1046.81,778.53,1042.93,778.43Z"/><path class="cls-51" d="M1016,756c3.2,7.31.86,15,1.53,22.46-1.5.1-3,.28-4.5.3-12.74.18-17.94-7.37-13.45-19.34,1.19-3.17,3.86-3.63,6.52-3.75C1009.36,755.47,1012.68,755.83,1016,756Z"/><path class="cls-52" d="M1088,571.73c6,1.1,9.14,5.57,10.65,10.77.83,2.87-12.38,12.4-15.89,11.49-5.2-1.33-7.34-5.94-8.3-10.58C1073.74,580.2,1084.33,571.59,1088,571.73Z"/><path class="cls-53" d="M1094.15,545.27a25.7,25.7,0,0,1-11.33,12.31,2.32,2.32,0,0,1-3.36-1.9c-.75-6.14-4-10.38-9.3-13.35-1.35-.75-2.14-2.9-.75-3.78,4.68-3,9.8-7.19,15.35-5.17C1089.81,535.22,1089.22,542.67,1094.15,545.27Z"/><path class="cls-54" d="M1104.87,608.11a14.13,14.13,0,0,1-11.67,9.13c-4.89.65-6.89-4.28-6.34-7.87.94-6.16,7-8.23,12.06-8.85C1103.28,600,1103,605.46,1104.87,608.11Z"/><path class="cls-17" d="M1005.2,559.77q-.19-57.85-.4-115.71c.1-3,.19-6,.28-9,2.1,1.89,1.6,4.41,1.6,6.77q0,59.18-.15,118.36A4.77,4.77,0,0,0,1005.2,559.77Z"/><path class="cls-40" d="M946.61,531.35c15.15,30.06,16.35,60.13-1.75,89.26C917.67,664.39,860,674.5,818.94,643.29a44.47,44.47,0,0,0-3.8-2.34c-18.23-17.7-29.59-38.51-29.68-64.57-.14-39.33,23.11-71.32,60.91-83.64,34.89-11.36,73.67,1.91,96,32.85C943.75,527.52,945.19,529.43,946.61,531.35Z"/><path class="cls-55" d="M778.83,670.59q-3.09,16.26-6.16,32.51l-7,0L753,702.53c-5.86-1.93-11.93-.89-17.89-1.15-5-.22-8-.5-6.1-7,1.63-5.42,1.91-11.24,2.78-16.88,3.31-3.12,10.95-5.51,1.79-10.7l3.23-21.7c4.73-4.28,10.51-2.69,16-2.87,7.66.06,15.55-1.16,22.34,3.9,10.64,0,5.89,6.65,5,11.62-1.55,1.85-4.46,1-6,2.94C775.28,664.29,779.79,666.17,778.83,670.59Z"/><path class="cls-56" d="M775.17,646.18l-21.8-1.67c-7.08-10.89-10.92-22.66-9.76-35.78,0-1.64.29-3.19,1.93-4.07.46.37.86.94,1.39,1.11C766.94,611.86,773.26,627.48,775.17,646.18Z"/><path class="cls-57" d="M778.83,670.59c-.83-1.16-1.45-2.57-2.51-3.43-2.75-2.22-6.81-4.56-5.45-8.17,1.66-4.41,6.15-.67,9.33-1.19l.33,8.87Z"/><path class="cls-13" d="M738.83,426.62c0-2.33-.2-4.68,0-7,.13-1.8,1-3.75,3-3.62,3.09.19,1.81,3,2.29,4.8Z"/><path class="cls-51" d="M743.61,608.73q4.88,17.88,9.76,35.78l-16.52.64-7.08-34C734.78,612.57,739.63,613.08,743.61,608.73Z"/><path class="cls-58" d="M733.62,666.85c3,1.17,8.7-.74,8.39,4s-5.57,6.21-10.18,6.73C731,673.75,730.68,670,733.62,666.85Z"/><path class="cls-59" d="M544.87,775.41c-1.65-.48-4.56-.83-4.28-2.35,1.26-6.65-4.39-9.65-6.82-14.31l23.71-56.19c7.83-.59,15.68-2,23.4.75q-13.56,31.49-27.15,63C552,770.38,550.11,774.57,544.87,775.41Z"/><path class="cls-3" d="M519.44,731.68c5.48,4.47,10.8,9.19,18,10.69a35.43,35.43,0,0,0-5.54,13.31q-6.68-10.17-13.34-20.33C517.65,733.89,517.64,732.55,519.44,731.68Z"/><path class="cls-3" d="M580.88,703.31c-7.75-1.68-15.57-1.45-23.4-.75C565.36,700.43,573.22,699,580.88,703.31Z"/><path class="cls-60" d="M894.19,825.93c2.94,2.26,6.38,1.32,9.6,1.33,27.36.07,54.73-.21,82.09.13,12.4.16,24.5,0,35.38-7-3.78,7-10.75,8.72-17.48,8.78-36,.35-72,.18-108,.09-1.68,0-3.35-1-5-1.48-.63-.42-.83-.82-.6-1.21s.43-.58.65-.58Z"/><path class="cls-61" d="M890.75,826c0,.6,0,1.19,0,1.79C877.56,824,871,815.42,870.29,802.07c-.4-8.2,1.6-16.54-1.26-24.61l-1.81-1c1.58-1.89,3.69-1.16,5.65-1.15q.14,15.3.26,30.61C874.74,816.33,881.59,822.17,890.75,826Z"/><path class="cls-60" d="M1021.16,820.48c9.24-12.72,6.49-27.49,7.14-41.68l1.89,0c0,7.5.36,15,0,22.49S1028.62,816.18,1021.16,820.48Z"/><path class="cls-10" d="M823.47,636.3c-25-18.72-35.91-51.59-27.24-82.07,9.09-31.94,35.86-54.1,69.21-57.27,30-2.85,61.57,14.47,74.59,40.95-2.29,6.59-8.37,10-12.62,14.9-1.8,2.09-3.82,3.23-.06,6.07,4.51,3.4,5.52,24.09,2.18,28.82-1.48,2.09-2.92,1.46-4.07-.51-1.52-3.76-1.14-7.71-1.25-11.61-.28-10.41-.85-11-11.6-11.15-5.73-.08-11.47.18-17.19-.13-9.63-.51-12.27-3.09-12.75-12.59-.35-6.92-.28-13.87-.1-20.78.21-8.15-5.06-8.15-10.86-8.17s-11,.51-10.79,8.41c.15,6.32.16,12.65-.07,19-.39,11.23-3,13.85-14,14.21-5.73.19-11.46,0-17.19.08-9.44.19-10.35,1.14-10.37,10.4,0,9.74,1.09,10.93,10.75,11.16,6,.14,12.07-.2,18.09.17,9.47.56,12.42,3.3,12.63,12.77s1,19.27-.65,28.83c-1.62,3.74-3.38,4-5.21.12-1.41-3,.13-6.59-1.82-9.79C841.83,622.06,835.54,634,823.47,636.3Z"/><path class="cls-62" d="M823.47,636.3c10.61-7.59,20.21-16.63,31.91-22.88,2.52,5.84-1.34,12,2.68,17,4.38-3.63,9.68-2.92,14.69-2.78,6.8.18,9.91-2.56,9.74-9.5s-.3-13.81.14-20.7c.55-8.86,2.65-11.41,11.63-11.22,10.92.23,22.18-2.84,32.71,2.56,3.88-8.26,1.52-17,1.56-25.44,0-5.85-6.54-1.91-9.62-5,6.86-7.1,13.18-14.55,21.12-20.42,18.56,31.22,11,72.23-17.86,96.9C893.87,659,851.85,659.63,823.47,636.3Z"/><path class="cls-13" d="M927,588.76c-10.18.09-20.42,1-30.51,0-9.62-.87-11.81,2.79-11,11.51.73,8-.08,16.15.21,24.22.17,4.6-1.22,6.45-6,6.18-7.17-.41-14.36-.23-21.55-.31-.1-11.45-.45-22.9-.2-34.34.13-5.61-1.93-7.35-7.38-7.14-9.33.35-18.7-.06-28.05.17-4.45.12-6.26-1-6.5-6-1-21.87-1.21-21.86,20.5-21.86,21.29,0,21.29,0,21.32-21.07,0-21.68,0-21.53,21.69-20.63,4.65.19,6.38,1.46,6.22,6.23-.3,9.34.21,18.7-.19,28-.27,6.1,2.13,7.79,7.91,7.56,9.34-.36,18.7.12,28-.06,4.29-.09,5.91,1.46,5.75,5.76C926.9,574.29,927,581.53,927,588.76Z"/><path class="cls-63" d="M1005.5,576.5s18.82,17.44,21.18,56.2S1005.5,576.5,1005.5,576.5Z"/></svg>