<svg id="Layer_1" data-name="Layer 1" xmlns="http://www.w3.org/2000/svg" viewBox="0 0 1920 1080"><defs><style>.cls-1{fill:#fff;}.cls-2{fill:#fefefe;}.cls-3{fill:#e9f2f9;}.cls-4{fill:#233863;}.cls-5{fill:#3c4462;}.cls-6{fill:#444862;}.cls-7{fill:#25395f;}.cls-8{fill:#4a506a;}.cls-9{fill:#feb17d;}.cls-10{fill:#deeafa;}.cls-11{fill:#dee9fa;}.cls-12{fill:#cbdff9;}.cls-13{fill:#aec2fd;}.cls-14{fill:#fdfcfc;}.cls-15{fill:#2b468a;}.cls-16{fill:#fdfdfd;}.cls-17{fill:#2b468b;}.cls-18{fill:#fcfafa;}.cls-19{fill:#d04943;}.cls-20{fill:#b5453d;}.cls-21{fill:#d04b46;}.cls-22{fill:#2c478b;}.cls-23{fill:#fbb17f;}.cls-24{fill:#173661;}.cls-25{fill:#243964;}.cls-26{fill:#9db0f3;}.cls-27{fill:#eb9860;}.cls-28{fill:#f8ad7d;}.cls-29{fill:#f8f9fb;}.cls-30{fill:#9eb0f2;}.cls-31{fill:#f9af7d;}.cls-32{fill:#eeccd1;}.cls-33{fill:#d14c46;}.cls-34{fill:#b54b46;}.cls-35{fill:#efd4cb;}.cls-36{fill:#f9bc92;}.cls-37{fill:#d15654;}.cls-38{fill:#d05250;}.cls-39{fill:#fafafb;}.cls-40{fill:#e8f1f8;}.cls-41{fill:#caddf8;}.cls-42{fill:#adbff8;}.cls-43{fill:#fbfcfb;}.cls-44{fill:#e8f2f9;}.cls-45{fill:#e5eff6;}.cls-46{fill:#d04741;}.cls-47{fill:#fbfbfb;}.cls-48{fill:#d3e3f7;}.cls-49{fill:#f9e2da;}.cls-50{fill:#fdfdfc;}.cls-51{fill:#fcfcfc;}.cls-52{fill:#fdc198;}.cls-53{fill:#fdc29a;}.cls-54{fill:#fcc299;}.cls-55{fill:#e65c51;}.cls-56{fill:#fbb07d;}.cls-57{fill:#253963;}.cls-58{fill:#233862;}.cls-59{fill:#f2ac7d;}.cls-60{fill:#d04842;}.cls-61{fill:#d96c67;}.cls-62{fill:#d76a64;}.cls-63{fill:#eeab7b;}.cls-64{fill:#aec1fa;}.cls-65{fill:#e55c51;}.cls-66{fill:#c69c6d;}</style></defs><title>mobile3</title><rect class="cls-1" width="1920" height="1080"/><path class="cls-2" d="M735.21,961.54q-280.22,0-560.41.19c-6.74,0-7.8-1.62-7.8-8q.28-370.39,0-740.78c0-6.23.9-8,7.75-8q560.4.33,1120.81,0c6.36,0,7.35,1.45,7.35,7.48q-.29,370.85.08,741.69c0,7.47-2.67,7.45-8.29,7.44Q1015,961.46,735.21,961.54Z"/><path class="cls-3" d="M252.4,847.34c-9.1-14.4-17.53-29.09-23.73-45.09-12-30.94-15.56-62.54-10.08-95.28,3-18.06,6.53-35.88,13.72-52.89,8.76-20.68,24.2-35.56,41.55-48.79,26.6-20.27,55.59-36.92,83.88-54.62,29.32-18.34,44.94-46.55,56.3-78.07,12.49-34.67,21-71,40.77-102.73q27.38-43.78,76.32-61.83c41.43-15.26,84.32-18.82,127.89-17.74a684.27,684.27,0,0,0,91.12-3.91c25.61-2.8,51-7.51,76.53-11.21,19.58-2.84,39.17-5.35,58.92-7.2,33.25-3.13,64.74,2.21,95.62,13,27.47,9.61,53.12,23.17,75.45,41.91,16.89,14.16,28.28,32.46,34.09,53.93,6.56,24.27,10.43,49.35,19.92,72.73A185.58,185.58,0,0,0,1140,497.91c24.39,29.52,54.31,52.47,85.94,73.7,20.5,13.75,29.83,35.42,36.94,58.16a196.73,196.73,0,0,1,8.59,60.29c-.24,27.17-3.9,54.12-13,80.32-8.48,24.41-20.77,45.8-39.22,63.86-4.65,4.55-11.64,6.5-14.38,13.07a5,5,0,0,1-4,1.86c-20.79-.06-41.59,1-62.36-.55-2.35-1.35-2.56-3.61-2.57-6,2.42-18.66-.63-37.09-2.58-55.56-.75-7.67-4-15-3.56-22.83.12-1.5,0-3.28,1-4.34,8.35-9.43,6.85-20.87,5.77-31.72-2.63-26.27-5.15-52.54-10.68-78.47-3-14.08-7.61-27.09-16.47-38.49a13.62,13.62,0,0,1-.92-7.16c.77-4.5,3.44-8.24,5.07-12.4,4-10.14.91-14.72-10-15s-12.71,1-12.72,9.42c.45,8.22-.45,16.72,6.05,23.47,1.42,1.49,1.22,3.9.9,6-5.39,10.57-6.42,22.6-11.11,33.4-5,2.54-9.12-1.44-13.7-2.12-3.7-.55-7.12-2.89-11.66-2.18,4.14,8.52,14.44,10.62,17.53,19.19,0,4-2.9,6-5.88,7.12-12,4.38-23.38,10.38-35.77,13.73-3.82.45-7.5-2.05-11.8-.47,3.66,3.87,8.2,2.65,12.38,2.89a248.32,248.32,0,0,0,36.23-5c4-.85,8.38-2.28,10.91,2.86,1.47,4.73,1,9.58,1,14.41.92,18.6-1.28,37.28,1.58,55.85a51,51,0,0,0,3.08,12.19c6,24.3,8.18,48.85,5.17,73.78-3.62,6-9.28,8-15.9,8.07q-51.09.06-102.18,0c-3.3,0-6.64.35-9.88-.68-4.29-3.42-5.64-7.42-2.44-12.31,17.88-1.22,35.77-.14,53.66-.59H967.33c-6.08-1.83-5.4-7.29-6.09-11.81-3.65-23.66-1.29-47.51-2-71.26A74.53,74.53,0,0,1,963.39,727c2.37-7.23,5.42-14.16,10.32-20,18.1-21.4,23-47.29,25.31-74,.76-8.68.36-17.47.06-26.2-.33-9.48-3.53-11.77-12.57-9.35-2.3.62-4.9,2.34-6.62-.15-2-2.89.53-5,2.46-6.89,4.14-4,9.1-7,13.12-11.1,7.48-7.63,6.12-16.14-3.93-19.88-7.09-2.65-7.49-5.46-3.19-10.87,4.78-6,4.56-12.25-.44-18.1s-11-7.06-17.93-3.95c-1.1.49-2.17,1.06-3.28,1.52-2.73,1.13-5.63,3.27-8.45.94-3-2.52-2-6.09-1-9.25,4.37-14.42,8.17-29,12.59-43.39.8-2.59,1.74-5.18,1.7-7.92-.08-5.54-3.38-8.85-8.13-10.89-4.49-1.93-8.24-.37-11.43,3s-4.8,7.6-6.52,11.79c-12.47,30.39-23.73,61.23-34.4,92.29-1.07,3.13-1.91,6.36-3.64,9.23-1.43,2.37-3.19,3.7-5.76,1.26-3.06-4-2.27-8.63-2.28-13.06q-.11-58.66-.05-117.34c0-4.2.31-8.43-1.24-12.47-5.28-15.7-12.85-21.46-29.24-21.6-22.6-.18-45.19,0-67.79-.07-14.07-.05-14.75-.46-16.14-14.18-.6-5.95-3.56-7.56-8.86-7.52q-17.18.09-34.35,0c-4.2,0-8.45.32-12.52-1.13-4-1.88-4.91-6.7-8.55-9-1.79-1.12-3.66-2.5-5.79-1.55-2.51,1.13-1.62,3.58-1.43,5.56.48,5.05.61,10.13,1.5,15.16.67,3.79,1.32,7.77-2,10.91a13.45,13.45,0,0,1-11.65.18c-3.69-2.84-3-7-3.06-10.82-.19-8.13-.08-16.27-.07-24.41,0-5-1.72-8.69-6.35-11a246.86,246.86,0,0,0-56.16-20.07c-2-.47-4.46-1.23-5.92.76s-.16,4.1.82,5.94c4.39,8.25,8.49,16.65,12.51,25.09,1.16,2.45,2.53,4.81,3.46,7.36,1.68,4.59,3.82,10-.76,13.37-5.23,3.81-8.86-1.48-12.12-4.72-11-10.87-21.13-22.66-28.56-36.09-9.46-17.08-23.65-20.33-41.19-18.16-36.34,4.51-42.49,31-34.8,59.74,2.31,8.61,9.08,13.53,18.54,15.13,13.77,2.34,27.79.61,41.49,3.35,5.23,1,12.41.26,13.5,6.67,1.22,7.22-6.18,8.7-11.35,10.69a83.83,83.83,0,0,1-31,5.64c-10.61-.06-11,1-6.35,10.79s11.1,18,18.17,25.81c7.8,8.66,17.65,12.26,29.39,10.56,4-.58,8.43-2.43,11.63,2.07,2.22,10.46,1.89,20.93.31,31.41-2.26,4.42-5.62,2-8.63,1.28-12.59-3.09-25.19-6.17-38.09-7.67-2.85-.33-6.71-1.36-8.38,1.57s1.64,5.42,3.27,7.78c3.24,4.71,7.19,8.95,10,13.91,2.18,3.79,5.85,8.27,1.67,12.25s-8.4.28-12.06-2.34c-9.38-6.72-16.76-15.57-25-23.53-11.19-10.86-33-9.56-45.5,2.86-8.79,8.75-7.85,32.23,1.61,41.86,4.87,5,11.11,4.47,17,3.8,8.71-1,17.38-1.95,26.15-1.48,3.62.19,8,0,9.1,4.29s-2.57,6.47-5.58,8.43a57,57,0,0,1-21.76,8.52c-6.08,1-6.73,4-3.23,8.73,6.27,8.41,14.4,14.55,23.69,19.14,4.92,2.42,10,1.16,15-.56,8.43-2.92,15.32-8.3,22.18-13.76,7.48-6,15.62-10.36,25.65-9.37,4.39.44,8.63,1.23,8.52,7.12-1,2.92-3.14,4.57-5.86,5.66-6.35,1.58-12.92,2.25-19.15,4.4a37.72,37.72,0,0,0-14.48,8.63c-9.26,9.15-8.76,11.68,3.14,16.28,1.74.67,3.26,1.49,3.7,3.5a5.29,5.29,0,0,1-.45,2.69c-5,6.51-12.8,8.83-19.42,12.86-6.2,3.78-12.07,8-18,12.11-1.88,1.3-4.78,2.56-4,5.4s3.93,2.21,6.19,2.74c10.57,2.47,21.14,5,31.49,8.29a40.77,40.77,0,0,1,7.5,3.15c3,1.66,6.06,3.66,5.25,7.56s-4.39,4.81-7.73,5.13a140.43,140.43,0,0,1-28,.14c-10.19-1.09-20.5-.85-30.59-2.8-7.42-1.44-13.18.75-18.83,6-11.72,10.82-19.6,23.44-22,39.28-2.37,2.95-3.08,6.39-3.1,10.07-.13,23.59.21,47.18-.1,70.76,0,2.59-.56,5.55,2.75,6.88a33.42,33.42,0,0,0,5.35.66c10.89.56,11.88-.42,12.16-11,.17-6.82-.89-13.73,1.23-20.44,3.94-6.14.73-13.83,4.36-20,6.12-2.71,11,.24,15.81,3.43,4.51,11,.52,22.49,1.8,33.68.5,4.32-1.42,9,2,12.87,6.43,3,13,2.16,19.5.52,5.47-8.27,2.28-17.38,2.1-26A343.63,343.63,0,0,1,543,764.93c6.17-9.06,14.24-16.24,23-22.71,2.68-2,5.76-4.07,9-1.57,3,2.3,2.81,6,2,9.19-3.29,13.42-10.29,25-19.09,35.43-4.86,5.78-4.67,7.24,3.13,8.41,8.32,1.25,16.65,2.73,25.15,2.7,3.84,0,8-.42,10.74,3.35,4.46,14.38,3.69,29.24,4.14,44a5.93,5.93,0,0,1-2.37,4.63c-2.85,1.41-5.92,1-8.91,1q-96,0-191.9.06c-7.91,0-15.13-1-19.31-8.84-4.18-15.69-8.41-31.33-9.19-47.75-.83-17.61-6.84-34.2-11.72-51a18,18,0,0,1-.3-4.52c.48-4.48-.41-8.94-.24-13.4.31-8.26,5.5-13.87,13.55-15.36,8.94-1.66,9.62,6.23,13.14,10.88,5.16,15.28,14.67,27.41,27.22,37.34,2.43,1.93,4.34,4.16,4.9,7.31.92,6.51,3.77,11.87,10.76,12.74s11.26-3.53,13.86-9.45c10.65-24.22,20.79-48.65,30.74-73.15,1.59-3.92.46-6.41-3.27-7.91-16.84-6.76-16.21-9.23-23,7.8-3.8,9.5-7.21,19.16-11.61,28.41-2.28,4.81-3.48,10.39-8.62,13.4-8.51-4-13.62-11-16.62-19.65a75,75,0,0,1-2.62-9.47c-.21-4.31-1.25-8.58-.74-12.93,1.4-6.68,4-13.39-.58-19.9,2.17-5.8,9.45-6.93,11.63-12.72,4.47-9-1.48-24.34-10.82-27.76-5.58-2-13.82,1.91-13.39,8.19.84,12.53-6.16,20.52-13.13,29-10.25,7.12-22.81,8.75-33.78,14.29-17.63,8.91-32.62,20.27-40.33,39.17-3.71,9.09-6.1,18.23.82,27.07-.84,16.24,1,32.73-8,47.84-5.28,8.86-6.28,19.23-5.91,29.57a39.91,39.91,0,0,1-.73,10.73c-1.94,7.48-6.51,11.1-14.47,10S260,851.49,252.4,847.34Z"/><path class="cls-4" d="M680.44,850.89H649.68a10.7,10.7,0,0,1-4.49-3.49c-10.38-19.51-16-40.54-19.48-62.16-.76-4.68-1.86-9.37-2.07-14.16-.2-5.78.34-11.4,3.35-16.53,6.27-8.22,3.41-17.78,3.58-26.76.16-8,2.52-13.22,11.18-14,3.58-.5,7.23-2.46,10.66.43,3.23,10.8,3.92,21.87,3.49,33,0,1.56.17,3.13,0,4.69,1.32,11.13,1.59,22.35,2.7,33.49,1.6,15.73,3.28,31.46,6.34,47,1.19,6,3.76,10.62,9.67,12.94C676.76,847,680.36,847.12,680.44,850.89Z"/><path class="cls-5" d="M647.77,847.37l1.91,3.51c-32.6.1-65.19.27-97.78.28q-158,.06-316,0h-9.37l-.05-2.46c8.46-2.43,17.4,0,26-1.37,7.14.12,14.35-.3,21.41.5,7.9.91,13-1.43,15.09-9.29,3.16-1.36,5.94-.13,8.72,1.21a29,29,0,0,0,17,5.17q22.14,0,44.29,0c4.35,0,8.45-.5,11.48-4.08,2.7-2.76,5.54-5.05,9.63-2.53,3.39,7.21,9.68,9.35,17,9.35q101,0,202-.14c5.43-7.08,12.39-4,19.07-2.92C628,846,638.25,842.54,647.77,847.37Z"/><path class="cls-6" d="M680.44,850.89l-5.35-3c2.62-3.25,6.4-3.2,10-3.2,60.71,0,121.42-.42,182.12.16,29.88-.52,59.76-.15,89.63-.19,3.64,0,7.28.18,10.29,2.68l114.42.52c1.29.6,2.23,1.4,1.75,3q-97.75.17-195.53.33-100,.07-200.08,0C685.26,851.18,682.85,851,680.44,850.89Z"/><path class="cls-7" d="M1083.27,850.87l-1.75-3,12.71-5.76c3.72-5.75,8.13-2.88,12.46-1,3,3.83,6.73,4.38,11.1,2.38,2.7-1.23,5.29-2.76,8.26-3.39,4.06.54,9.33-4.52,12,2.57l-.18,4.59c.64,2.75,5.66-.67,5.17,3.66Z"/><path class="cls-8" d="M1143,850.88c-1.16-2-4.61-.8-5.17-3.66l67,.09h28.7l-.09,3.57Z"/><path class="cls-9" d="M967.1,847.33,867,847.27c-5.18-13.5-2-18.35,12.34-18.49,7.2-.07,14.62.9,21.26-2.72,9.3-5.08,15-12.45,15.2-23.69.14-8-1.88-16.22,1.9-23.94,3.14-2.39,6.82-2.24,10.47-2.19,2.08,0,4.18-.11,6.27,0,6.23.36,10.53-1.16,10.3-8.73s-1.81-9.4-10.48-9.69c-2.09-.07-4.18,0-6.29,0-8.26.27-16.5.24-24.73,0a59.8,59.8,0,0,1-6.28,0c-6.54-.2-9,3-9,9.39,0,6.52,2.67,9.42,9.15,9.06,2.39-.13,4.79-.06,7.21,0,2.68,0,5.25.44,7.32,2.36,2.7,12.16,4.29,24.57-2.16,35.84-6.89,12-23.27,15.62-40.42,10.15-2.42-2.81-2.13-6.12-1.69-9.43,2.79-21.16,5-42.4,8.18-63.5a103.13,103.13,0,0,1,.39-11.12,112.54,112.54,0,0,0-3.22-59.55c-9.59-29.28-13.81-59.43-14.07-90.62-.22-24.82-2.35-49.85-4.32-74.74-.48-6.08-1.25-12.41,6.33-15.11,6.08-2.17,12.3.54,16.3,8.11A95.52,95.52,0,0,1,888,544.78a36.5,36.5,0,0,0,3.21,13c.69.54,1.33,1.15,2,1.75,2.56,4.42.12,9.52,1.86,14.07,1.11,2.89,0,6.77,3.74,8.45,2.18-1.55,2.33-4.7,4.82-5.95,7-14.35,11.13-29.75,16.39-44.73,8-22.73,17-45.07,26.36-67.21,5.26-12.38,17-14,25.07-4.4,3.53,4.21,3.43,8.65,1.95,13.57-4.59,15.25-9,30.54-13.49,45.83-.89,3.06-2.87,6.07-.62,10.3,11.3-7.25,22.81-13,32.69,1.82,4.85,7.26,3.52,13.43-5.65,24.27,2.74.54,5.34.68,7.65,1.57,9.88,3.8,12.19,15,4.62,22.85-2.9,3-6.49,5.35-9.7,8.08-3.06,2.59-6,5.28-10.69,9.4,21.51-6.73,23.32-5.14,23.72,16.26.43,23.37-2.35,46.14-10.65,68.16-3.22,8.56-7.27,16.56-13.17,23.5-11.26,13.23-16.14,28.71-16.36,45.75-.32,23.77-1.55,47.58,1.73,71.27.57,4.15,1.32,8.29,2,12.43.56.43.77.87.61,1.33s-.33.7-.51.7Q966.35,842.09,967.1,847.33Z"/><path class="cls-10" d="M611.57,485.64c-10.63,1-21.29,4.55-31.57-2.08-16.22-10.47-25.14-26.4-32.51-43.27-2.27-5.19,3.11-5.41,6.66-5.24a88.68,88.68,0,0,0,37.19-5.7c4-1.58,10.57-2.56,9.63-7.78-.79-4.43-7.18-3.86-11.52-4.75-13.62-2.77-27.52-1.43-41.28-3.07-12.64-1.51-20.2-8.4-22.44-18.91-6.63-31.21.17-59.57,43.69-61.15,4.22-.16,8.47.2,12.68-.07,7.46-.5,12.46,3,16.71,8.76,11.9,16.16,22.61,33.28,37.27,47.26,2.39,2.28,4.74,7.38,8.58,4.43,3.2-2.47,1.67-7.26-.12-10.88-5.88-11.84-11.86-23.63-17.7-35.49-1-2-3.15-4.11-1.28-6.62s4.88-2.32,7.49-1.69c21.72,5.25,42.79,12.31,62.7,22.61,3.87,2,4.83,4.8,4.79,8.76-.14,12.36-.06,24.71-.06,37.06-3.42,3.39-7.84,2.7-12,2.73-14.79.14-29.58,0-44.36.08-21.44.19-29.34,8.06-29.74,29.66-.21,11.44.05,22.88-.1,34.32C614.26,478.45,614.77,482.53,611.57,485.64Z"/><path class="cls-11" d="M608,601.42c-3.33-5.87-10.76-7.19-19.29-3.94-7.8,3-13.49,8.91-20.14,13.5-1.72,1.19-3.33,2.59-5.14,3.61-19.75,11.08-45.53,1.61-55-19.94-2.28-5.16,1.12-5.66,4.43-6.34,8.28-1.71,16.39-3.8,23.72-8.22,2.85-1.72,7-3.52,6.46-6.75-.72-4.28-5.42-2.24-8.47-2.62-10.59-1.3-20.92,1.81-31.47,1.89-7.93.07-12.82-3.27-16.43-10.23a39.73,39.73,0,0,1-4.48-24.18c2.77-18.62,27.56-32.8,45.8-26.82,2.4.79,4.39,3,6.36,4.86,10.16,9.39,18.88,20.29,30.26,28.42,2.35,1.68,4.76,3.56,7.3,1.85,3.22-2.16.81-5.13-.53-7.13-4.84-7.21-10-14.23-15.16-21.2-1.5-2-3.13-3.9-2.26-6.47,1.2-3.54,4.47-2.6,7-2.47,17.46,1,34.5,4,50.71,10.81,3.95,4.3,2.55,9.64,2.82,14.63.34,6.22-.47,12.51.9,20.2,3.27-4.19,2.49-7.74,2.5-11,.09-32.48-.11-65,.21-97.44,0-4-2.28-10,5-11.22,2.05,2.5,2.29,5.52,2.3,8.52.11,36.86.26,73.72-.07,110.59a18.64,18.64,0,0,1-.64,4.41c-1,3.94-4.16,5-7.62,5.1-16.31.63-18.54,14.71-9.26,25.75,1.74,2.07,3.86,3.84,5,6.4a6,6,0,0,1-.66,5.56A3.25,3.25,0,0,1,608,601.42Z"/><path class="cls-12" d="M595.23,798.71a149.1,149.1,0,0,1-38.38-3.55c-2.88-.67-6.7-1.22-7.38-4.33-.65-3,3.38-3.63,5.11-5.5,9.92-10.74,17.09-23.1,20.59-37.36.51-2.08,1.14-5.09-1.58-6.48s-4.19,1.36-6.16,2.54c-8.92,5.33-14.46,14.42-22.91,20.24-3.62-3.68-2.68-8.41-2.71-12.78,0-5.71-2.59-8.23-8.23-8-2.4.11-4.81.09-7.21,0-5.66-.21-8.2,2.45-8.17,8.09,0,6.88.11,13.78-.08,20.66-.1,3.54.3,7.29-2.72,10.07-5.18.32-9.46-2.91-14.38-3.63-5-6.69-2.46-14.42-2.72-21.67-.45-12.62-.16-12.62-12.61-13.59-3-.23-6-.2-8.26-2.72-1.41-21.63,14.1-33.29,27.65-45.86,3.09-2.87,8.25-1.47,12.31-.93a348.54,348.54,0,0,0,53.81,3.42c1.51,0,3,0,4.52,0,3-.1,6.86-.22,7.58-3.44.77-3.47-2.83-4.61-5.69-5.73-12.87-5-26.23-8.25-39.79-10.74-3.18-.58-7.63-.42-8.55-3.56-1-3.37,3.18-5.47,5.62-7.39,12.54-9.86,26.91-16.85,40.39-25.25,2.79,4,.73,8.12.14,12.14-1.69,11.62-3.45,23,11.21,28.37,3.9,1.42,3.92,5.79,3.92,9.38,0,10.76.43,21.5-1,32.28-1.43,10.6-2.7,21.55,5.76,30.47,1.19,11.28,3.06,22.51,2.75,33.9C597.94,791.6,598.42,795.64,595.23,798.71Z"/><path class="cls-13" d="M1083.41,684.69c-8.35-2.23-15.86,2.89-23.93,2.74-7.86-.15-15.48,4.44-23.47,1.13a4,4,0,0,1,0-5.45c11.66-4.42,23.38-8.69,34.93-13.37,2.83-1.15,6.22-2.57,6.63-6.54,1.24-5.46,2.26-11,7.38-14.53q2.7-10.27,5.42-20.54c1.16-4.37,2.6-8.62,5.56-12.17,4.14-4,8.58-7.2,14.84-5.53,10.31,9.82,14.15,22.56,17,36a552,552,0,0,1,11.76,96.26c.18,6,.91,12-5.62,15.92-1.31.78-1.31,3.78-1.91,5.76-7-.49-12.9,3.24-19.44,4.56-7.88,1.65-15.74,3.21-23.47-.6-6.94-6.94-4.86-16.22-5.45-24.38-1.08-14.85-.34-29.84-.36-44.77,12-10.17,22.57-21.31,27.54-37.52C1102.21,670.76,1093.58,678.65,1083.41,684.69Z"/><path class="cls-14" d="M622.09,435.07c-2.41,2.9-1.39,6.35-1.4,9.56-.07,35.17,0,70.35-.16,105.53,0,3.52,2.65,9.6-4.58,9.38s-4.06-6.22-4.21-9.73c-.4-9.9-.15-19.84-.16-29.76q0-17.2,0-34.41c0-16-.05-31.92,0-47.89.14-20.08,10-29.86,30-29.89q29.43,0,58.88,0h12.73c7.27-2.37,11.55-6.57,10.42-15-.34-2.52-.37-6.35,4-6.7,16.88,0,33.75.27,50.62-.1,6.74-.15,9.74,1.28,9.45,8.88-.55,14-1.94,12.94,13,13,24.11,0,48.22.53,72.31-.2,12.42-.37,27.18,12.9,27,23.73,1.61,2.8.84,5.87.84,8.81.06,40.19.12,80.39,0,120.58,0,8-.18,16.1-.91,24.13-3.47,3.06-4.45.48-5.22-2.35-2-7.32-3.66-14.68-2.08-22.34-2.81-4.31-2.41-9.19-2.41-14q0-48.65,0-97.28c0-4.18.43-8.44-1.64-12.35-4.71-12.29-13.75-17.08-26.79-17q-104.92.33-209.86,0c-10.38,0-19,2.7-25.11,11.44A9.58,9.58,0,0,1,622.09,435.07Z"/><path class="cls-13" d="M593.52,753.49c-13.38-8.17-6.95-21-6.32-31.59.68-11.4.28-22.76.74-34.13.07-1.8,0-4.2-2.21-4.36-6.05-.42-10.17-3.29-12.59-8.68-2.71-6-1.6-12.45-1.07-18.65.43-5,2.09-9.9,3.21-14.85a16.37,16.37,0,0,0,.1-1.72c.2-8.61,4-16.07,7.7-23.52,4-8,12.22-8.64,19.51-10.88l5.37-3.69,3.3.13c3.89,2,4.24,6.1,5.82,9.48,3.61,11.06,5.53,22.49,7.63,33.88a94.87,94.87,0,0,1-3.54,21.81,34.45,34.45,0,0,0-1.66,11.09c.64,6.27-4.27,13.17-.88,18.34,3.49,5.33,11.26,1.1,16.88,2.91a5.87,5.87,0,0,1,3.6,2.43c-5.64,8-5.62,8.09,3.24,14.21-8.56.5-10.05,5.55-9.28,13.06.67,6.52-.05,13.17.15,19.75.11,4-1.3,6.29-5.28,6.93C616.18,759.79,604.7,759.32,593.52,753.49Z"/><path class="cls-13" d="M383.13,721.16c-1.21-1.27-2.78-2.36-3.58-3.85-2-3.76-2.42-9-9.21-6.46-6,2.25-10.69,4.61-11,12.19-.23,4.92,3.47,9.91-.17,14.73a94.52,94.52,0,0,1-27.5,12.55c-9.45,2-18.9,4.3-28.26-.32-5.53-3.65-6.27-8.38-4.85-14.75,5.84-26.09,23-41.84,46.24-52.68,10.67-5,21.88-8.35,32.87-12.38,4.25-3.26,9.36-4.14,14.44-5.12,7.83,1.08,8.39,7.89,10.63,13.39,2.05,4.92,3.67,10,3.86,15.35-1.16,3.91,3.23,7.74.14,11.67-.64,4.29-4.81,4.84-7.42,7C394.24,716,391.93,724.65,383.13,721.16Z"/><path class="cls-15" d="M593.52,753.49c11.45,1.17,22.85,3.1,34.42,2l-2,16.62c.23,20.94-4.33,41.37-6.72,62-.54,4.64-.53,9.66-4.18,13.43-5.32-4.22-10.65-1.56-16,0-1-16.29-1.43-32.63-3.79-48.82Z"/><path class="cls-16" d="M477.43,740.73c23.52.13,23.51.13,23.52,23.51,0,4.82.05,9.65.07,14.47q0,7-.08,14c0,2.67.23,5.47-3.51,5.93-2.89,2.62-6.52,2.9-10.08,2.67-7.17-.48-9.15,3.06-9.21,9.66s1.92,13.7-2.39,19.89c-4.23,2.11-3.71-1.6-3.71-3.44-.13-27.18-.05-54.36-.14-81.54C471.88,741.88,473.87,740.62,477.43,740.73Z"/><path class="cls-16" d="M515.4,782.34c0-11.36.31-22.72-.06-34.07-.19-6,2-7.56,7.8-7.64,21.16-.29,21.16-.48,21.38,23.64q0,29.78,0,59.55c0,5.32-.08,5.32-3.77,7.13-5.14-9.37-1.66-19.5-2.53-29.24-.43-4.8-.52-9.08-7-9.3-5.78-.19-9.34,1.41-9.27,8s.12,13.27-.08,19.9c-.11,3.83.52,8-2.86,11-4.94-1-3.35-5-3.38-7.94C515.37,809.65,515.42,796,515.4,782.34Z"/><path class="cls-15" d="M303.38,750c10.19-.37,20.48.44,30.45-2.58,1.91,2.34,1.26,4.8.33,7.28-8,27.46-25,51.09-33.67,78.26-.9,2.82-1.68,5.82-4.66,7.39a11.54,11.54,0,0,1-6.93-1.8c-1.19-17.74,1-34.44,10.42-50.35,5-8.45,1.36-19.5,3.53-29.19C303.49,756.11,303.23,753,303.38,750Z"/><path class="cls-15" d="M1089.06,768.33c8.38-.53,16.83,0,25.1-1.86,3.87,2.79,4.33,6.95,4.31,11.17,0,8.92.4,17.82.47,26.73-4.32,8.88-3.25,18.85-5.7,28.11-1,3.82-.57,8.76-6.22,9.7-4.27.41-8.51-3.54-12.79-.09,1.24-22.74.1-45.3-5.09-67.58C1088.68,772.55,1089.07,770.4,1089.06,768.33Z"/><path class="cls-17" d="M380,838.32c-3.35-.37-5.73,1.22-7.63,3.75-11.25-11.94-18.21-25.83-18.88-42.4-.22-5.72-3-10.22-5.66-14.88-2.36-4.11-5.65-7.83-5.51-13,4.84-9.19,12.05-17.23,13.42-28.12.2-1.62,1.21-3.51,3.68-2.9,6.65,17.8,11.79,35.9,12.43,55.09C372.35,810.39,377.57,824.11,380,838.32Z"/><path class="cls-18" d="M424.78,735.28c8.19-15.41,13.89-31.88,20.49-48,4.39-10.66,5.27-11.07,15.62-6.31,15.46,7.1,15.37,7.06,9.06,22.21-8.26,19.8-16.33,39.68-24.53,59.5-1,2.5-2.33,4.89-3.59,7.29-3.31,6.34-8.36,10.69-15.71,9.28-8-1.55-12.25-7.09-12-15.54,4.06.1,4.79,3.73,6.56,6.21,2.39,3.35,5.05,5.74,9.43,3.32,4-2.07,6.12-5.73,7.82-9.6,7.84-17.87,15.21-35.93,22.9-53.86.7-1.64,1.39-3.34.94-5.18-5.73-2.14-11.35-2.48-16.83.6-8,14.11-13.17,29.42-19.71,44.13-1.56,3.52-2.45,7.43-5.85,9.87-2.44.14-3.07-1.56-3.54-3.44-.34-5.27,2.39-9.55,4.57-14A13.38,13.38,0,0,1,424.78,735.28Z"/><path class="cls-19" d="M518.91,831.24c0-11.69.33-23.38,0-35.06-.15-5.38,1.24-7.31,7-7.15,17.86.53,14.23-1.46,14.58,14.06.21,9.28.17,18.57.24,27.86C533.47,833.65,526.21,833.48,518.91,831.24Z"/><path class="cls-20" d="M393.12,666a30.43,30.43,0,0,1-15.48,4.24c-.33-2.86.05-6,2.71-7.17,8.4-3.72,8.25-10.72,7.91-18.12-.31-6.77,2.75-11.75,9.29-13.9,6.37-2.09,10.52-.45,14.84,5.83,9.38,13.62,10.93,17.61,4.8,26.1-4.27-.89-1.94-4-2.15-5.85C407.11,658.29,399.26,660.12,393.12,666Z"/><path class="cls-21" d="M475.75,830.88c.09-8.64.46-17.29.14-25.91-.2-5.58,1.87-7.54,7.28-7,4.73.47,9.51.48,14.26.69,0,8.65-.37,17.31.07,25.93.3,6-1.29,9-7.83,8.14C485,832.08,480.06,834,475.75,830.88Z"/><path class="cls-22" d="M1138,842.63c-4.18-3.75-8.7,1-13-.54-5.15-7.93-5.45-17.14-6.87-26.06,3.08-9.74,9.15-18,13.25-27.31.7-1.58,2-3,4.19-2.67C1138.3,804.83,1141.46,823.59,1138,842.63Z"/><path class="cls-4" d="M1135.61,786.05l-15.78,28.89c-3.46-2.27-4.65-5.11-2.25-8.85-2.53-8.41-1.64-17.05-1.61-25.61a43.57,43.57,0,0,0-1.81-14c4.21-1.5,8.61-2.62,12.55-4.63,3.49-1.79,4,.65,5.26,2.53Q1133.79,775.2,1135.61,786.05Z"/><path class="cls-23" d="M417.32,755.68a3,3,0,0,0,1.83,3.07c8.12,2.59,7.76,10.77,11,16.58-6.21,3.62-9.43-.57-11.89-5.06-1.26-2.28-1.57-5-4.12-6.52-4.25-6.62-10.84-11-16.25-16.49-7.33-7.46-12.7-15.79-14.75-26.1,7-.42,10.44-5.78,14.39-10.41,2.64,6.84,4.12,14,6.9,20.84C408.18,739.91,415.12,746.54,417.32,755.68Z"/><path class="cls-24" d="M1089,585.72c-3.84-6.06-1.38-9.39,4.82-11.11a5.58,5.58,0,0,1,.88-.2c7.85-.87,17-2.63,22,4.16,4.63,6.28-.47,13.7-3.74,20.11-.82,1.6-1.88,3.06-2.83,4.59-2.88,5.14-7.26,4.62-10.18,1.1C1095.35,598.85,1089.16,593.94,1089,585.72Z"/><path class="cls-11" d="M602.59,605.11c-18.66,3.92-20.78,20.86-27.21,34.4-2.36-3.16-6.15-1.6-9.2-2.67-7.84-2.76-8.75-5.31-4-12.27A39.71,39.71,0,0,1,585.9,608C591.36,606.66,597,606.06,602.59,605.11Z"/><path class="cls-25" d="M359.44,740.77c-3.84,7.83-3.71,17.25-10.1,24.16-2,2.13-3.22,5-5.88,6.58-6.39-4.2-10.61-9.57-9.62-17.75a8.93,8.93,0,0,1,0-6.34c9.14-1.38,15.88-9,25.31-9.65Z"/><path class="cls-26" d="M1083.41,684.69c8-11.14,22-16.09,29.09-30.82,2,7.47-.65,11.34-2.07,15.27-4.2,11.57-13.45,19.52-21.27,28.47-1.52,1.74-3.79,1.57-5.91,1.57Q1083.32,691.94,1083.41,684.69Z"/><path class="cls-10" d="M727.68,386.11c-2.92,2.66-1.69,6.17-1.74,9.33-.18,12.43-.11,12.43-12.73,12.38-.85-8.84-1.57-17.7-2.61-26.52-.31-2.59-2.24-5.42.85-7.18,2.42-1.38,5.25-.76,7.74.6C723.76,377.22,728.06,379.93,727.68,386.11Z"/><path class="cls-27" d="M402.43,731.56c-2.17-6.81-6.72-13.07-4.91-20.81l9.19-5.27c3.35,11.55,8.13,22.23,18.07,29.8-.64,2.36-1.27,4.73-1.91,7.09-5.93,3.37-9.12-2.12-13.27-4.23C406.69,736.67,404.77,733.82,402.43,731.56Z"/><path class="cls-28" d="M393.12,666c3-12.79,16.2-6.85,23.08-12.56,3.84,2.83-2.23,6.67,1,9.54a24.57,24.57,0,0,1-12.44,10.42c-.68,2.35-1.49,4.59-4.12,5.47C398.89,674.09,397.81,669,393.12,666Z"/><path class="cls-29" d="M899.94,584.9c-1.9-3-2-6.29-1.69-9.59,4-47.93.72-96,1.79-143.93,3,2.68,1.74,6.22,1.75,9.38q.12,62,.07,123.89c0,3.9-.47,7.87,1.78,11.42C903.14,579.32,902.58,582.54,899.94,584.9Z"/><path class="cls-30" d="M1085,648.67c-2.38,4.89-3,10.67-7.38,14.53-5.86-5.11-11.78-10.14-17.54-15.37-1.35-1.23-4-2.51-2.16-5,1.4-1.87,3.81-1.83,5.84-1.19C1070.84,643.87,1077.89,646.3,1085,648.67Z"/><path class="cls-31" d="M1089,585.72c1.07,8,11.51,9.41,12.54,18.14.34,2.88,5.68.84,8.62-.59q.31,3.59.65,7.16L1096,616c-.13-1.78.43-4.53-.49-5.18C1086,604.19,1089,594.6,1089,585.72Z"/><path class="cls-32" d="M1050.94,803.84V692.31h.88V803.74Z"/><path class="cls-33" d="M1050.74,630.42c3.53.26,7.86-1.3,7.38,4.86-.35,4.59-2.4,7.6-7,7.63-5,0-7.47-3.07-7.71-8C1043.1,628.48,1048,631.1,1050.74,630.42Z"/><path class="cls-34" d="M400.63,678.82c.53-2.45,1-5,4.12-5.46,9.66,6,3.34,13.44,1.82,20.45C403.36,689.3,402.56,683.84,400.63,678.82Z"/><path class="cls-35" d="M965.58,836.82c0-.67-.07-1.35-.1-2h55.72v2Z"/><path class="cls-36" d="M1036,683.11c0,1.82,0,3.63,0,5.45-6.24,3.24-10.42-1-15.92-4.19C1025.71,679.91,1030.82,680.94,1036,683.11Z"/><path class="cls-37" d="M522,837.51c5.68-1.73,9.82-1,15.55-.75C531.82,841.59,527.68,841.12,522,837.51Z"/><path class="cls-38" d="M495,837c-6.34,4.41-10.39,4.14-15.5.3C484.58,835.88,488.61,836.36,495,837Z"/><path class="cls-3" d="M918.64,779c-.07,7.17-.1,14.35-.22,21.53-.33,19.12-11.92,30.68-30.92,30.88h-3.6c-16,0-16,0-16.91,15.89q-54.32.19-108.62.39-41.64.14-83.28.22c-8.23-1.49-11.7-6.43-12.76-14.72-2-15.51-5.32-30.84-5.67-46.54-1.66-4.84,1.86-7.12,4.8-9.65a94.55,94.55,0,0,0,18.1-21.16c-5.77-1.83-13,3.7-17.26-4,5.19-4.52,11.6-3.3,17.29-2.61,15.63,1.89,31.28,1.29,46.93,1.62,10.34.21,11.74,1.35,13.53,11.68,1.31,7.55,2.4,14.66,10.88,18.22,5.45,2.29,2.16,8,3.09,11.78.8-4.65-1.21-9.73,0-14.8,4.75-1.83,4.52,2.09,4.83,4.56.67,5.34.27,10.74.29,16.12.08,16.64,3.17,21.17,18.88,27.48,2.57,1.15,5.32,1,8,1q50.26,0,100.51,0c6.53,0,12.62-1.18,17.49-5.94.69-.75,1.4-1.48,2.12-2.2,6-5,7.36-11.73,7.8-19,.41-7-1.75-14.22,1.92-20.91A2.18,2.18,0,0,1,918.64,779Z"/><path class="cls-39" d="M754.92,777.47v22.15c-2.66-3.75-1.86-6.59-1.73-9.11.24-4.73-.43-7.87-6.2-8.79-5.32-.84-7.78-5.16-8.4-10.47-.49-4.15-1.51-8.26-1.74-12.42-.21-3.75-1.61-5.53-5.47-5.38-21.41.85-42.74-1-64.1-1.79-1.85-.07-3.63.16-4.92,1.73-3.56,2.64-6.55,2.44-8.7-1.78l0-3.44c3.93-3.09,8.37-5.29,12.81-7.54,23.32-1.79,46.66-.75,70-.57a9.68,9.68,0,0,1,8.46,4.29c3,6.2.79,12.95,2,19.32a18,18,0,0,0,6.9,11.58A4.61,4.61,0,0,1,754.92,777.47Z"/><path class="cls-40" d="M615,847.52c3.14-25.22,5.74-50.53,10.9-75.46a272.21,272.21,0,0,0,16.92,65.82c1.29,3.31,3.28,6.33,4.95,9.49Z"/><path class="cls-41" d="M653.66,751.61c2.63,1.91,5.65,1.94,8.7,1.78h21.1c-5.56,11.06-13.1,19.2-21.7,26.37-2.39,2-4.73,3.56-5.1,6.85C654.43,775.05,654.33,763.3,653.66,751.61Z"/><path class="cls-42" d="M664.16,742.67c-1.5,5.65-6.26,5.09-10.52,5.5q-1.11-17-2.24-34.08c-3-3.64-2.71-7.44-.56-11.34,2.48-2.07,5.14-2.14,7.92-.67A89.54,89.54,0,0,1,664.16,742.67Z"/><path class="cls-43" d="M651.4,703.07v11l-9,1.61c-3.34-1.21-8.17,1.91-9.55-5-1.23-6.12.07-8.24,6-8.19C643.1,699.56,647.33,699.42,651.4,703.07Z"/><path class="cls-44" d="M333.84,753.76a94.28,94.28,0,0,0,9.62,17.75c.92,1.85,1.77,3.74,2.76,5.55,5,9,10.28,17.49,10.51,28.75.21,10.06,5.17,19.45,11.54,27.65,2,2.54,4.51,4.91,4.12,8.61-1.57,3.81-3.66,5.91-8.55,5.79-17.17-.42-34.36-.08-51.54-.22-6.44,0-12.5-1.44-16.47-7.29,5.92-17.2,11.29-34.55,21.35-50.1,5.85-9,8.58-19.66,12.14-29.81C330.15,758.05,329.28,753.87,333.84,753.76Z"/><path class="cls-45" d="M1117.58,806.09l2.25,8.85q2.61,13.57,5.21,27.16a33.21,33.21,0,0,1-13,5.53c-4.82,1-5.61-1.57-5.06-5.45,6-9.77,4.58-21.2,7.18-31.73C1114.59,808.86,1112.07,804,1117.58,806.09Z"/><path class="cls-46" d="M664.16,742.67c-3-13-4.07-26.34-5.75-39.56-1.78-11.18,2.05-21.58,4.45-32.18.47-1.76,1.12-3.45,1.75-5.16,1.15-5.34,4.34-8.84,9.3-11.19,9.37-4.44,16.51-13,27.3-14.86,3.57.11,6.06,2.43,8.78,4.28,32.32,21.92,71.62,19.69,103-5.83,26.51-21.55,35.73-61.59,22-95.48-1.46-3.61-3.63-7-3.93-11-.16-3.21,1.41-5.72,3.31-8.11,18.5-23.27,35.82-47.33,49.68-73.71,1.11-2.1,2.11-4.43,4.4-5.54,3.43-1.68,3.28.86,3.38,3.05q0,51.3,0,102.56c0,3.27.52,6.59-.53,9.82-4.75-3.54-5.4-8.71-5.81-14.07-1-13.09-5.34-25.22-11.26-36.81a15.75,15.75,0,0,0-4.58-5.5c-5.71-4.13-13.54-.81-12.8,5.9,2.55,23.33,0,46.94,4.1,70.17a39.55,39.55,0,0,1,.92,9.84c-2.62,34,5.1,66.43,15.47,98.17,5.92,18.1,4.5,35.39.93,53.18-3.64,4.54-8.72,4.69-13.9,4.54-29.54,0-59.07-.18-88.58.11-7.78,2-5.43,8.4-5.59,13.39-.24,7.88-.76,15.28-10,18.06-2.38.41-4.67-1.31-7.08-.31-4.75-1.88-6.92-5.64-7.68-10.44-1.42-6.68.63-13.57-1.18-20.23-2.13-4.29-6.15-3-9.58-3.06C711.17,742.64,687.67,742.67,664.16,742.67Z"/><path class="cls-3" d="M877.55,751.84q-3.63,31.49-7.27,63c-.34,2.95-.5,5.91-.75,8.87-1.14,6.08-6.08,3.8-9.42,3.83-25.81.2-51.63.13-77.44.1a20,20,0,0,1-4.76-.42c-10.72-3.79-19.61-9.21-19.69-22.36a46.77,46.77,0,0,0,.27-10.83c-.53-6.89,1-12.1,7.94-15.51,6.34-3.11,6-9.86,6.38-15.91.56-8.82,3.4-13,11.71-13.05C815.54,749.46,846.65,747,877.55,751.84Z"/><path class="cls-47" d="M877.55,751.84c-4.16,2.68-8.91,2-13.24,1.44-26-3.67-52.22-.31-78.31-1.47-6.82-.3-11.87,1.55-10.52,11.29,1,7.57.18,16.76-10.43,19.27-4.18,1-4.52,4-4.76,7.58-.36,5.32,1.46,10.83-1.26,16-2.38-10.19-2-20.4-.26-30.62,6.48-1.7,9-6.13,8.85-12.55-.11-4.47,0-9,0-13.44,0-3.72,1.06-6.52,5.55-6.31,30.78.86,61.55,1,92.33,0l12.77-2.29C878,744.38,877.79,748.11,877.55,751.84Z"/><path class="cls-48" d="M918.64,779l-2.31-.17a5,5,0,0,1-2.12,1.27,4.34,4.34,0,0,1-3.45-1.16l-7.13-.47c-4.17-7.24-2.75-14.86-1.53-22.47a145.61,145.61,0,0,1,27,.08c4.08,7.47,4,14.93,0,22.39Z"/><path class="cls-49" d="M910.76,778.9l3.67-.09c1.65,14.58,3.62,29.21-7.14,41.68l.09-.1c-7.53,6.19-16.09,8.37-25.89,8.26-31-.36-62-.06-93-.26-2.75,0-6.79,2.33-8.35-2.46,26.42-.06,52.84-.08,79.25-.25,3.44,0,7.3,1.34,10.15-2,6.28.08,12.56.3,18.83.23,12.69-.16,22-9.12,22.48-21.76C911.1,794.42,910.8,786.66,910.76,778.9Z"/><path class="cls-50" d="M929.09,778.43q0-11.19,0-22.39c1.78-.18,3.56-.5,5.34-.53,11.53-.22,17.52,9.65,12.28,20.09-1.27,2.53-3.43,3.15-6,3.12C936.87,778.67,933,778.53,929.09,778.43Z"/><path class="cls-51" d="M902.1,756c3.2,7.31.86,15,1.53,22.47-1.5.1-3,.27-4.51.29-12.75.19-18-7.37-13.47-19.33,1.19-3.18,3.87-3.63,6.53-3.76C895.47,755.47,898.79,755.83,902.1,756Z"/><path class="cls-52" d="M968.8,594.13c-4.73-1.29-8.62-6.24-7.86-10.53,1.07-6.06,6.71-11.2,13-12,6.09-.81,8.57,5.65,10.87,10.26C986.06,584.4,974,594,968.8,594.13Z"/><path class="cls-53" d="M966.81,532.86c9.12-.57,7.38,7.85,11.71,10.83,2.65,1.82.66,4.7-1.18,6.94-7.06,8.61-8.81,8.54-13.42-.72-.65-1.32-1.67-2.45-2.38-3.75-1.57-2.9-8.66-3.12-5.73-7.29C958.18,535.48,963.81,534.38,966.81,532.86Z"/><path class="cls-54" d="M979.31,617.67c-4.64-.94-6.66-4.6-6.3-7.92.68-6.27,6.24-8.89,11.61-9.27,4.88-.34,6.44,4.86,5.74,8.39C989.27,614.34,983.71,615.79,979.31,617.67Z"/><path class="cls-29" d="M891.29,559.77l-.39-115.69c-2.58-3.11-2.54-6.14.27-9.09,2.07,1.9,1.61,4.42,1.61,6.78q0,59.22-.14,118.44A4.55,4.55,0,0,0,891.29,559.77Z"/><path class="cls-55" d="M891.17,435l-.27,9.09c-8.19,9.18-12.12,20.92-18.76,31.09a596.16,596.16,0,0,1-36.86,50.62,10.59,10.59,0,0,0-2.66,5.56c-5-.38-6.74-4.74-9.16-8-20.55-27.45-59-38.82-90.88-28.28-36.61,12.08-58.42,42.6-58.85,79.14-.26,22.62,8,41.58,22.4,58.41,2.11,2.47,5,4.49,4.82,8.3-10,5.92-19.79,12.1-30,17.61-3.68,2-2.15,6-4.69,8.11-2.63-2-2.49-4.88-2.56-7.69.64-4.59,2.75-9.63-3.75-12-2.2-3.38-3-7.31-3.53-11.11-1.79-12.45-8.34-21-20-25.8a21.09,21.09,0,0,1-6.07-3.89c-2.4-2.45-4.81-5.32-2.78-8.73,3.88-6.51,3-13.26,2-20.12,3.05-8.17-5.68-10.43-8-15.89q.21-63.18.43-126.34C626.7,422,636,416.68,649.81,416.73c70,.26,139.94.36,209.91-.08C874.57,416.55,885.53,420.6,891.17,435Z"/><path class="cls-56" d="M631.52,576c1.11,7.72,4.09,15.52-2.49,22.58-2.2,2.36,1.51,4,2.21,6a7,7,0,0,1-1.11,5.32c-4.54,4.65-9.31,6.5-14.67,1.21l-4.2-9.63c0-2,.09-4,.14-6-2-4.21-5.95-8.92-.71-12.81C616.67,578.31,621.84,569.63,631.52,576Z"/><path class="cls-57" d="M631.52,576c-6.21.43-13.75-1.73-15.25,7.82-11.77-.31-2.68,8-4.87,11.69-8.14-5-13.51-15.73-11.64-23.1,2-7.82,8.36-11,21.9-11.05,3.46,2.09,7,4,9.72,7.17C633.59,571.16,634.2,573.5,631.52,576Z"/><path class="cls-58" d="M660.92,646.18c10.65,0,5.9,6.66,5,11.62-1.66,1.62-4.26,1.38-6.12,2.6,1.19,3.89,5.71,5.77,4.74,10.19q-3.08,16.26-6.17,32.52l-7,0-12.64-.53c-5.87-1.94-12-.9-17.92-1.16-5-.22-8-.5-6.1-7,1.62-5.42,1.9-11.24,2.78-16.88,3.31-3.11,11-5.51,1.79-10.7l3.24-21.69c4.73-4.29,10.52-2.7,16-2.88C646.22,642.34,654.12,641.12,660.92,646.18Z"/><path class="cls-51" d="M639.12,644.48l-16.57.68q-3.56-17-7.09-34c5,1.37,9.9,2,13.84-2.52C635.77,619.72,639.61,631.51,639.12,644.48Z"/><path class="cls-59" d="M619.31,666.85c3,1.17,8.71-.74,8.4,4s-5.58,6.22-10.19,6.73C616.73,673.75,616.37,670,619.31,666.85Z"/><path class="cls-60" d="M430.14,775.33c-1.76-.4-4.77-1.07-4.3-2.51,2.29-7.06-4.93-9.21-6.69-14.07l23.75-56.19c7.84-.59,15.71-2,23.44.75q-13.6,31.52-27.21,63C437.34,770.44,435.5,774.68,430.14,775.33Z"/><path class="cls-3" d="M402.43,731.56c7.48,2.36,12.27,9.77,20.44,10.81a35.35,35.35,0,0,0-5.55,13.31A125.73,125.73,0,0,1,402.43,731.56Z"/><path class="cls-3" d="M466.34,703.31c-7.77-1.67-15.6-1.44-23.44-.75C450.79,700.42,458.66,699,466.34,703.31Z"/><path class="cls-61" d="M780.13,825.93c2.94,2.26,6.38,1.33,9.61,1.33,27.4.07,54.81-.21,82.22.14,12.42.15,24.53,0,35.42-7-3.78,7-10.76,8.72-17.5,8.79-36.07.35-72.14.18-108.21.09-1.68,0-3.36-1-5-1.49-.63-.41-.83-.82-.61-1.21s.44-.58.66-.58Z"/><path class="cls-62" d="M776.68,826c0,.6,0,1.19,0,1.79-13.16-3.76-19.79-12.36-20.45-25.7-.4-8.21,1.6-16.54-1.26-24.62l-1.81-1c1.58-1.88,3.69-1.16,5.66-1.15q.13,15.32.26,30.62C760.65,816.33,767.5,822.18,776.68,826Z"/><path class="cls-61" d="M907.29,820.49c9.24-12.72,6.5-27.49,7.15-41.68l1.89,0c0,7.49.36,15,0,22.49S914.76,816.18,907.29,820.49Z"/><path class="cls-3" d="M744.25,745.77c3,6.59,1.09,13.47,1.18,20.24C742.51,759.41,744.57,752.52,744.25,745.77Z"/><path class="cls-47" d="M701,641c-18.26-17.69-29.63-38.51-29.73-64.56-.13-38.93,23-71.07,60.13-83.44,35-11.63,73.83,1.23,96.47,31.92,1.59,2.17,3.2,4.32,4.8,6.48,15.17,30.07,16.38,60.13-1.75,89.27-27.23,43.77-85,53.88-126.11,22.68A44.74,44.74,0,0,0,701,641Z"/><path class="cls-3" d="M865.49,742.94a600.38,600.38,0,0,1-92.33,0Z"/><path class="cls-63" d="M664.58,670.59c-.82-1.16-1.44-2.57-2.51-3.43-2.76-2.22-6.82-4.55-5.46-8.17,1.67-4.41,6.16-.66,9.35-1.19l.33,8.87Z"/><path class="cls-64" d="M639.12,644.48q-4.9-17.91-9.82-35.83c.12-1.58.3-3.14,1.94-4,.46.37.87,1,1.4,1.11,20,6.1,26.37,21.71,28.28,40.42Z"/><path class="cls-65" d="M709.3,636.31c-25-18.72-36-51.6-27.29-82.07,9.1-32,35.92-54.11,69.32-57.28,30.07-2.85,61.66,14.47,74.7,41-2.28,6.58-8.37,10-12.64,14.89-1.8,2.09-3.81,3.24,0,6.07,4.53,3.43,5.54,24.06,2.17,28.83-1.47,2.08-2.92,1.45-4.07-.52-1.52-3.75-1.15-7.71-1.25-11.61-.28-10.4-.86-11-11.63-11.14-5.73-.09-11.48.17-17.21-.13-9.64-.52-12.28-3.1-12.77-12.6-.35-6.92-.28-13.86-.1-20.78.21-8.14-5.06-8.15-10.87-8.16s-11,.51-10.8,8.41c.14,6.32.15,12.65-.07,19-.4,11.23-3,13.86-14,14.22-5.74.18-11.48,0-17.21.08-9.45.18-10.37,1.15-10.39,10.4,0,9.73,1.1,10.92,10.77,11.15,6,.14,12.09-.2,18.12.17,9.48.57,12.44,3.3,12.64,12.78s1,19.26-.65,28.82c-1.62,3.74-3.38,4-5.22.13-1.41-3,.13-6.59-1.82-9.8C727.68,622.06,721.39,634,709.3,636.31Z"/><path class="cls-46" d="M709.3,636.31c10.58-7.66,20.33-16.5,31.9-23,2.58,6-1.28,12.12,2.74,17.11,4.38-3.64,9.69-2.93,14.71-2.79,6.81.18,9.92-2.56,9.75-9.5s-.3-13.81.14-20.7c.56-8.85,2.66-11.41,11.66-11.22,10.93.23,22.21-2.84,32.75,2.56,3.89-8.25,1.53-17,1.56-25.44,0-5.85-6.55-1.9-9.63-5,6.88-7.1,13.2-14.56,21.15-20.42,18.59,31.22,11,72.22-17.89,96.89C779.8,659,737.72,659.63,709.3,636.31Z"/><path class="cls-16" d="M813,588.76c-8.09.09-16.18.24-24.27.26-17.15,0-17.15,0-17.16,16.67,0,6.28-.25,12.57.06,18.84.22,4.61-1.22,6.46-6.06,6.18-7.18-.4-14.39-.23-21.58-.3-.1-11.45-.45-22.91-.2-34.35.12-5.61-1.94-7.35-7.39-7.14-9.35.35-18.73-.06-28.09.18-4.47.11-6.28-1.05-6.51-6-1-21.87-1.22-21.86,20.52-21.86,21.32,0,21.32,0,21.36-21.07,0-21.68,0-21.53,21.72-20.63,4.66.19,6.39,1.46,6.23,6.24-.3,9.33.21,18.69-.19,28-.27,6.1,2.14,7.79,7.92,7.57,9.35-.37,18.73.12,28.09-.07,4.31-.08,5.92,1.47,5.76,5.76C812.89,574.29,813,581.53,813,588.76Z"/><path class="cls-66" d="M890.5,576.5s18.82,17.44,21.18,56.2S890.5,576.5,890.5,576.5Z"/></svg>